<svg id="Layer_1" data-name="Layer 1" xmlns="http://www.w3.org/2000/svg" xmlns:xlink="http://www.w3.org/1999/xlink" viewBox="0 0 841.89 595.28"><defs><style>.cls-1{fill:none;}.cls-2{fill:#afcce0;}.cls-3{clip-path:url(#clip-path);}.cls-4{fill:#72473d;}.cls-5{fill:#d9d9db;}.cls-6{fill:#eb9756;}.cls-7{fill:#292728;}.cls-8{fill:#c5c2e1;}.cls-9{fill:#9491a8;}.cls-10{fill:#663d35;}.cls-11{fill:#e1e1e5;}.cls-12{fill:#f1f1f1;}.cls-13{fill:#774e2b;}.cls-14{fill:#e4e5e5;}.cls-15{opacity:0.1;}.cls-16{fill:#f2f2f2;}.cls-17{fill:#82544a;}.cls-18{fill:#111;}.cls-19{fill:#eaeaea;}.cls-20{fill:#f3f0eb;}.cls-21{fill:#474341;}.cls-22{fill:#86add3;}.cls-23{fill:#678aa8;}.cls-24{fill:#5b84a5;}.cls-25{fill:#f7c9a4;}.cls-26{fill:#eab48f;}.cls-27{fill:#9ac1e2;}.cls-28{fill:url(#linear-gradient);}.cls-29{fill:url(#linear-gradient-2);}.cls-30{fill:#491f07;}.cls-31{fill:url(#linear-gradient-3);}.cls-32{fill:url(#linear-gradient-4);}.cls-33{fill:url(#linear-gradient-5);}.cls-34{fill:url(#linear-gradient-6);}.cls-35{fill:url(#linear-gradient-7);}.cls-36{fill:url(#linear-gradient-8);}.cls-37{fill:url(#linear-gradient-9);}.cls-38{fill:url(#linear-gradient-10);}.cls-39{fill:#111421;}</style><clipPath id="clip-path"><rect class="cls-1" x="71.84" y="-73.1" width="684.33" height="633.23" transform="translate(828 487.03) rotate(-180)"/></clipPath><linearGradient id="linear-gradient" x1="411.22" y1="352.43" x2="513.02" y2="352.43" gradientTransform="matrix(-1, 0, 0, 1, 828, 0)" gradientUnits="userSpaceOnUse"><stop offset="0" stop-color="#eec9c8"/><stop offset="0.34" stop-color="#edc5c4"/><stop offset="0.64" stop-color="#ecbbb9"/><stop offset="0.94" stop-color="#e9a9a7"/><stop offset="1" stop-color="#e8a4a2"/></linearGradient><linearGradient id="linear-gradient-2" x1="374.59" y1="292.36" x2="376.17" y2="292.36" xlink:href="#linear-gradient"/><linearGradient id="linear-gradient-3" x1="371.6" y1="293.76" x2="372.47" y2="293.76" xlink:href="#linear-gradient"/><linearGradient id="linear-gradient-4" x1="372.26" y1="299.63" x2="387.6" y2="299.63" xlink:href="#linear-gradient"/><linearGradient id="linear-gradient-5" x1="370.08" y1="299.29" x2="372.47" y2="299.29" xlink:href="#linear-gradient"/><linearGradient id="linear-gradient-6" x1="371.54" y1="306.31" x2="373.11" y2="306.31" xlink:href="#linear-gradient"/><linearGradient id="linear-gradient-7" x1="371.5" y1="311.29" x2="385.88" y2="311.29" xlink:href="#linear-gradient"/><linearGradient id="linear-gradient-8" x1="372.26" y1="322.25" x2="385.02" y2="322.25" xlink:href="#linear-gradient"/><linearGradient id="linear-gradient-9" x1="372.35" y1="296.46" x2="373.74" y2="296.46" xlink:href="#linear-gradient"/><linearGradient id="linear-gradient-10" x1="372.09" y1="318.37" x2="374.61" y2="318.37" xlink:href="#linear-gradient"/></defs><title>1</title><path class="cls-2" d="M703,560.53H167.49s-81.61-131.07,22.56-221,178.56,204.91,278.67,126C598.65,363.21,762.32,299.05,703,560.53Z"/><g class="cls-3"><path class="cls-4" d="M520.75,265.9S509,433.56,512.08,469.48L527.7,467s2.84-126.79,10.46-143.44Z"/><path class="cls-5" d="M520.75,265.9s-13.51,157.8-10.41,193.72l18.14.65,20-103.19Z"/><path class="cls-6" d="M512.08,469.48l2.79,32.58,13.2,17.1,7.39,2.85s4.51-3.62,0-5.63S523.18,504,523.18,504l9.53,8.37,7.24,3.23s.9-6.57-4-9.13a17.05,17.05,0,0,1-7-6.79s7.43-23.84-1.28-32.7Z"/><path class="cls-4" d="M513.09,481.28l1.78,20.78,4.25,13.2s6.93.66,5.43-7a65.25,65.25,0,0,1-.84-15.57s7.28-5.31,7.06-7.24-3-19.06-3-19.06l-16-3.69Z"/><path class="cls-7" d="M646,430.56c-6.89,93.33,28,372,32.16,383.33,5.09,14,64.52,31.06,47.79,36-28.74,5.84-79.43-8.37-79.43-8.37S597.68,544,581.94,519.05c-5.46-8.64-18.64,322.64-18.64,322.64s-70.54,18.66-83.39-.28c1.43-3.55,36.8-8.6,46.16-22.8,7.07-10.73-.26-223-4.27-326.18l13.4-55.57Z"/><path class="cls-8" d="M543,356.84l1.95,9.76-3.42,3.91v13.66l-6.7-1.76s-7.7-29.13-7.7-49.85,1.1-38.43,1.1-38.43l18.31,44.64,1.34,9.29Z"/><polygon class="cls-9" points="629.82 226.05 610.9 224.09 588.21 227.76 577.11 234.34 578.57 248.5 593.21 239.47 611.76 236.42 635.02 240.33 629.82 226.05"/><path class="cls-4" d="M623,207.5s0,34.17,6.84,48.32-44.9,29.77-44.9,29.77-22-14.15-12.69-27.33,11.22-39.53,11.22-39.53Z"/><path class="cls-10" d="M597.91,249.88c-5,4.44-12.14,10.41-19,11.43-2.91.43-4.66-1.6-5.78-4.45,8.48-13.55,10.3-38.13,10.3-38.13L623,207.5s0,2.42.13,6.22C616.33,226.86,609,240,597.91,249.88Z"/><path class="cls-11" d="M521,266.55c2.44-2.25,53.2-25.86,53.2-25.86L583,272.41l48.32-34.65s49.23,29.71,52.22,32.7c1.9,1.9-37.54,160.1-37.54,160.1l-84.24,12.66-25.63-4.67S518.54,268.81,521,266.55Z"/><path class="cls-9" d="M593.7,248.5l-1.16,17.32c17.69-1.32,42.28-25.92,42.28-25.92l-5-13.85Z"/><path class="cls-12" d="M582.9,275.64a2.38,2.38,0,1,1-2.38,2.38A2.38,2.38,0,0,1,582.9,275.64Z"/><path class="cls-12" d="M582.66,323.56a2.38,2.38,0,1,1-2.38,2.37A2.38,2.38,0,0,1,582.66,323.56Z"/><path class="cls-12" d="M582.41,371.46a2.38,2.38,0,1,1-2.37,2.38A2.39,2.39,0,0,1,582.41,371.46Z"/><path class="cls-12" d="M575.08,419.37a2.38,2.38,0,1,1-2.38,2.38A2.39,2.39,0,0,1,575.08,419.37Z"/><path class="cls-13" d="M567.45,448.23c18.86,0,78.28-8,78.28-8l.48-9.93S581.83,438,567.45,438c-17.88,0-32.12-1.11-32.25-1.12l-.83,10.23C534.93,447.13,549.16,448.23,567.45,448.23Z"/><polygon class="cls-7" points="605.79 445.61 610.2 445.24 609.91 434.29 605.48 434.67 605.79 445.61"/><polygon class="cls-7" points="547.8 448.32 551.94 448.48 552.26 437.49 547.8 437.43 547.8 448.32"/><polygon class="cls-7" points="630.23 442.58 635 442.11 634.67 431.37 630.07 431.96 630.23 442.58"/><path class="cls-14" d="M565.57,449a6.36,6.36,0,0,1-2.1-4.45l-.06-1.08a6.46,6.46,0,0,1,6.12-6.73l7.49-.36a6.46,6.46,0,0,1,6.73,6.13l.06,1.08a6.46,6.46,0,0,1-6.13,6.73l-7.48.35h-.31A6.37,6.37,0,0,1,565.57,449Zm11.59-9.69-7.48.36h0a3.5,3.5,0,0,0-3.34,3.66l0,1.08a3.52,3.52,0,0,0,3.67,3.34l7.49-.36a3.47,3.47,0,0,0,2.42-1.14,3.51,3.51,0,0,0,.91-2.52l0-1.08a3.51,3.51,0,0,0-3.5-3.34Z"/><g class="cls-15"><polygon points="583.2 520.34 561.23 505.45 563.18 510.33 575.87 519.36 556.84 518.63 557.57 520.34 575.14 524.24 564.89 525.95 571.97 528.63 576.12 527.9 556.84 560.53 563.9 554.5 583.2 520.34"/></g><path class="cls-16" d="M632.52,225.43,593.7,248.5s3.38,14.07,14.64,18.05l29.18-27.26Z"/><path class="cls-9" d="M578.26,245.44s-4.38,16.33-17.74,19.65l8.78-23.42,7.81-7.32Z"/><path class="cls-16" d="M569.3,241.67l10.49,19.27S577,252,576.5,246.54a59.69,59.69,0,0,1,.61-12.19Z"/><path class="cls-17" d="M571.46,138.17c-1.3,1.85-4.58,24.47-4.5,26.3s2.23,5.31,2,8.57-2.61,8-2.32,13.33c.87,11.08,11.35,32.48,12.73,36.27.92,2.54,9.12,4.18,13.5,3.73,7.32-.73,29.08-15.05,31.71-19.46s3.84-15.3,3.84-15.3,5.64-22.2,6-26.56,1.46-30.36.16-32.94-12.24-14.77-37.37-13.91S572.77,136.32,571.46,138.17Z"/><path class="cls-18" d="M614,113c19.31,3.59,22.51,9.12,23.2,15.09a36.59,36.59,0,0,0,.94,5.25,59.27,59.27,0,0,1,1.06,7.61c.65,7.59.68,15.29-.9,22.71s-7.85,19.83-7.85,19.83-3.3-20-3.85-21.24c-1.13-2.53-6.92-4.27-7-4.57s2.45-8.74.84-12.16c-1.17-2.48-3.85-4-6.58-4.6s-27.12,1.12-28.91,1c-4.06-.34-8.72-2.56-14.68-1.34,0,0-4-3.71-4.55-6.49C565.75,134.06,585.1,109.33,614,113Z"/><path class="cls-17" d="M625.73,176.85c-2.22,6.84,1.14,15.82,4.73,15.57,2.09-.14,2.73-2.32,4.78-4.38a15.1,15.1,0,0,0,4.18-6.75c2.22-6.84,1-13.38-2.82-14.61S628,170,625.73,176.85Z"/><path class="cls-10" d="M637.14,171.28a4,4,0,0,0-1.58-1,4.84,4.84,0,0,0-2-.28,4.68,4.68,0,0,0-2.09.67,4.14,4.14,0,0,0-2,3.37,4,4,0,0,0,.44,1.91,6.48,6.48,0,0,0,1.06,1.43l.25.26a8,8,0,0,1,.65.74,2,2,0,0,1,.4.88,2.45,2.45,0,0,1-.55,2l-.11.12-.07.08-.09.07-.12.11-.09.07-.17.11-.11.06-.23.14a1.9,1.9,0,0,0-.74.79,1.93,1.93,0,0,0-.15.91,4.52,4.52,0,0,0,.09.67,2.38,2.38,0,0,1,.07.69,1.37,1.37,0,0,1-.14.57.67.67,0,0,1-.43.33.17.17,0,0,0-.14.18.18.18,0,0,0,.19.15h0a1.24,1.24,0,0,0,.47-.1,1.38,1.38,0,0,0,.38-.28,1.92,1.92,0,0,0,.42-.73,2.72,2.72,0,0,0,.12-.78c0-.22,0-.45.06-.65a1.28,1.28,0,0,1,.17-.45.66.66,0,0,1,.33-.22l.13,0c.18-.07.4-.15.62-.26l.3-.18.22-.14.26-.2a4.33,4.33,0,0,0,1.08-1.43,4,4,0,0,0,.35-1.73,3.79,3.79,0,0,0-.54-1.76,9.62,9.62,0,0,0-.69-1l-.22-.28a3.14,3.14,0,0,1-.52-1,1.79,1.79,0,0,1,0-.83,3.11,3.11,0,0,1,.88-1.5,3.54,3.54,0,0,1,4.31.18.18.18,0,0,0,.2,0,.15.15,0,0,0,.1-.16A2.63,2.63,0,0,0,637.14,171.28Z"/><path class="cls-19" d="M658,284.15l-25.66,84.22-70.6-21.8-2.1,17.67c-1.55,3.33.47-.75,0,0,10.18,7.22,20.34,15,36.77,21.39,24.68,9.64,55.49,14.73,59.71,14.58,8.8-.3,33.68-71.9,33.68-71.9Z"/><path class="cls-19" d="M689.81,328.31s18.94-51.12-6.31-57.85C669,266.59,658,284.15,658,284.15"/><polygon class="cls-4" points="561.75 346.57 546 341.22 544.58 360.01 559.65 364.24 561.75 346.57"/><path id="_Path_" data-name="&lt;Path&gt;" class="cls-4" d="M517.33,328.12s-2.45-3.42-4.65,0,5.79,10.28,5.79,10.28Z"/><g id="_Group_" data-name="&lt;Group&gt;"><path id="_Path_2" data-name="&lt;Path&gt;" class="cls-20" d="M515.38,310.39l4.82,44.33,25.19-.69,6.55-42.78a121,121,0,0,0-20-1.72A123.3,123.3,0,0,0,515.38,310.39Z"/><path id="_Path_3" data-name="&lt;Path&gt;" class="cls-21" d="M551.94,311.25V308l-2.41-1.55-2.25-2.59H518.65l-1,2.25-2.23.86v3.45a156.19,156.19,0,0,1,18.28-.86C545.39,309.53,551.94,311.25,551.94,311.25Z"/></g><g id="_Group_2" data-name="&lt;Group&gt;"><path id="_Path_4" data-name="&lt;Path&gt;" class="cls-20" d="M414.18,281.22l5.31,48.86,27.76-.76,7.23-47.15a133.25,133.25,0,0,0-22.06-1.9A135.58,135.58,0,0,0,414.18,281.22Z"/><path id="_Path_5" data-name="&lt;Path&gt;" class="cls-21" d="M454.48,282.17v-3.61l-2.66-1.72L449.35,274H417.78l-1.14,2.47-2.46,1v3.81a171.78,171.78,0,0,1,20.15-1C447.25,280.27,454.48,282.17,454.48,282.17Z"/></g><path id="_Path_6" data-name="&lt;Path&gt;" class="cls-4" d="M545.41,361.66c-5.07-.67-10.46-1.88-10.46-1.88s-10.28-1.79-11.1-5.06l19.91-.65s2.29-1.47-2.28-3.59-14.69-2.94-15.5-5.22.16-3.59,2.61-4.25c0,0-4.08-2.28-3.43-4.73s6.37-3.42,14.36-2.45l8,1s2.77-2.28-1.31-2.61-12.07-.65-11.75-3.59,3.76-3.42,9.79-4.08,10.77,1.31,10.45,5.55a34.44,34.44,0,0,0,0,6.69s.31,4.24,1.46,5.55-.17,5.06-1.15,6c0,0,1.64,3.59.66,5.55l-1,2s.65,4.07-.33,6.36"/><g id="_Group_3" data-name="&lt;Group&gt;"><path id="_Path_7" data-name="&lt;Path&gt;" class="cls-4" d="M530.69,340.12a128.91,128.91,0,0,1,21.66,3.47,1.47,1.47,0,0,1-.73,2.85,128.63,128.63,0,0,0-21.09-3.39,1.46,1.46,0,0,1-1.39-1.54A1.49,1.49,0,0,1,530.69,340.12Z"/></g><path class="cls-7" d="M314.06,435.57s5.68,104.54-15.67,214.78c-1.34,6.88-9,145.68-4.45,171.18H254s-17.31-106.94-2-174.39l5.89-85.79,6.7-42.53S240.67,639.73,231.35,660.3s-19,162.75-19,162.75l-38.25.12s-10-92.95,13.31-184.26c0,0,12.53-168.94,19.18-201Z"/><path class="cls-22" d="M329.75,263.94c-1.06-2.92-17.64,61.16-17.64,61.16s0,58.37,2.85,63.47c2.59,2.35,29.51-.83,31.21-7.17S333.86,275.17,329.75,263.94Z"/><path class="cls-23" d="M307.63,354.91l-2,9.83,3.44,3.94v13.76l6.76-1.77s7.75-29.35,7.75-50.22-1.11-38.73-1.11-38.73l-18.44,45-1.35,9.36Z"/><polygon class="cls-24" points="220.1 223.13 239.16 221.16 262.02 224.85 273.21 231.49 271.73 245.75 256.98 236.65 238.29 233.58 214.86 237.52 220.1 223.13"/><path class="cls-25" d="M227,204.45s0,34.42-6.89,48.67,45.24,30,45.24,30,22.13-14.26,12.78-27.54-11.31-39.82-11.31-39.82Z"/><path class="cls-26" d="M252.24,247.14c5,4.48,12.24,10.49,19.13,11.51,2.93.44,4.7-1.6,5.82-4.48-8.54-13.65-10.38-38.41-10.38-38.41L227,204.45s0,2.43-.13,6.26C233.69,224,241.05,237.14,252.24,247.14Z"/><path class="cls-22" d="M329.75,263.94c-2.45-2.27-53.59-26.06-53.59-26.06l-8.85,32-48.68-34.91S169,264.86,166,267.88c-1.92,1.91,13,42.48,24,71.69,6.3,16.64,5.71,12.36,11.37,29.6s4.12,77,4.12,77l44.72,6a207,207,0,0,0,54.2.11L315,450.93l1.76-44.88,6.13-107.2S332.21,266.22,329.75,263.94Z"/><path class="cls-24" d="M256.49,245.75l1.17,17.45c-17.82-1.33-42.6-26.11-42.6-26.11l5-14Z"/><g class="cls-15"><polygon points="267.08 519.63 289.2 504.63 287.24 509.55 274.45 518.65 293.63 517.91 292.89 519.63 275.19 523.57 285.51 525.29 278.38 527.99 274.2 527.25 293.63 560.13 286.52 554.05 267.08 519.63"/></g><path class="cls-27" d="M220.1,223.13l36.39,22.62s-3.41,14.17-14.75,18.19l-26.68-26.85Z"/><path class="cls-24" d="M272.05,242.67s4.41,16.45,17.87,19.8l-8.85-23.6-7.86-7.38Z"/><path class="cls-27" d="M281.07,238.87,270.5,258.29s2.85-9,3.32-14.51a59.83,59.83,0,0,0-.61-12.29Z"/><path class="cls-28" d="M415.4,300.48l-15.68,16.43s-38.37,21.52-59.15,38S315,382.2,315,382.2s4.14,15.11,9,20.43,18.71-3.22,18.71-3.22L406,330.56l8.23-4.72C419.2,311.41,415.4,300.48,415.4,300.48Z"/><path class="cls-22" d="M394.62,319.83c-11.13,6.43-37.9,22.28-54.05,35.1-20.77,16.51-28.46,25.23-28.46,25.23s-.29,20.57,4.63,25.89,26-6.64,26-6.64l61.47-61.36C401.58,333.16,397.07,324.81,394.62,319.83Z"/><path class="cls-25" d="M429.32,296.41a7.69,7.69,0,0,1,.1,2.94,3.93,3.93,0,0,1-.57,1.6,3.15,3.15,0,0,1-1.26,1.09,1.74,1.74,0,0,1-.8.24c-.48,0-.76-.24-1.42-.63s-.53-.24-1.35-.69a30.23,30.23,0,0,1-2.81-1.79,36.19,36.19,0,0,0-3.81-2.32l-1,1.19a5.37,5.37,0,0,1,.67.72,5.5,5.5,0,0,1,.63,1.06c-.13.63-.32,1.63-.45,2.87-.39,3.51,0,5.68.27,10,.26,3.61.06,2.74.35,7.37.23,3.72.52,6.81.75,9a4.75,4.75,0,0,1-2.38,1.14,11.62,11.62,0,0,1-2.77-.16l-1.93-.18c-1.38,1.78-2.88,3.61-4.49,5.47-1,1.1-1.92,2.16-2.86,3.18-1.65-.73-2.18-4.72-3.58-7.19-1.14-2-5.86-9.57-6-11.53-.21-2.81,1.29,5,0,0,1-.49,3.33-4.71,4.89-5.9a32.8,32.8,0,0,0,4.24-4c1.38-1.46,3.09-3.3,5-5.46.44-1.63.85-3.4,1.19-5.29s.57-3.47.75-5.06c.38-.29,1-.76,1.64-1.38,1-.9,1.3-1.36,2.17-2.16,1.11-1,1.37-1.44,2-1.61a2.83,2.83,0,0,1,1.37,0,15.28,15.28,0,0,1,5.39,2.69c.95.7.95.77,3.29,2.64C427.75,295.19,428.69,295.92,429.32,296.41Z"/><path class="cls-25" d="M455,303.65c.12.38.31,1,.58,1.64a12.6,12.6,0,0,1,.6,1.55,2.91,2.91,0,0,1,0,2.19c-.28.47-.75.58-1.5.85-1.43.5-.09.21-3.08,1.37a28.38,28.38,0,0,1-5.94,1.93,15.48,15.48,0,0,1-3.29.12,2.78,2.78,0,0,1-1.74-1.66,2.42,2.42,0,0,1,.1-1.28,12.8,12.8,0,0,1,1.37-3.16,2.21,2.21,0,0,1-1.12-.53,2.24,2.24,0,0,1-.64-1.73,3.05,3.05,0,0,1,.77-1.61,6.85,6.85,0,0,1,1.14-1.24,2.78,2.78,0,0,1-1.38-1.12,2.87,2.87,0,0,1-.31-2.17,2.11,2.11,0,0,1,.47-.88,2.63,2.63,0,0,1,1.63-.73,26.3,26.3,0,0,0,3.2-1,30.07,30.07,0,0,0,3.5-1.18,20.89,20.89,0,0,0,2.43-1.21,15,15,0,0,0,.8-2,15.2,15.2,0,0,0,.69-4.16l2.9,2.54c0,1.54-.1,3.18-.27,4.91-.08.79-.17,1.56-.27,2.3a8.58,8.58,0,0,1,1.37,1.79,8.07,8.07,0,0,1,.81,2l-1.5,1.3C455.89,302.86,455.45,303.25,455,303.65Z"/><path class="cls-29" d="M452.86,290.88a1.52,1.52,0,0,1,.55,1c0,.51-.4.88-.88,1.35a4.49,4.49,0,0,1-.7.57c.17-.45.34-.91.5-1.39S452.69,291.4,452.86,290.88Z"/><path class="cls-25" d="M455,309.86a7.6,7.6,0,0,1,2,4.51,7.92,7.92,0,0,1-.49,3.15,8,8,0,0,1-.86,1.76c-1.41.88-2.53,1.66-3.29,2.22a21.18,21.18,0,0,1-4.13,2.73c-2,.89-2.72.77-3.08.63a3.27,3.27,0,0,1-1.6-1.6,3.15,3.15,0,0,1-.43-1.8,3.29,3.29,0,0,1,.83-1.78c1.28-1.56,2.69-2.18,4.95-3.66.72-.48,1.52-1,2.38-1.64a4.69,4.69,0,0,1-.84-1,5.12,5.12,0,0,1-.54-1.19Z"/><path class="cls-30" d="M453,290.62c2.71,3.63-8.21,6-9.94,6.55-.14,0-.22-.16-.09-.2,2.12-.65,4.29-1.27,6.33-2.12,1.6-.67,5.3-1.73,3.53-4.1-.08-.11.09-.24.17-.13Z"/><path class="cls-30" d="M453.43,287.52l2.92,2.57c.1.09,0,.27-.14.17l-2.91-2.57c-.11-.09,0-.26.13-.17Z"/><path class="cls-31" d="M456.4,290.29c-.26,2.33-.21,4.64-.65,7,0,.14-.24.11-.22,0,.44-2.32.4-4.63.66-7,0-.14.23-.11.21,0Z"/><path class="cls-32" d="M455.71,297.47a15.87,15.87,0,0,1-5.93,3.42c-2.15.82-5,1.83-7.34,1.44-1.47-.24-2-1.3-2-2.71,0-2.34.65-2.26,2.59-2.78.14,0,.16.18,0,.22-1,.27-2,.09-2.35,1.65-.19.83,1.43,3.21,2.1,3.45,1.19.42,3.67-.46,4.83-.79,2.7-.75,6-1.94,7.94-4,.09-.1.26,0,.17.14Z"/><path class="cls-33" d="M455.68,297.4a3.46,3.46,0,0,1,1.33,1.5,9.84,9.84,0,0,1,.91,2.14c0,.13-.16.22-.2.08a9.81,9.81,0,0,0-.69-1.72,3.89,3.89,0,0,0-1.44-1.8c-.12-.06,0-.26.09-.2Z"/><path class="cls-30" d="M442.18,302.27a14.22,14.22,0,0,0-1.26,1.53,2.12,2.12,0,0,0-.37,1.58c.12.75.57,1.64,1.51,1.63.14,0,.17.21,0,.21-1,0-1.57-.88-1.76-1.81-.28-1.36.84-2.33,1.68-3.27.09-.11.26,0,.17.13Z"/><path class="cls-34" d="M455.1,303.53c.51,1.85,1.71,3.55,1.26,5.53,0,.14-.25.11-.22,0,.44-1.94-.74-3.61-1.24-5.42,0-.13.16-.22.2-.08Z"/><path class="cls-35" d="M456.44,309.29c-4.52,2.06-9.12,4.54-14.23,4.18-.13,0-.11-.23,0-.22,5.07.36,9.65-2.12,14.12-4.16.12-.06.21.14.08.2Z"/><path class="cls-30" d="M442.24,313.41a3.94,3.94,0,0,1-1.85-2.34,2.63,2.63,0,0,1,.41-1.35c.38-.86.78-1.71,1.17-2.56.06-.12.26,0,.2.09A26.4,26.4,0,0,0,440.9,310c-.47,1.42.36,2.51,1.47,3.23.12.07,0,.24-.13.17Z"/><path class="cls-36" d="M455.7,319.48c-2.72,1.86-5.91,4.87-9.22,5.68-1.88.46-3-1.58-3.49-3.13-.05-.13.15-.22.2-.08.47,1.39,1.44,3.23,3.21,3a10.94,10.94,0,0,0,3.5-1.79c1.93-1.23,3.79-2.57,5.67-3.87.11-.07.25.1.13.18Z"/><path class="cls-30" d="M443,322a.11.11,0,0,1,0-.21.11.11,0,0,1,0,.21Z"/><path class="cls-30" d="M442.92,321.85a5,5,0,0,1,1.41-2.86c.1-.09.27,0,.17.14a4.71,4.71,0,0,0-1.36,2.75c0,.13-.24.11-.22,0Z"/><path class="cls-30" d="M444.34,319.13a16.77,16.77,0,0,1,3-2.25q1.85-1.28,3.64-2.63c.11-.08.24.09.13.17-1.08.81-2.16,1.61-3.27,2.38a18.65,18.65,0,0,0-3.36,2.47c-.09.1-.26,0-.17-.14Z"/><path class="cls-30" d="M451.1,314.27a5.47,5.47,0,0,1-1.4-2.08.11.11,0,0,1,.2-.08,5.36,5.36,0,0,0,1.33,2c.1.09,0,.27-.13.17Z"/><path class="cls-30" d="M429.46,296.39a11.17,11.17,0,0,1-.1,4.12c-.3.89-1.6,1.5-2.3,2-.11.08-.25-.09-.13-.17.88-.68,2-1.28,2.29-2.42a12.72,12.72,0,0,0,0-3.54c0-.14.2-.17.21,0Z"/><path class="cls-30" d="M426.86,302.61c-1.48-.74-2.92-1.53-4.32-2.39-1.75-1.09-3.36-2.51-5.34-3.13-.14,0-.05-.24.08-.2a16.48,16.48,0,0,1,4.12,2.34,52.52,52.52,0,0,0,5.54,3.18c.13.07,0,.27-.08.2Z"/><path class="cls-30" d="M417.15,297a2.63,2.63,0,0,1-.5.93c-.09.1-.26,0-.17-.14a2.27,2.27,0,0,0,.47-.88c0-.13.24,0,.2.09Z"/><path class="cls-30" d="M416.55,297.9a4.86,4.86,0,0,1,1.15,1.65c.05.13-.15.22-.2.09a4.4,4.4,0,0,0-1.09-1.57c-.1-.09,0-.26.14-.17Z"/><path class="cls-30" d="M429.3,296.55c-3.11-2.17-5.53-4.82-9-6.52a10.18,10.18,0,0,0-2.33-1c-1.58-.31-1.78.19-2.74,1.09l-4.28,4c-.1.09-.23-.08-.13-.18a50.45,50.45,0,0,1,5.13-4.8c1.15-.79,1.79-.47,3.12.09a27,27,0,0,1,5.09,2.84c1.86,1.32,3.41,3,5.28,4.31.11.08,0,.25-.13.17Z"/><path class="cls-30" d="M417.94,299.93c-1.22,4.66-.38,9.83-.16,14.59.24,4.92.5,9.85,1,14.76,0,.13-.2.16-.21,0-.56-5.19-.82-10.39-1.07-15.59-.22-4.52-1-9.38.2-13.82,0-.13.25-.1.21,0Z"/><path class="cls-37" d="M455.43,297.59a3,3,0,0,0-1.13-2.15.11.11,0,0,1,.14-.17,3.17,3.17,0,0,1,1.2,2.29c0,.14-.2.17-.21,0Z"/><path class="cls-30" d="M417,297.07a10.93,10.93,0,0,1-.45-2.53c0-.14.21-.17.22,0a9.92,9.92,0,0,0,.43,2.47c.05.14-.15.22-.2.09Z"/><path class="cls-30" d="M416.56,298.24a9.42,9.42,0,0,0-2.38-.75c-.14,0-.11-.24,0-.21a9.1,9.1,0,0,1,2.44.76c.12.06,0,.26-.09.2Z"/><path class="cls-38" d="M455.69,319.52a2.94,2.94,0,0,0-2.21-2.17c-.13,0-.1-.25,0-.22a3.21,3.21,0,0,1,2.4,2.36c0,.14-.19.16-.22,0Z"/><path class="cls-30" d="M451.25,314.09a3.46,3.46,0,0,1,2.2.21c.12.06,0,.26-.09.2a3.24,3.24,0,0,0-2.08-.19c-.13,0-.16-.19,0-.22Z"/><path class="cls-30" d="M443.58,298.45a.11.11,0,0,1,0-.22.11.11,0,0,1,0,.22Z"/><path class="cls-22" d="M166,267.88,133.37,382.23s-3.05,41.29,18.66,41.29S207.69,329,207.69,329Z"/><path class="cls-22" d="M137.35,373.36l17.14,21.55s19.74,7.23,17.47,12.5c-7.21,16.73-31,17.62-31,17.62l-17.64-52Z"/><polygon class="cls-16" points="237.05 374.29 163.35 398.13 106.88 303.05 186.48 272.67 237.05 374.29"/><path class="cls-25" d="M157.12,353.87l6.59-3.13s2.41-3-.12-3.76-7.72.25-7.72.25l-10.16,2.41-10.09,4.5,5.3-6.23,7.92-4.84,9.37-1.14s2.36-4.67-.18-5.63-12.51.81-12.51.81l-10.42,5.2-3.65,5.48,0-7.93,5.1-8.17,6.54-4.11s3.85-4,1-5.14-12.76,3.29-12.76,3.29l-7.39,13,.44,14s-.74,7.72-1.74,19c1,3.72,2.55,7.26,5.45,9.86a15.55,15.55,0,0,0,4.78,2.82c2.19-.1,5.2-.83,5.92-2.78l-.83-6.87,11.82-9.35,9.5-3.44s1.37-2.76-.11-3.55-9,.29-9,.29L139.38,363l8.05-5.27Z"/></g><path class="cls-25" d="M285.47,171.1s5.46-9,9.26-2.75-5,21.35-11.39,20.32S285.47,171.1,285.47,171.1Z"/><path class="cls-25" d="M221.59,164.41s-2.8-7.15-7.06-5-3.81,17.69-.85,21.05,9.47,6.27,9.47,6.27Z"/><path class="cls-25" d="M289.16,147.11l-2.93,50a15.8,15.8,0,0,1-2.72,8c-5,7.35-17,22.4-30.41,20.58-14.24-1.95-24.66-13.77-29.3-20.09a15.65,15.65,0,0,1-3-8.12l-3.78-50.05,14.25-21.47h31.81l17.7,5.38Z"/><path class="cls-39" d="M287.6,126.22c.17,2.51,8.72,10.73,9.58,17S288,171.76,288,171.76l-3.63-34S261.26,140,254,141.16s-9.33-7.33-14.7-9S227.38,139,227.38,139s-.46,8.43.19,11.75-9.67,17.89-9.67,17.89-5.26-21.26-5.63-23.54,10.55-14.52,10.88-15.81l22-11.81Z"/><path class="cls-39" d="M297.18,143.19s-10.26-38.71-26.1-38.47-16.16,4.3-16.16,4.3-3.4-6.38-16.78-4S221.32,121,221.32,121l4.33-3.31s-11.66,11.4-11.38,16.78l4.45-4.47s-7.67,15.44-7.94,24.13c0,0,2-14.37,11-17.92s16.66-12.24,26.32-10,21-1.47,28.92,5.64,7.82,11.75,7.82,11.75Z"/><path d="M290.49,165.31c0-1,1.72-2.47-2.87-3s-6.82-1.13-11.73-1.3-12.7-.38-14.06,1-2.35,1.76-5.09,1.67-4.31-.58-5.57-2-9-1.79-14-2-7.18.29-11.8.49-3,1.82-3.07,2.8.54,1,1.64,2.22,1.1,4.69,1.1,4.69c.84,9.91,5.1,12.47,12.14,12.71s8.66-1.37,10.74-3,3.84-7.66,4.57-9.8,3.77-2.24,3.77-2.24,3,.31,3.61,2.49,1.93,8.32,3.88,10.1,3.47,3.51,10.51,3.75,11.46-2,13-11.84c0,0,.24-3.46,1.42-4.61S290.46,166.29,290.49,165.31Zm-40.56,7.75c-1.06,4.29-4.08,9-12.48,8.43s-9-3.79-9.72-5.57a43.15,43.15,0,0,1-1.46-10.62c0-2.78,1.94-3.24,1.94-3.24,4.62-1.48,15-.67,19.14.86S251,168.76,249.93,173.06Zm36.26-5.69a43.68,43.68,0,0,1-2.19,10.5c-.83,1.72-1.66,4.92-10.08,4.87s-11.11-4.91-11.88-9.27-1-8.69,3.28-9.93,14.64-1.33,19.15.46C284.47,164,286.32,164.59,286.19,167.37Z"/></svg>