<?xml version="1.0" encoding="UTF-8" standalone="no"?>
<svg
   xmlns:dc="http://purl.org/dc/elements/1.1/"
   xmlns:cc="http://creativecommons.org/ns#"
   xmlns:rdf="http://www.w3.org/1999/02/22-rdf-syntax-ns#"
   xmlns:svg="http://www.w3.org/2000/svg"
   xmlns="http://www.w3.org/2000/svg"
   xmlns:xlink="http://www.w3.org/1999/xlink"
   xmlns:sodipodi="http://sodipodi.sourceforge.net/DTD/sodipodi-0.dtd"
   xmlns:inkscape="http://www.inkscape.org/namespaces/inkscape"
   id="Layer_1"
   data-name="Layer 1"
   viewBox="0 0 622.02953 455.04178"
   version="1.1"
   sodipodi:docname="chatting.svg"
   width="622.02954"
   height="455.04181"
   inkscape:version="0.92.3 (2405546, 2018-03-11)">
  <metadata
     id="metadata222">
    <rdf:RDF>
      <cc:Work
         rdf:about="">
        <dc:format>image/svg+xml</dc:format>
        <dc:type
           rdf:resource="http://purl.org/dc/dcmitype/StillImage" />
        <dc:title>1</dc:title>
      </cc:Work>
    </rdf:RDF>
  </metadata>
  <sodipodi:namedview
     pagecolor="#ffffff"
     bordercolor="#666666"
     borderopacity="1"
     objecttolerance="10"
     gridtolerance="10"
     guidetolerance="10"
     inkscape:pageopacity="0"
     inkscape:pageshadow="2"
     inkscape:window-width="3840"
     inkscape:window-height="1903"
     id="namedview220"
     showgrid="false"
     fit-margin-top="0"
     fit-margin-left="0"
     fit-margin-right="0"
     fit-margin-bottom="-1"
     inkscape:zoom="2.2426716"
     inkscape:cx="252.67062"
     inkscape:cy="192.22777"
     inkscape:window-x="0"
     inkscape:window-y="55"
     inkscape:window-maximized="1"
     inkscape:current-layer="Layer_1" />
  <defs
     id="defs27">
    <style
       id="style2">.cls-1{fill:none;}.cls-2{fill:#afcce0;}.cls-3{clip-path:url(#clip-path);}.cls-4{fill:#72473d;}.cls-5{fill:#d9d9db;}.cls-6{fill:#eb9756;}.cls-7{fill:#292728;}.cls-8{fill:#c5c2e1;}.cls-9{fill:#9491a8;}.cls-10{fill:#663d35;}.cls-11{fill:#e1e1e5;}.cls-12{fill:#f1f1f1;}.cls-13{fill:#774e2b;}.cls-14{fill:#e4e5e5;}.cls-15{opacity:0.1;}.cls-16{fill:#f2f2f2;}.cls-17{fill:#82544a;}.cls-18{fill:#111;}.cls-19{fill:#eaeaea;}.cls-20{fill:#f3f0eb;}.cls-21{fill:#474341;}.cls-22{fill:#86add3;}.cls-23{fill:#678aa8;}.cls-24{fill:#5b84a5;}.cls-25{fill:#f7c9a4;}.cls-26{fill:#eab48f;}.cls-27{fill:#9ac1e2;}.cls-28{fill:url(#linear-gradient);}.cls-29{fill:url(#linear-gradient-2);}.cls-30{fill:#491f07;}.cls-31{fill:url(#linear-gradient-3);}.cls-32{fill:url(#linear-gradient-4);}.cls-33{fill:url(#linear-gradient-5);}.cls-34{fill:url(#linear-gradient-6);}.cls-35{fill:url(#linear-gradient-7);}.cls-36{fill:url(#linear-gradient-8);}.cls-37{fill:url(#linear-gradient-9);}.cls-38{fill:url(#linear-gradient-10);}.cls-39{fill:#111421;}</style>
    <clipPath
       id="clip-path">
      <rect
         class="cls-1"
         x="71.839996"
         y="-73.099998"
         width="684.33002"
         height="633.22998"
         transform="rotate(-180,414,243.515)"
         id="rect4"
         style="fill:none" />
    </clipPath>
    <linearGradient
       id="linear-gradient"
       x1="411.22"
       y1="352.42999"
       x2="513.02002"
       y2="352.42999"
       gradientTransform="matrix(-1,0,0,1,828,0)"
       gradientUnits="userSpaceOnUse">
      <stop
         offset="0"
         stop-color="#eec9c8"
         id="stop7" />
      <stop
         offset="0.34"
         stop-color="#edc5c4"
         id="stop9" />
      <stop
         offset="0.64"
         stop-color="#ecbbb9"
         id="stop11" />
      <stop
         offset="0.94"
         stop-color="#e9a9a7"
         id="stop13" />
      <stop
         offset="1"
         stop-color="#e8a4a2"
         id="stop15" />
    </linearGradient>
    <linearGradient
       id="linear-gradient-2"
       x1="374.59"
       y1="292.35999"
       x2="376.17001"
       y2="292.35999"
       xlink:href="#linear-gradient" />
    <linearGradient
       id="linear-gradient-3"
       x1="371.60001"
       y1="293.76001"
       x2="372.47"
       y2="293.76001"
       xlink:href="#linear-gradient" />
    <linearGradient
       id="linear-gradient-4"
       x1="372.26001"
       y1="299.63"
       x2="387.60001"
       y2="299.63"
       xlink:href="#linear-gradient" />
    <linearGradient
       id="linear-gradient-5"
       x1="370.07999"
       y1="299.29001"
       x2="372.47"
       y2="299.29001"
       xlink:href="#linear-gradient" />
    <linearGradient
       id="linear-gradient-6"
       x1="371.54001"
       y1="306.31"
       x2="373.10999"
       y2="306.31"
       xlink:href="#linear-gradient" />
    <linearGradient
       id="linear-gradient-7"
       x1="371.5"
       y1="311.29001"
       x2="385.88"
       y2="311.29001"
       xlink:href="#linear-gradient" />
    <linearGradient
       id="linear-gradient-8"
       x1="372.26001"
       y1="322.25"
       x2="385.01999"
       y2="322.25"
       xlink:href="#linear-gradient" />
    <linearGradient
       id="linear-gradient-9"
       x1="372.35001"
       y1="296.45999"
       x2="373.73999"
       y2="296.45999"
       xlink:href="#linear-gradient" />
    <linearGradient
       id="linear-gradient-10"
       x1="372.09"
       y1="318.37"
       x2="374.60999"
       y2="318.37"
       xlink:href="#linear-gradient" />
    <linearGradient
       inkscape:collect="always"
       xlink:href="#linear-gradient"
       id="linearGradient1029"
       gradientUnits="userSpaceOnUse"
       gradientTransform="matrix(-1,0,0,1,828,0)"
       x1="411.22"
       y1="352.42999"
       x2="513.02002"
       y2="352.42999" />
  </defs>
  <title
     id="title29">1</title>
  <path
     class="cls-2"
     d="M 596.12,456.0418 H 60.61 c 0,0 -81.61,-131.07 22.56,-221 104.17,-89.93 178.56,204.91 278.67,126 129.93,-102.32 293.6,-166.48 234.28,95 z"
     id="path31"
     inkscape:connector-curvature="0"
     style="fill:#afcce0" />
  <g
     class="cls-3"
     clip-path="url(#clip-path)"
     id="g205"
     transform="translate(-106.88,-104.4882)">
    <path
       class="cls-4"
       d="m 520.75,265.9 c 0,0 -11.75,167.66 -8.67,203.58 L 527.7,467 c 0,0 2.84,-126.79 10.46,-143.44 z"
       id="path33"
       inkscape:connector-curvature="0"
       style="fill:#72473d" />
    <path
       class="cls-5"
       d="m 520.75,265.9 c 0,0 -13.51,157.8 -10.41,193.72 l 18.14,0.65 20,-103.19 z"
       id="path35"
       inkscape:connector-curvature="0"
       style="fill:#d9d9db" />
    <path
       class="cls-6"
       d="m 512.08,469.48 2.79,32.58 13.2,17.1 7.39,2.85 c 0,0 4.51,-3.62 0,-5.63 C 530.95,514.37 523.18,504 523.18,504 l 9.53,8.37 7.24,3.23 c 0,0 0.9,-6.57 -4,-9.13 a 17.05,17.05 0 0 1 -7,-6.79 c 0,0 7.43,-23.84 -1.28,-32.7 z"
       id="path37"
       inkscape:connector-curvature="0"
       style="fill:#eb9756" />
    <path
       class="cls-4"
       d="m 513.09,481.28 1.78,20.78 4.25,13.2 c 0,0 6.93,0.66 5.43,-7 a 65.25,65.25 0 0 1 -0.84,-15.57 c 0,0 7.28,-5.31 7.06,-7.24 -0.22,-1.93 -3,-19.06 -3,-19.06 l -16,-3.69 z"
       id="path39"
       inkscape:connector-curvature="0"
       style="fill:#72473d" />
    <path
       class="cls-7"
       d="m 646,430.56 c -6.89,93.33 28,372 32.16,383.33 5.09,14 64.52,31.06 47.79,36 -28.74,5.84 -79.43,-8.37 -79.43,-8.37 0,0 -48.84,-297.52 -64.58,-322.47 -5.46,-8.64 -18.64,322.64 -18.64,322.64 0,0 -70.54,18.66 -83.39,-0.28 1.43,-3.55 36.8,-8.6 46.16,-22.8 7.07,-10.73 -0.26,-223 -4.27,-326.18 l 13.4,-55.57 z"
       id="path41"
       inkscape:connector-curvature="0"
       style="fill:#292728" />
    <path
       class="cls-8"
       d="m 543,356.84 1.95,9.76 -3.42,3.91 v 13.66 l -6.7,-1.76 c 0,0 -7.7,-29.13 -7.7,-49.85 0,-20.72 1.1,-38.43 1.1,-38.43 l 18.31,44.64 1.34,9.29 z"
       id="path43"
       inkscape:connector-curvature="0"
       style="fill:#c5c2e1" />
    <polygon
       class="cls-9"
       points="578.57,248.5 593.21,239.47 611.76,236.42 635.02,240.33 629.82,226.05 610.9,224.09 588.21,227.76 577.11,234.34 "
       id="polygon45"
       style="fill:#9491a8" />
    <path
       class="cls-4"
       d="m 623,207.5 c 0,0 0,34.17 6.84,48.32 6.84,14.15 -44.9,29.77 -44.9,29.77 0,0 -22,-14.15 -12.69,-27.33 9.31,-13.18 11.22,-39.53 11.22,-39.53 z"
       id="path47"
       inkscape:connector-curvature="0"
       style="fill:#72473d" />
    <path
       class="cls-10"
       d="m 597.91,249.88 c -5,4.44 -12.14,10.41 -19,11.43 -2.91,0.43 -4.66,-1.6 -5.78,-4.45 8.48,-13.55 10.3,-38.13 10.3,-38.13 L 623,207.5 c 0,0 0,2.42 0.13,6.22 -6.8,13.14 -14.13,26.28 -25.22,36.16 z"
       id="path49"
       inkscape:connector-curvature="0"
       style="fill:#663d35" />
    <path
       class="cls-11"
       d="m 521,266.55 c 2.44,-2.25 53.2,-25.86 53.2,-25.86 l 8.8,31.72 48.32,-34.65 c 0,0 49.23,29.71 52.22,32.7 1.9,1.9 -37.54,160.1 -37.54,160.1 l -84.24,12.66 -25.63,-4.67 c 0,0 -17.59,-169.74 -15.13,-172 z"
       id="path51"
       inkscape:connector-curvature="0"
       style="fill:#e1e1e5" />
    <path
       class="cls-9"
       d="m 593.7,248.5 -1.16,17.32 c 17.69,-1.32 42.28,-25.92 42.28,-25.92 l -5,-13.85 z"
       id="path53"
       inkscape:connector-curvature="0"
       style="fill:#9491a8" />
    <path
       class="cls-12"
       d="m 582.9,275.64 a 2.38,2.38 0 1 1 -2.38,2.38 2.38,2.38 0 0 1 2.38,-2.38 z"
       id="path55"
       inkscape:connector-curvature="0"
       style="fill:#f1f1f1" />
    <path
       class="cls-12"
       d="m 582.66,323.56 a 2.38,2.38 0 1 1 -2.38,2.37 2.38,2.38 0 0 1 2.38,-2.37 z"
       id="path57"
       inkscape:connector-curvature="0"
       style="fill:#f1f1f1" />
    <path
       class="cls-12"
       d="m 582.41,371.46 a 2.38,2.38 0 1 1 -2.37,2.38 2.39,2.39 0 0 1 2.37,-2.38 z"
       id="path59"
       inkscape:connector-curvature="0"
       style="fill:#f1f1f1" />
    <path
       class="cls-12"
       d="m 575.08,419.37 a 2.38,2.38 0 1 1 -2.38,2.38 2.39,2.39 0 0 1 2.38,-2.38 z"
       id="path61"
       inkscape:connector-curvature="0"
       style="fill:#f1f1f1" />
    <path
       class="cls-13"
       d="m 567.45,448.23 c 18.86,0 78.28,-8 78.28,-8 l 0.48,-9.93 c 0,0 -64.38,7.7 -78.76,7.7 -17.88,0 -32.12,-1.11 -32.25,-1.12 l -0.83,10.23 c 0.56,0.02 14.79,1.12 33.08,1.12 z"
       id="path63"
       inkscape:connector-curvature="0"
       style="fill:#774e2b" />
    <polygon
       class="cls-7"
       points="605.79,445.61 610.2,445.24 609.91,434.29 605.48,434.67 "
       id="polygon65"
       style="fill:#292728" />
    <polygon
       class="cls-7"
       points="547.8,448.32 551.94,448.48 552.26,437.49 547.8,437.43 "
       id="polygon67"
       style="fill:#292728" />
    <polygon
       class="cls-7"
       points="630.23,442.58 635,442.11 634.67,431.37 630.07,431.96 "
       id="polygon69"
       style="fill:#292728" />
    <path
       class="cls-14"
       d="m 565.57,449 a 6.36,6.36 0 0 1 -2.1,-4.45 l -0.06,-1.08 a 6.46,6.46 0 0 1 6.12,-6.73 l 7.49,-0.36 a 6.46,6.46 0 0 1 6.73,6.13 l 0.06,1.08 a 6.46,6.46 0 0 1 -6.13,6.73 l -7.48,0.35 h -0.31 A 6.37,6.37 0 0 1 565.57,449 Z m 11.59,-9.69 -7.48,0.36 v 0 a 3.5,3.5 0 0 0 -3.34,3.66 v 1.08 a 3.52,3.52 0 0 0 3.67,3.34 l 7.49,-0.36 a 3.47,3.47 0 0 0 2.42,-1.14 3.51,3.51 0 0 0 0.91,-2.52 v -1.08 a 3.51,3.51 0 0 0 -3.5,-3.34 z"
       id="path71"
       inkscape:connector-curvature="0"
       style="fill:#e4e5e5" />
    <g
       class="cls-15"
       id="g75"
       style="opacity:0.1">
      <polygon
         points="583.2,520.34 561.23,505.45 563.18,510.33 575.87,519.36 556.84,518.63 557.57,520.34 575.14,524.24 564.89,525.95 571.97,528.63 576.12,527.9 556.84,560.53 563.9,554.5 "
         id="polygon73" />
    </g>
    <path
       class="cls-16"
       d="M 632.52,225.43 593.7,248.5 c 0,0 3.38,14.07 14.64,18.05 l 29.18,-27.26 z"
       id="path77"
       inkscape:connector-curvature="0"
       style="fill:#f2f2f2" />
    <path
       class="cls-9"
       d="m 578.26,245.44 c 0,0 -4.38,16.33 -17.74,19.65 l 8.78,-23.42 7.81,-7.32 z"
       id="path79"
       inkscape:connector-curvature="0"
       style="fill:#9491a8" />
    <path
       class="cls-16"
       d="m 569.3,241.67 10.49,19.27 c 0,0 -2.79,-8.94 -3.29,-14.4 a 59.69,59.69 0 0 1 0.61,-12.19 z"
       id="path81"
       inkscape:connector-curvature="0"
       style="fill:#f2f2f2" />
    <path
       class="cls-17"
       d="m 571.46,138.17 c -1.3,1.85 -4.58,24.47 -4.5,26.3 0.08,1.83 2.23,5.31 2,8.57 -0.23,3.26 -2.61,8 -2.32,13.33 0.87,11.08 11.35,32.48 12.73,36.27 0.92,2.54 9.12,4.18 13.5,3.73 7.32,-0.73 29.08,-15.05 31.71,-19.46 2.63,-4.41 3.84,-15.3 3.84,-15.3 0,0 5.64,-22.2 6,-26.56 0.36,-4.36 1.46,-30.36 0.16,-32.94 -1.3,-2.58 -12.24,-14.77 -37.37,-13.91 -25.13,0.86 -24.44,18.12 -25.75,19.97 z"
       id="path83"
       inkscape:connector-curvature="0"
       style="fill:#82544a" />
    <path
       class="cls-18"
       d="m 614,113 c 19.31,3.59 22.51,9.12 23.2,15.09 a 36.59,36.59 0 0 0 0.94,5.25 59.27,59.27 0 0 1 1.06,7.61 c 0.65,7.59 0.68,15.29 -0.9,22.71 -1.58,7.42 -7.85,19.83 -7.85,19.83 0,0 -3.3,-20 -3.85,-21.24 -1.13,-2.53 -6.92,-4.27 -7,-4.57 -0.08,-0.3 2.45,-8.74 0.84,-12.16 -1.17,-2.48 -3.85,-4 -6.58,-4.6 -2.73,-0.6 -27.12,1.12 -28.91,1 -4.06,-0.34 -8.72,-2.56 -14.68,-1.34 0,0 -4,-3.71 -4.55,-6.49 0.03,-0.03 19.38,-24.76 48.28,-21.09 z"
       id="path85"
       inkscape:connector-curvature="0"
       style="fill:#111111" />
    <path
       class="cls-17"
       d="m 625.73,176.85 c -2.22,6.84 1.14,15.82 4.73,15.57 2.09,-0.14 2.73,-2.32 4.78,-4.38 a 15.1,15.1 0 0 0 4.18,-6.75 c 2.22,-6.84 1,-13.38 -2.82,-14.61 -3.82,-1.23 -8.6,3.32 -10.87,10.17 z"
       id="path87"
       inkscape:connector-curvature="0"
       style="fill:#82544a" />
    <path
       class="cls-10"
       d="m 637.14,171.28 a 4,4 0 0 0 -1.58,-1 4.84,4.84 0 0 0 -2,-0.28 4.68,4.68 0 0 0 -2.09,0.67 4.14,4.14 0 0 0 -2,3.37 4,4 0 0 0 0.44,1.91 6.48,6.48 0 0 0 1.06,1.43 l 0.25,0.26 a 8,8 0 0 1 0.65,0.74 2,2 0 0 1 0.4,0.88 2.45,2.45 0 0 1 -0.55,2 l -0.11,0.12 -0.07,0.08 -0.09,0.07 -0.12,0.11 -0.09,0.07 -0.17,0.11 -0.11,0.06 -0.23,0.14 a 1.9,1.9 0 0 0 -0.74,0.79 1.93,1.93 0 0 0 -0.15,0.91 4.52,4.52 0 0 0 0.09,0.67 2.38,2.38 0 0 1 0.07,0.69 1.37,1.37 0 0 1 -0.14,0.57 0.67,0.67 0 0 1 -0.43,0.33 0.17,0.17 0 0 0 -0.14,0.18 0.18,0.18 0 0 0 0.19,0.15 v 0 a 1.24,1.24 0 0 0 0.47,-0.1 1.38,1.38 0 0 0 0.38,-0.28 1.92,1.92 0 0 0 0.42,-0.73 2.72,2.72 0 0 0 0.12,-0.78 c 0,-0.22 0,-0.45 0.06,-0.65 a 1.28,1.28 0 0 1 0.17,-0.45 0.66,0.66 0 0 1 0.33,-0.22 h 0.13 c 0.18,-0.07 0.4,-0.15 0.62,-0.26 l 0.3,-0.18 0.22,-0.14 0.26,-0.2 a 4.33,4.33 0 0 0 1.08,-1.43 4,4 0 0 0 0.35,-1.73 3.79,3.79 0 0 0 -0.54,-1.76 9.62,9.62 0 0 0 -0.69,-1 l -0.22,-0.28 a 3.14,3.14 0 0 1 -0.52,-1 1.79,1.79 0 0 1 0,-0.83 3.11,3.11 0 0 1 0.88,-1.5 3.54,3.54 0 0 1 4.31,0.18 0.18,0.18 0 0 0 0.2,0 0.15,0.15 0 0 0 0.1,-0.16 2.63,2.63 0 0 0 -0.77,-1.53 z"
       id="path89"
       inkscape:connector-curvature="0"
       style="fill:#663d35" />
    <path
       class="cls-19"
       d="m 658,284.15 -25.66,84.22 -70.6,-21.8 -2.1,17.67 c -1.55,3.33 0.47,-0.75 0,0 10.18,7.22 20.34,15 36.77,21.39 24.68,9.64 55.49,14.73 59.71,14.58 8.8,-0.3 33.68,-71.9 33.68,-71.9 z"
       id="path91"
       inkscape:connector-curvature="0"
       style="fill:#eaeaea" />
    <path
       class="cls-19"
       d="m 689.81,328.31 c 0,0 18.94,-51.12 -6.31,-57.85 C 669,266.59 658,284.15 658,284.15"
       id="path93"
       inkscape:connector-curvature="0"
       style="fill:#eaeaea" />
    <polygon
       class="cls-4"
       points="561.75,346.57 546,341.22 544.58,360.01 559.65,364.24 "
       id="polygon95"
       style="fill:#72473d" />
    <path
       id="_Path_"
       data-name="&lt;Path&gt;"
       class="cls-4"
       d="m 517.33,328.12 c 0,0 -2.45,-3.42 -4.65,0 -2.2,3.42 5.79,10.28 5.79,10.28 z"
       inkscape:connector-curvature="0"
       style="fill:#72473d" />
    <g
       id="_Group_"
       data-name="&lt;Group&gt;">
      <path
         id="_Path_2"
         data-name="&lt;Path&gt;"
         class="cls-20"
         d="m 515.38,310.39 4.82,44.33 25.19,-0.69 6.55,-42.78 a 121,121 0 0 0 -20,-1.72 123.3,123.3 0 0 0 -16.56,0.86 z"
         inkscape:connector-curvature="0"
         style="fill:#f3f0eb" />
      <path
         id="_Path_3"
         data-name="&lt;Path&gt;"
         class="cls-21"
         d="M 551.94,311.25 V 308 l -2.41,-1.55 -2.25,-2.59 h -28.63 l -1,2.25 -2.23,0.86 v 3.45 a 156.19,156.19 0 0 1 18.28,-0.86 c 11.69,-0.03 18.24,1.69 18.24,1.69 z"
         inkscape:connector-curvature="0"
         style="fill:#474341" />
    </g>
    <g
       id="_Group_2"
       data-name="&lt;Group&gt;">
      <path
         id="_Path_4"
         data-name="&lt;Path&gt;"
         class="cls-20"
         d="m 414.18,281.22 5.31,48.86 27.76,-0.76 7.23,-47.15 a 133.25,133.25 0 0 0 -22.06,-1.9 135.58,135.58 0 0 0 -18.24,0.95 z"
         inkscape:connector-curvature="0"
         style="fill:#f3f0eb" />
      <path
         id="_Path_5"
         data-name="&lt;Path&gt;"
         class="cls-21"
         d="m 454.48,282.17 v -3.61 l -2.66,-1.72 -2.47,-2.84 h -31.57 l -1.14,2.47 -2.46,1 v 3.81 a 171.78,171.78 0 0 1 20.15,-1 c 12.92,-0.01 20.15,1.89 20.15,1.89 z"
         inkscape:connector-curvature="0"
         style="fill:#474341" />
    </g>
    <path
       id="_Path_6"
       data-name="&lt;Path&gt;"
       class="cls-4"
       d="m 545.41,361.66 c -5.07,-0.67 -10.46,-1.88 -10.46,-1.88 0,0 -10.28,-1.79 -11.1,-5.06 l 19.91,-0.65 c 0,0 2.29,-1.47 -2.28,-3.59 -4.57,-2.12 -14.69,-2.94 -15.5,-5.22 -0.81,-2.28 0.16,-3.59 2.61,-4.25 0,0 -4.08,-2.28 -3.43,-4.73 0.65,-2.45 6.37,-3.42 14.36,-2.45 l 8,1 c 0,0 2.77,-2.28 -1.31,-2.61 -4.08,-0.33 -12.07,-0.65 -11.75,-3.59 0.32,-2.94 3.76,-3.42 9.79,-4.08 6.03,-0.66 10.77,1.31 10.45,5.55 a 34.44,34.44 0 0 0 0,6.69 c 0,0 0.31,4.24 1.46,5.55 1.15,1.31 -0.17,5.06 -1.15,6 0,0 1.64,3.59 0.66,5.55 l -1,2 c 0,0 0.65,4.07 -0.33,6.36"
       inkscape:connector-curvature="0"
       style="fill:#72473d" />
    <g
       id="_Group_3"
       data-name="&lt;Group&gt;">
      <path
         id="_Path_7"
         data-name="&lt;Path&gt;"
         class="cls-4"
         d="m 530.69,340.12 a 128.91,128.91 0 0 1 21.66,3.47 1.4710031,1.4710031 0 0 1 -0.73,2.85 128.63,128.63 0 0 0 -21.09,-3.39 1.46,1.46 0 0 1 -1.39,-1.54 1.49,1.49 0 0 1 1.55,-1.39 z"
         inkscape:connector-curvature="0"
         style="fill:#72473d" />
    </g>
    <path
       class="cls-7"
       d="m 314.06,435.57 c 0,0 5.68,104.54 -15.67,214.78 -1.34,6.88 -9,145.68 -4.45,171.18 H 254 c 0,0 -17.31,-106.94 -2,-174.39 l 5.89,-85.79 6.7,-42.53 c 0,0 -23.92,120.91 -33.24,141.48 -9.32,20.57 -19,162.75 -19,162.75 l -38.25,0.12 c 0,0 -10,-92.95 13.31,-184.26 0,0 12.53,-168.94 19.18,-201 z"
       id="path107"
       inkscape:connector-curvature="0"
       style="fill:#292728" />
    <path
       class="cls-22"
       d="m 329.75,263.94 c -1.06,-2.92 -17.64,61.16 -17.64,61.16 0,0 0,58.37 2.85,63.47 2.59,2.35 29.51,-0.83 31.21,-7.17 1.7,-6.34 -12.31,-106.23 -16.42,-117.46 z"
       id="path109"
       inkscape:connector-curvature="0"
       style="fill:#86add3" />
    <path
       class="cls-23"
       d="m 307.63,354.91 -2,9.83 3.44,3.94 v 13.76 l 6.76,-1.77 c 0,0 7.75,-29.35 7.75,-50.22 0,-20.87 -1.11,-38.73 -1.11,-38.73 l -18.44,45 -1.35,9.36 z"
       id="path111"
       inkscape:connector-curvature="0"
       style="fill:#678aa8" />
    <polygon
       class="cls-24"
       points="271.73,245.75 256.98,236.65 238.29,233.58 214.86,237.52 220.1,223.13 239.16,221.16 262.02,224.85 273.21,231.49 "
       id="polygon113"
       style="fill:#5b84a5" />
    <path
       class="cls-25"
       d="m 227,204.45 c 0,0 0,34.42 -6.89,48.67 -6.89,14.25 45.24,30 45.24,30 0,0 22.13,-14.26 12.78,-27.54 -9.35,-13.28 -11.31,-39.82 -11.31,-39.82 z"
       id="path115"
       inkscape:connector-curvature="0"
       style="fill:#f7c9a4" />
    <path
       class="cls-26"
       d="m 252.24,247.14 c 5,4.48 12.24,10.49 19.13,11.51 2.93,0.44 4.7,-1.6 5.82,-4.48 -8.54,-13.65 -10.38,-38.41 -10.38,-38.41 L 227,204.45 c 0,0 0,2.43 -0.13,6.26 6.82,13.29 14.18,26.43 25.37,36.43 z"
       id="path117"
       inkscape:connector-curvature="0"
       style="fill:#eab48f" />
    <path
       class="cls-22"
       d="m 329.75,263.94 c -2.45,-2.27 -53.59,-26.06 -53.59,-26.06 l -8.85,32 -48.68,-34.91 c 0,0 -49.63,29.89 -52.63,32.91 -1.92,1.91 13,42.48 24,71.69 6.3,16.64 5.71,12.36 11.37,29.6 5.66,17.24 4.12,77 4.12,77 l 44.72,6 a 207,207 0 0 0 54.2,0.11 l 10.59,-1.35 1.76,-44.88 6.13,-107.2 c 0,0 9.32,-32.63 6.86,-34.91 z"
       id="path119"
       inkscape:connector-curvature="0"
       style="fill:#86add3" />
    <path
       class="cls-24"
       d="m 256.49,245.75 1.17,17.45 c -17.82,-1.33 -42.6,-26.11 -42.6,-26.11 l 5,-14 z"
       id="path121"
       inkscape:connector-curvature="0"
       style="fill:#5b84a5" />
    <g
       class="cls-15"
       id="g125"
       style="opacity:0.1">
      <polygon
         points="267.08,519.63 289.2,504.63 287.24,509.55 274.45,518.65 293.63,517.91 292.89,519.63 275.19,523.57 285.51,525.29 278.38,527.99 274.2,527.25 293.63,560.13 286.52,554.05 "
         id="polygon123" />
    </g>
    <path
       class="cls-27"
       d="m 220.1,223.13 36.39,22.62 c 0,0 -3.41,14.17 -14.75,18.19 l -26.68,-26.85 z"
       id="path127"
       inkscape:connector-curvature="0"
       style="fill:#9ac1e2" />
    <path
       class="cls-24"
       d="m 272.05,242.67 c 0,0 4.41,16.45 17.87,19.8 l -8.85,-23.6 -7.86,-7.38 z"
       id="path129"
       inkscape:connector-curvature="0"
       style="fill:#5b84a5" />
    <path
       class="cls-27"
       d="m 281.07,238.87 -10.57,19.42 c 0,0 2.85,-9 3.32,-14.51 a 59.83,59.83 0 0 0 -0.61,-12.29 z"
       id="path131"
       inkscape:connector-curvature="0"
       style="fill:#9ac1e2" />
    <path
       class="cls-28"
       d="m 415.4,300.48 -15.68,16.43 c 0,0 -38.37,21.52 -59.15,38 C 319.79,371.39 315,382.2 315,382.2 c 0,0 4.14,15.11 9,20.43 4.86,5.32 18.71,-3.22 18.71,-3.22 l 63.29,-68.85 8.23,-4.72 c 4.97,-14.43 1.17,-25.36 1.17,-25.36 z"
       id="path133"
       inkscape:connector-curvature="0"
       style="fill:url(#linearGradient1029)" />
    <path
       class="cls-22"
       d="m 394.62,319.83 c -11.13,6.43 -37.9,22.28 -54.05,35.1 -20.77,16.51 -28.46,25.23 -28.46,25.23 0,0 -0.29,20.57 4.63,25.89 4.92,5.32 26,-6.64 26,-6.64 l 61.47,-61.36 c -2.63,-4.89 -7.14,-13.24 -9.59,-18.22 z"
       id="path135"
       inkscape:connector-curvature="0"
       style="fill:#86add3" />
    <path
       class="cls-25"
       d="m 429.32,296.41 a 7.69,7.69 0 0 1 0.1,2.94 3.93,3.93 0 0 1 -0.57,1.6 3.15,3.15 0 0 1 -1.26,1.09 1.74,1.74 0 0 1 -0.8,0.24 c -0.48,0 -0.76,-0.24 -1.42,-0.63 -0.66,-0.39 -0.53,-0.24 -1.35,-0.69 a 30.23,30.23 0 0 1 -2.81,-1.79 36.19,36.19 0 0 0 -3.81,-2.32 l -1,1.19 a 5.37,5.37 0 0 1 0.67,0.72 5.5,5.5 0 0 1 0.63,1.06 c -0.13,0.63 -0.32,1.63 -0.45,2.87 -0.39,3.51 0,5.68 0.27,10 0.26,3.61 0.06,2.74 0.35,7.37 0.23,3.72 0.52,6.81 0.75,9 a 4.75,4.75 0 0 1 -2.38,1.14 11.62,11.62 0 0 1 -2.77,-0.16 l -1.93,-0.18 c -1.38,1.78 -2.88,3.61 -4.49,5.47 -1,1.1 -1.92,2.16 -2.86,3.18 -1.65,-0.73 -2.18,-4.72 -3.58,-7.19 -1.14,-2 -5.86,-9.57 -6,-11.53 -0.21,-2.81 1.29,5 0,0 1,-0.49 3.33,-4.71 4.89,-5.9 a 32.8,32.8 0 0 0 4.24,-4 c 1.38,-1.46 3.09,-3.3 5,-5.46 0.44,-1.63 0.85,-3.4 1.19,-5.29 0.34,-1.89 0.57,-3.47 0.75,-5.06 0.38,-0.29 1,-0.76 1.64,-1.38 1,-0.9 1.3,-1.36 2.17,-2.16 1.11,-1 1.37,-1.44 2,-1.61 a 2.83,2.83 0 0 1 1.37,0 15.28,15.28 0 0 1 5.39,2.69 c 0.95,0.7 0.95,0.77 3.29,2.64 1.21,0.93 2.15,1.66 2.78,2.15 z"
       id="path137"
       inkscape:connector-curvature="0"
       style="fill:#f7c9a4" />
    <path
       class="cls-25"
       d="m 455,303.65 c 0.12,0.38 0.31,1 0.58,1.64 a 12.6,12.6 0 0 1 0.6,1.55 2.91,2.91 0 0 1 0,2.19 c -0.28,0.47 -0.75,0.58 -1.5,0.85 -1.43,0.5 -0.09,0.21 -3.08,1.37 a 28.38,28.38 0 0 1 -5.94,1.93 15.48,15.48 0 0 1 -3.29,0.12 2.78,2.78 0 0 1 -1.74,-1.66 2.42,2.42 0 0 1 0.1,-1.28 12.8,12.8 0 0 1 1.37,-3.16 2.21,2.21 0 0 1 -1.12,-0.53 2.24,2.24 0 0 1 -0.64,-1.73 3.05,3.05 0 0 1 0.77,-1.61 6.85,6.85 0 0 1 1.14,-1.24 2.78,2.78 0 0 1 -1.38,-1.12 2.87,2.87 0 0 1 -0.31,-2.17 2.11,2.11 0 0 1 0.47,-0.88 2.63,2.63 0 0 1 1.63,-0.73 26.3,26.3 0 0 0 3.2,-1 30.07,30.07 0 0 0 3.5,-1.18 20.89,20.89 0 0 0 2.43,-1.21 15,15 0 0 0 0.8,-2 15.2,15.2 0 0 0 0.69,-4.16 l 2.9,2.54 c 0,1.54 -0.1,3.18 -0.27,4.91 -0.08,0.79 -0.17,1.56 -0.27,2.3 a 8.58,8.58 0 0 1 1.37,1.79 8.07,8.07 0 0 1 0.81,2 l -1.5,1.3 c -0.43,0.38 -0.87,0.77 -1.32,1.17 z"
       id="path139"
       inkscape:connector-curvature="0"
       style="fill:#f7c9a4" />
    <path
       class="cls-29"
       d="m 452.86,290.88 a 1.52,1.52 0 0 1 0.55,1 c 0,0.51 -0.4,0.88 -0.88,1.35 a 4.49,4.49 0 0 1 -0.7,0.57 c 0.17,-0.45 0.34,-0.91 0.5,-1.39 0.16,-0.48 0.36,-1.01 0.53,-1.53 z"
       id="path141"
       inkscape:connector-curvature="0"
       style="fill:url(#linear-gradient-2)" />
    <path
       class="cls-25"
       d="m 455,309.86 a 7.6,7.6 0 0 1 2,4.51 7.92,7.92 0 0 1 -0.49,3.15 8,8 0 0 1 -0.86,1.76 c -1.41,0.88 -2.53,1.66 -3.29,2.22 a 21.18,21.18 0 0 1 -4.13,2.73 c -2,0.89 -2.72,0.77 -3.08,0.63 a 3.27,3.27 0 0 1 -1.6,-1.6 3.15,3.15 0 0 1 -0.43,-1.8 3.29,3.29 0 0 1 0.83,-1.78 c 1.28,-1.56 2.69,-2.18 4.95,-3.66 0.72,-0.48 1.52,-1 2.38,-1.64 a 4.69,4.69 0 0 1 -0.84,-1 5.12,5.12 0 0 1 -0.54,-1.19 z"
       id="path143"
       inkscape:connector-curvature="0"
       style="fill:#f7c9a4" />
    <path
       class="cls-30"
       d="m 453,290.62 c 2.71,3.63 -8.21,6 -9.94,6.55 -0.14,0 -0.22,-0.16 -0.09,-0.2 2.12,-0.65 4.29,-1.27 6.33,-2.12 1.6,-0.67 5.3,-1.73 3.53,-4.1 -0.08,-0.11 0.09,-0.24 0.17,-0.13 z"
       id="path145"
       inkscape:connector-curvature="0"
       style="fill:#491f07" />
    <path
       class="cls-30"
       d="m 453.43,287.52 2.92,2.57 c 0.1,0.09 0,0.27 -0.14,0.17 l -2.91,-2.57 c -0.11,-0.09 0,-0.26 0.13,-0.17 z"
       id="path147"
       inkscape:connector-curvature="0"
       style="fill:#491f07" />
    <path
       class="cls-31"
       d="m 456.4,290.29 c -0.26,2.33 -0.21,4.64 -0.65,7 0,0.14 -0.24,0.11 -0.22,0 0.44,-2.32 0.4,-4.63 0.66,-7 0,-0.14 0.23,-0.11 0.21,0 z"
       id="path149"
       inkscape:connector-curvature="0"
       style="fill:url(#linear-gradient-3)" />
    <path
       class="cls-32"
       d="m 455.71,297.47 a 15.87,15.87 0 0 1 -5.93,3.42 c -2.15,0.82 -5,1.83 -7.34,1.44 -1.47,-0.24 -2,-1.3 -2,-2.71 0,-2.34 0.65,-2.26 2.59,-2.78 0.14,0 0.16,0.18 0,0.22 -1,0.27 -2,0.09 -2.35,1.65 -0.19,0.83 1.43,3.21 2.1,3.45 1.19,0.42 3.67,-0.46 4.83,-0.79 2.7,-0.75 6,-1.94 7.94,-4 0.09,-0.1 0.26,0 0.17,0.14 z"
       id="path151"
       inkscape:connector-curvature="0"
       style="fill:url(#linear-gradient-4)" />
    <path
       class="cls-33"
       d="m 455.68,297.4 a 3.46,3.46 0 0 1 1.33,1.5 9.84,9.84 0 0 1 0.91,2.14 c 0,0.13 -0.16,0.22 -0.2,0.08 a 9.81,9.81 0 0 0 -0.69,-1.72 3.89,3.89 0 0 0 -1.44,-1.8 c -0.12,-0.06 0,-0.26 0.09,-0.2 z"
       id="path153"
       inkscape:connector-curvature="0"
       style="fill:url(#linear-gradient-5)" />
    <path
       class="cls-30"
       d="m 442.18,302.27 a 14.22,14.22 0 0 0 -1.26,1.53 2.12,2.12 0 0 0 -0.37,1.58 c 0.12,0.75 0.57,1.64 1.51,1.63 0.14,0 0.17,0.21 0,0.21 -1,0 -1.57,-0.88 -1.76,-1.81 -0.28,-1.36 0.84,-2.33 1.68,-3.27 0.09,-0.11 0.26,0 0.17,0.13 z"
       id="path155"
       inkscape:connector-curvature="0"
       style="fill:#491f07" />
    <path
       class="cls-34"
       d="m 455.1,303.53 c 0.51,1.85 1.71,3.55 1.26,5.53 0,0.14 -0.25,0.11 -0.22,0 0.44,-1.94 -0.74,-3.61 -1.24,-5.42 0,-0.13 0.16,-0.22 0.2,-0.08 z"
       id="path157"
       inkscape:connector-curvature="0"
       style="fill:url(#linear-gradient-6)" />
    <path
       class="cls-35"
       d="m 456.44,309.29 c -4.52,2.06 -9.12,4.54 -14.23,4.18 -0.13,0 -0.11,-0.23 0,-0.22 5.07,0.36 9.65,-2.12 14.12,-4.16 0.12,-0.06 0.21,0.14 0.08,0.2 z"
       id="path159"
       inkscape:connector-curvature="0"
       style="fill:url(#linear-gradient-7)" />
    <path
       class="cls-30"
       d="m 442.24,313.41 a 3.94,3.94 0 0 1 -1.85,-2.34 2.63,2.63 0 0 1 0.41,-1.35 c 0.38,-0.86 0.78,-1.71 1.17,-2.56 0.06,-0.12 0.26,0 0.2,0.09 A 26.4,26.4 0 0 0 440.9,310 c -0.47,1.42 0.36,2.51 1.47,3.23 0.12,0.07 0,0.24 -0.13,0.17 z"
       id="path161"
       inkscape:connector-curvature="0"
       style="fill:#491f07" />
    <path
       class="cls-36"
       d="m 455.7,319.48 c -2.72,1.86 -5.91,4.87 -9.22,5.68 -1.88,0.46 -3,-1.58 -3.49,-3.13 -0.05,-0.13 0.15,-0.22 0.2,-0.08 0.47,1.39 1.44,3.23 3.21,3 a 10.94,10.94 0 0 0 3.5,-1.79 c 1.93,-1.23 3.79,-2.57 5.67,-3.87 0.11,-0.07 0.25,0.1 0.13,0.18 z"
       id="path163"
       inkscape:connector-curvature="0"
       style="fill:url(#linear-gradient-8)" />
    <path
       class="cls-30"
       d="m 443,322 a 0.11,0.11 0 0 1 0,-0.21 0.11,0.11 0 0 1 0,0.21 z"
       id="path165"
       inkscape:connector-curvature="0"
       style="fill:#491f07" />
    <path
       class="cls-30"
       d="m 442.92,321.85 a 5,5 0 0 1 1.41,-2.86 c 0.1,-0.09 0.27,0 0.17,0.14 a 4.71,4.71 0 0 0 -1.36,2.75 c 0,0.13 -0.24,0.11 -0.22,0 z"
       id="path167"
       inkscape:connector-curvature="0"
       style="fill:#491f07" />
    <path
       class="cls-30"
       d="m 444.34,319.13 a 16.77,16.77 0 0 1 3,-2.25 q 1.85,-1.28 3.64,-2.63 c 0.11,-0.08 0.24,0.09 0.13,0.17 -1.08,0.81 -2.16,1.61 -3.27,2.38 a 18.65,18.65 0 0 0 -3.36,2.47 c -0.09,0.1 -0.26,0 -0.17,-0.14 z"
       id="path169"
       inkscape:connector-curvature="0"
       style="fill:#491f07" />
    <path
       class="cls-30"
       d="m 451.1,314.27 a 5.47,5.47 0 0 1 -1.4,-2.08 0.11,0.11 0 0 1 0.2,-0.08 5.36,5.36 0 0 0 1.33,2 c 0.1,0.09 0,0.27 -0.13,0.17 z"
       id="path171"
       inkscape:connector-curvature="0"
       style="fill:#491f07" />
    <path
       class="cls-30"
       d="m 429.46,296.39 a 11.17,11.17 0 0 1 -0.1,4.12 c -0.3,0.89 -1.6,1.5 -2.3,2 -0.11,0.08 -0.25,-0.09 -0.13,-0.17 0.88,-0.68 2,-1.28 2.29,-2.42 a 12.72,12.72 0 0 0 0,-3.54 c 0,-0.14 0.2,-0.17 0.21,0 z"
       id="path173"
       inkscape:connector-curvature="0"
       style="fill:#491f07" />
    <path
       class="cls-30"
       d="m 426.86,302.61 c -1.48,-0.74 -2.92,-1.53 -4.32,-2.39 -1.75,-1.09 -3.36,-2.51 -5.34,-3.13 -0.14,0 -0.05,-0.24 0.08,-0.2 a 16.48,16.48 0 0 1 4.12,2.34 52.52,52.52 0 0 0 5.54,3.18 c 0.13,0.07 0,0.27 -0.08,0.2 z"
       id="path175"
       inkscape:connector-curvature="0"
       style="fill:#491f07" />
    <path
       class="cls-30"
       d="m 417.15,297 a 2.63,2.63 0 0 1 -0.5,0.93 c -0.09,0.1 -0.26,0 -0.17,-0.14 a 2.27,2.27 0 0 0 0.47,-0.88 c 0,-0.13 0.24,0 0.2,0.09 z"
       id="path177"
       inkscape:connector-curvature="0"
       style="fill:#491f07" />
    <path
       class="cls-30"
       d="m 416.55,297.9 a 4.86,4.86 0 0 1 1.15,1.65 c 0.05,0.13 -0.15,0.22 -0.2,0.09 a 4.4,4.4 0 0 0 -1.09,-1.57 c -0.1,-0.09 0,-0.26 0.14,-0.17 z"
       id="path179"
       inkscape:connector-curvature="0"
       style="fill:#491f07" />
    <path
       class="cls-30"
       d="m 429.3,296.55 c -3.11,-2.17 -5.53,-4.82 -9,-6.52 a 10.18,10.18 0 0 0 -2.33,-1 c -1.58,-0.31 -1.78,0.19 -2.74,1.09 l -4.28,4 c -0.1,0.09 -0.23,-0.08 -0.13,-0.18 a 50.45,50.45 0 0 1 5.13,-4.8 c 1.15,-0.79 1.79,-0.47 3.12,0.09 a 27,27 0 0 1 5.09,2.84 c 1.86,1.32 3.41,3 5.28,4.31 0.11,0.08 0,0.25 -0.13,0.17 z"
       id="path181"
       inkscape:connector-curvature="0"
       style="fill:#491f07" />
    <path
       class="cls-30"
       d="m 417.94,299.93 c -1.22,4.66 -0.38,9.83 -0.16,14.59 0.24,4.92 0.5,9.85 1,14.76 0,0.13 -0.2,0.16 -0.21,0 -0.56,-5.19 -0.82,-10.39 -1.07,-15.59 -0.22,-4.52 -1,-9.38 0.2,-13.82 0,-0.13 0.25,-0.1 0.21,0 z"
       id="path183"
       inkscape:connector-curvature="0"
       style="fill:#491f07" />
    <path
       class="cls-37"
       d="m 455.43,297.59 a 3,3 0 0 0 -1.13,-2.15 0.11011358,0.11011358 0 0 1 0.14,-0.17 3.17,3.17 0 0 1 1.2,2.29 c 0,0.14 -0.2,0.17 -0.21,0 z"
       id="path185"
       inkscape:connector-curvature="0"
       style="fill:url(#linear-gradient-9)" />
    <path
       class="cls-30"
       d="m 417,297.07 a 10.93,10.93 0 0 1 -0.45,-2.53 c 0,-0.14 0.21,-0.17 0.22,0 a 9.92,9.92 0 0 0 0.43,2.47 c 0.05,0.14 -0.15,0.22 -0.2,0.09 z"
       id="path187"
       inkscape:connector-curvature="0"
       style="fill:#491f07" />
    <path
       class="cls-30"
       d="m 416.56,298.24 a 9.42,9.42 0 0 0 -2.38,-0.75 c -0.14,0 -0.11,-0.24 0,-0.21 a 9.1,9.1 0 0 1 2.44,0.76 c 0.12,0.06 0,0.26 -0.09,0.2 z"
       id="path189"
       inkscape:connector-curvature="0"
       style="fill:#491f07" />
    <path
       class="cls-38"
       d="m 455.69,319.52 a 2.94,2.94 0 0 0 -2.21,-2.17 c -0.13,0 -0.1,-0.25 0,-0.22 a 3.21,3.21 0 0 1 2.4,2.36 c 0,0.14 -0.19,0.16 -0.22,0 z"
       id="path191"
       inkscape:connector-curvature="0"
       style="fill:url(#linear-gradient-10)" />
    <path
       class="cls-30"
       d="m 451.25,314.09 a 3.46,3.46 0 0 1 2.2,0.21 c 0.12,0.06 0,0.26 -0.09,0.2 a 3.24,3.24 0 0 0 -2.08,-0.19 c -0.13,0 -0.16,-0.19 0,-0.22 z"
       id="path193"
       inkscape:connector-curvature="0"
       style="fill:#491f07" />
    <path
       class="cls-30"
       d="m 443.58,298.45 a 0.11,0.11 0 0 1 0,-0.22 0.11,0.11 0 0 1 0,0.22 z"
       id="path195"
       inkscape:connector-curvature="0"
       style="fill:#491f07" />
    <path
       class="cls-22"
       d="m 166,267.88 -32.63,114.35 c 0,0 -3.05,41.29 18.66,41.29 21.71,0 55.66,-94.52 55.66,-94.52 z"
       id="path197"
       inkscape:connector-curvature="0"
       style="fill:#86add3" />
    <path
       class="cls-22"
       d="m 137.35,373.36 17.14,21.55 c 0,0 19.74,7.23 17.47,12.5 -7.21,16.73 -31,17.62 -31,17.62 l -17.64,-52 z"
       id="path199"
       inkscape:connector-curvature="0"
       style="fill:#86add3" />
    <polygon
       class="cls-16"
       points="237.05,374.29 163.35,398.13 106.88,303.05 186.48,272.67 "
       id="polygon201"
       style="fill:#f2f2f2" />
    <path
       class="cls-25"
       d="m 157.12,353.87 6.59,-3.13 c 0,0 2.41,-3 -0.12,-3.76 -2.53,-0.76 -7.72,0.25 -7.72,0.25 l -10.16,2.41 -10.09,4.5 5.3,-6.23 7.92,-4.84 9.37,-1.14 c 0,0 2.36,-4.67 -0.18,-5.63 -2.54,-0.96 -12.51,0.81 -12.51,0.81 l -10.42,5.2 -3.65,5.48 v -7.93 l 5.1,-8.17 6.54,-4.11 c 0,0 3.85,-4 1,-5.14 -2.85,-1.14 -12.76,3.29 -12.76,3.29 l -7.39,13 0.44,14 c 0,0 -0.74,7.72 -1.74,19 1,3.72 2.55,7.26 5.45,9.86 a 15.55,15.55 0 0 0 4.78,2.82 c 2.19,-0.1 5.2,-0.83 5.92,-2.78 l -0.83,-6.87 11.82,-9.35 9.5,-3.44 c 0,0 1.37,-2.76 -0.11,-3.55 -1.48,-0.79 -9,0.29 -9,0.29 l -10.79,4.29 8.05,-5.27 z"
       id="path203"
       inkscape:connector-curvature="0"
       style="fill:#f7c9a4" />
  </g>
  <path
     class="cls-25"
     d="m 178.59,66.611795 c 0,0 5.46,-9 9.26,-2.75 3.8,6.25 -5,21.35 -11.39,20.32 -6.39,-1.03 2.13,-17.57 2.13,-17.57 z"
     id="path207"
     inkscape:connector-curvature="0"
     style="fill:#f7c9a4" />
  <path
     class="cls-25"
     d="m 114.71,59.921795 c 0,0 -2.8,-7.15 -7.06,-5 -4.26,2.15 -3.81,17.69 -0.85,21.05 2.96,3.36 9.47,6.27 9.47,6.27 z"
     id="path209"
     inkscape:connector-curvature="0"
     style="fill:#f7c9a4" />
  <path
     class="cls-25"
     d="m 182.28,42.621795 -2.93,50 a 15.8,15.8 0 0 1 -2.72,8.000005 c -5,7.35 -17,22.4 -30.41,20.58 -14.24,-1.95 -24.66,-13.77 -29.3,-20.09 a 15.65,15.65 0 0 1 -3,-8.120005 l -3.78,-50.05 14.25,-21.47 h 31.81 l 17.7,5.38 z"
     id="path211"
     inkscape:connector-curvature="0"
     style="fill:#f7c9a4" />
  <path
     class="cls-39"
     d="m 180.72,21.731795 c 0.17,2.51 8.72,10.73 9.58,17 0.86,6.27 -9.18,28.54 -9.18,28.54 l -3.63,-34 c 0,0 -23.11,2.24 -30.37,3.4 -7.26,1.16 -9.33,-7.33 -14.7,-9 -5.37,-1.67 -11.92,6.84 -11.92,6.84 0,0 -0.46,8.43 0.19,11.75 0.65,3.32 -9.67,17.89 -9.67,17.89 0,0 -5.26,-21.26 -5.63,-23.54 -0.37,-2.28 10.55,-14.52 10.88,-15.81 l 22,-11.81 z"
     id="path213"
     inkscape:connector-curvature="0"
     style="fill:#111421" />
  <path
     class="cls-39"
     d="m 190.3,38.701795 c 0,0 -10.26,-38.70999977 -26.1,-38.46999977 -15.84,0.24 -16.16,4.29999997 -16.16,4.29999997 0,0 -3.4,-6.38 -16.78,-3.99999997 C 117.88,2.9117952 114.44,16.511795 114.44,16.511795 l 4.33,-3.31 c 0,0 -11.66,11.4 -11.38,16.78 l 4.45,-4.47 c 0,0 -7.67,15.44 -7.94,24.13 0,0 2,-14.37 11,-17.92 9,-3.55 16.66,-12.24 26.32,-10 9.66,2.24 21,-1.47 28.92,5.64 7.92,7.11 7.82,11.75 7.82,11.75 z"
     id="path215"
     inkscape:connector-curvature="0"
     style="fill:#111421" />
  <path
     d="m 183.61,60.821795 c 0,-1 1.72,-2.47 -2.87,-3 -4.59,-0.53 -6.82,-1.13 -11.73,-1.3 -4.91,-0.17 -12.7,-0.38 -14.06,1 -1.36,1.38 -2.35,1.76 -5.09,1.67 -2.74,-0.09 -4.31,-0.58 -5.57,-2 -1.26,-1.42 -9,-1.79 -14,-2 -5,-0.21 -7.18,0.29 -11.8,0.49 -4.62,0.2 -3,1.82 -3.07,2.8 -0.07,0.98 0.54,1 1.64,2.22 1.1,1.22 1.1,4.69 1.1,4.69 0.84,9.91 5.1,12.47 12.14,12.71 7.04,0.24 8.66,-1.37 10.74,-3 2.08,-1.63 3.84,-7.66 4.57,-9.8 0.73,-2.14 3.77,-2.24 3.77,-2.24 0,0 3,0.31 3.61,2.49 0.61,2.18 1.93,8.32 3.88,10.1 1.95,1.78 3.47,3.51 10.51,3.75 7.04,0.24 11.46,-2 13,-11.84 0,0 0.24,-3.46 1.42,-4.61 1.18,-1.15 1.78,-1.15 1.81,-2.13 z m -40.56,7.75 c -1.06,4.29 -4.08,9 -12.48,8.43 -8.4,-0.57 -9,-3.79 -9.72,-5.57 a 43.15,43.15 0 0 1 -1.46,-10.62 c 0,-2.78 1.94,-3.24 1.94,-3.24 4.62,-1.48 15,-0.67 19.14,0.86 4.14,1.53 3.65,5.84 2.58,10.14 z m 36.26,-5.69 a 43.68,43.68 0 0 1 -2.19,10.5 c -0.83,1.72 -1.66,4.92 -10.08,4.87 -8.42,-0.05 -11.11,-4.91 -11.88,-9.27 -0.77,-4.36 -1,-8.69 3.28,-9.93 4.28,-1.24 14.64,-1.33 19.15,0.46 0,0 1.85,0.59 1.72,3.37 z"
     id="path217"
     inkscape:connector-curvature="0" />
</svg>
