<svg xmlns="http://www.w3.org/2000/svg" xmlns:xlink="http://www.w3.org/1999/xlink" viewBox="0 0 841.89 595.28"><defs><style>.cls-1{mask:url(#mask);filter:url(#luminosity-noclip-2);}.cls-2,.cls-52,.cls-58{mix-blend-mode:multiply;}.cls-2{fill:url(#linear-gradient);}.cls-3{isolation:isolate;}.cls-4{fill:#081f36;}.cls-5{fill:#e4e4e4;}.cls-6{fill:#11213b;}.cls-7{fill:#eee;}.cls-8{fill:#c7c7c7;}.cls-9{fill:#051726;}.cls-10{fill:#c2fbff;}.cls-11{fill:#7bd5ff;}.cls-12{opacity:0.25;fill:url(#_ÂÁ_Ï_ÌÌ_È_ËÂÌÚ_8);}.cls-12,.cls-13{mix-blend-mode:screen;}.cls-13{fill:url(#_ÂÁ_Ï_ÌÌ_È_ËÂÌÚ_16);}.cls-14{fill:#7e7e7e;}.cls-15{fill:#bababa;}.cls-16{fill:#a8a8a8;}.cls-17{fill:#92b8f8;}.cls-18{fill:#ff9b8d;}.cls-19{fill:#ffb9a3;}.cls-20{fill:#d3a885;}.cls-21{fill:#0c346d;}.cls-22{fill:#c7d9e5;}.cls-23{fill:#dae8ef;}.cls-24{fill:#010f29;}.cls-25{fill:#eabf98;}.cls-26{fill:#f7c9a4;}.cls-27{fill:#96381f;}.cls-28{fill:#93cfff;}.cls-29{fill:#003ea6;}.cls-30{fill:url(#linear-gradient-2);}.cls-31{fill:#2f3d6c;}.cls-32{fill:#343435;}.cls-33{fill:url(#linear-gradient-3);}.cls-34{fill:url(#linear-gradient-4);}.cls-35{fill:#6389a8;}.cls-36{fill:#987336;}.cls-37{fill:#86add3;}.cls-38{fill:#bab9b9;}.cls-39,.cls-49{fill:#fff;}.cls-40{fill:#181819;}.cls-41{fill:#dbd9d9;}.cls-42{fill:#515a6b;}.cls-43{fill:#7190aa;}.cls-44{fill:#ea6363;}.cls-45{fill:#434343;}.cls-46{fill:#bc2911;}.cls-47{mask:url(#mask-2);}.cls-48,.cls-49{opacity:0.63;}.cls-48{fill:url(#linear-gradient-5);}.cls-50,.cls-52{fill:#424242;}.cls-51,.cls-53,.cls-56,.cls-59,.cls-60{fill:#e2e1e0;}.cls-51{opacity:0.65;}.cls-51,.cls-53,.cls-59,.cls-60,.cls-61{mix-blend-mode:soft-light;}.cls-52{opacity:0.45;}.cls-53{opacity:0.38;}.cls-54,.cls-62{fill:#bcbcbc;}.cls-55{fill:url(#linear-gradient-6);}.cls-57{fill:url(#linear-gradient-7);}.cls-58{fill:#87888e;}.cls-58,.cls-59{opacity:0.5;}.cls-60,.cls-61{opacity:0.8;}.cls-62{opacity:0.6;}.cls-63{filter:url(#luminosity-noclip);}</style><filter id="luminosity-noclip" x="560.65" y="-8490" width="120.9" height="32766" filterUnits="userSpaceOnUse" color-interpolation-filters="sRGB"><feFlood flood-color="#fff" result="bg"/><feBlend in="SourceGraphic" in2="bg"/></filter><mask id="mask" x="560.65" y="-8490" width="120.9" height="32766" maskUnits="userSpaceOnUse"><g class="cls-63"/></mask><linearGradient id="linear-gradient" x1="264.21" y1="179.95" x2="384.88" y2="179.95" gradientTransform="matrix(-1, 0.01, 0.01, 1, 944.63, -2.43)" gradientUnits="userSpaceOnUse"><stop offset="0" stop-color="#fff"/><stop offset="1" stop-color="#4d4d4d"/></linearGradient><linearGradient id="_ÂÁ_Ï_ÌÌ_È_ËÂÌÚ_8" x1="-1107.87" y1="166.6" x2="-1230.33" y2="272.6" gradientTransform="translate(1641.6)" gradientUnits="userSpaceOnUse"><stop offset="0" stop-color="#fff"/><stop offset="0.01" stop-color="#f8f8f8"/><stop offset="0.13" stop-color="#bfbfbf"/><stop offset="0.25" stop-color="#8c8c8c"/><stop offset="0.37" stop-color="#616161"/><stop offset="0.49" stop-color="#3e3e3e"/><stop offset="0.62" stop-color="#232323"/><stop offset="0.74" stop-color="#0f0f0f"/><stop offset="0.87" stop-color="#040404"/><stop offset="1"/></linearGradient><linearGradient id="_ÂÁ_Ï_ÌÌ_È_ËÂÌÚ_16" x1="-1097.4" y1="173.03" x2="-1195.43" y2="257.87" gradientTransform="translate(1641.6)" gradientUnits="userSpaceOnUse"><stop offset="0" stop-color="#5ed3ff"/><stop offset="0.01" stop-color="#5bcdf8"/><stop offset="0.13" stop-color="#469ebf"/><stop offset="0.25" stop-color="#34748c"/><stop offset="0.37" stop-color="#245061"/><stop offset="0.49" stop-color="#17333e"/><stop offset="0.62" stop-color="#0d1d23"/><stop offset="0.74" stop-color="#060d0f"/><stop offset="0.87" stop-color="#010304"/><stop offset="1"/></linearGradient><linearGradient id="linear-gradient-2" x1="343.35" y1="270.76" x2="328" y2="303.64" gradientTransform="matrix(-1, 0, 0, 1, 689.07, 0)" gradientUnits="userSpaceOnUse"><stop offset="0" stop-color="#004dd4"/><stop offset="1" stop-color="#006ffc"/></linearGradient><linearGradient id="linear-gradient-3" x1="332.59" y1="552.3" x2="395.05" y2="552.3" gradientTransform="matrix(-1, 0, 0, 1, 689.07, 0)" gradientUnits="userSpaceOnUse"><stop offset="0" stop-color="#e2e2e2"/><stop offset="1" stop-color="#fff"/></linearGradient><linearGradient id="linear-gradient-4" x1="191.45" y1="552.3" x2="263.57" y2="552.3" xlink:href="#linear-gradient-3"/><filter id="luminosity-noclip-2" x="560.65" y="115.33" width="120.9" height="128.43" filterUnits="userSpaceOnUse" color-interpolation-filters="sRGB"><feFlood flood-color="#fff" result="bg"/><feBlend in="SourceGraphic" in2="bg"/></filter><mask id="mask-2" x="560.65" y="115.33" width="120.9" height="128.43" maskUnits="userSpaceOnUse"><g class="cls-1"><path class="cls-2" d="M580.39,243.41c-5.45-11.76,18.25-24.27,17-33.75-1.93-14.5-25.24-28.12-33.82-41-6.64-9.94-5.07-56.72,39.19-53.16,34.13,2.74,38.86,33.47,40,40.32,2.73,16.32,32.14,14.86,37,30.08,9.64,29.91-22.47,35.51-46.2,40.31-29.46,6-36.91,14.12-36.89,17.15C590.29,244.22,580.39,243.41,580.39,243.41Z"/></g></mask><linearGradient id="linear-gradient-5" x1="264.21" y1="179.95" x2="384.88" y2="179.95" gradientTransform="matrix(-1, 0.01, 0.01, 1, 944.63, -2.43)" gradientUnits="userSpaceOnUse"><stop offset="0" stop-color="#fff"/><stop offset="1" stop-color="#fff"/></linearGradient><linearGradient id="linear-gradient-6" x1="450.23" y1="181.98" x2="505.23" y2="181.98" gradientTransform="matrix(-1, 0, 0, 1, 1083.38, 0)" gradientUnits="userSpaceOnUse"><stop offset="0" stop-color="#9a9ea9"/><stop offset="1" stop-color="#727582"/></linearGradient><linearGradient id="linear-gradient-7" x1="426.05" y1="280.38" x2="477.51" y2="280.38" xlink:href="#linear-gradient-6"/></defs><title>1</title><g class="cls-3"><g id="Layer_1" data-name="Layer 1"><rect class="cls-4" x="492.32" y="284.98" width="11.37" height="0.76" transform="translate(996 570.72) rotate(180)"/><rect class="cls-4" x="361.96" y="284.98" width="11.37" height="0.76" transform="translate(735.28 570.72) rotate(180)"/><rect class="cls-4" x="552.12" y="284.98" width="11.37" height="0.76" transform="translate(1115.61 570.72) rotate(180)"/><path class="cls-5" d="M434.63,278.22H566.86a4.22,4.22,0,0,0,4.07-3.61l11.55-92.46a3.13,3.13,0,0,0-3.17-3.62H447.08a4.22,4.22,0,0,0-4.07,3.62l-11.55,92.46A3.12,3.12,0,0,0,434.63,278.22Z"/><path class="cls-6" d="M433,278.22H565.22a4.22,4.22,0,0,0,4.07-3.61l11.55-92.46a3.13,3.13,0,0,0-3.17-3.62H445.44a4.22,4.22,0,0,0-4.06,3.62l-11.55,92.46A3.12,3.12,0,0,0,433,278.22Z"/><polygon class="cls-4" points="429.83 274.61 569.29 274.61 569.73 271.13 430.26 271.13 429.83 274.61"/><polygon class="cls-4" points="440.94 185.62 580.4 185.62 580.84 182.15 441.38 182.15 440.94 185.62"/><path class="cls-4" d="M510.49,180.28a.73.73,0,0,0,.74.85,1,1,0,0,0,1-.85.73.73,0,0,0-.74-.85A1,1,0,0,0,510.49,180.28Z"/><path class="cls-7" d="M357.15,279.77v.77c0,2.45,1.16,4.44,2.59,4.44h205c1.43,0,2.58-2,2.58-4.44v-.77Z"/><path class="cls-8" d="M493.31,279.77v.77c0,2.45,1.05,4.44,2.35,4.44h69.05c1.43,0,2.58-2,2.58-4.44v-.77Z"/><rect class="cls-9" x="502.77" y="281.08" width="5.13" height="2.58" transform="translate(1010.67 564.74) rotate(180)"/><rect class="cls-9" x="509.5" y="281.08" width="5.13" height="2.58" transform="translate(1024.12 564.74) rotate(180)"/><path class="cls-9" d="M551,282.45a1.37,1.37,0,1,0,1.37-1.37A1.37,1.37,0,0,0,551,282.45Z"/><rect class="cls-10" x="402.68" y="279.77" width="32.89" height="1.77" transform="translate(838.26 561.3) rotate(-180)"/><polygon class="cls-11" points="446.25 186.38 575.48 186.38 564.63 270.37 435.4 270.37 446.25 186.38"/><polygon class="cls-12" points="575.48 186.38 435.18 270.37 446.25 186.38 575.48 186.38"/><path class="cls-13" d="M575.48,186.38,571,221.26,465.09,255.83l-22.54-40.38q1.84-14.53,3.71-29.07Z"/><polygon class="cls-14" points="671.28 554.89 633.28 288.78 646.58 285.1 684.72 554.89 671.28 554.89"/><polygon class="cls-14" points="270.77 547.39 318.77 288.78 305.47 285.1 257.33 547.39 270.77 547.39"/><rect class="cls-15" x="261.45" y="287" width="374.44" height="22.53"/><rect class="cls-14" x="594.23" y="287" width="41.66" height="22.53"/><polygon class="cls-16" points="628.83 554.89 588.47 288.92 602.28 285.1 642.79 554.89 628.83 554.89"/><polygon class="cls-16" points="217.99 549.11 266.38 288.92 252.57 285.1 204.03 549.11 217.99 549.11"/><rect class="cls-17" x="195.31" y="285.1" width="480.56" height="10.96"/><path class="cls-18" d="M408.87,261.7c4.51,1.86,13.2,8.33,15,9.08s9,3.39,9,3.39a1.55,1.55,0,0,1-.62,2.45c-1.8.81-8.88-1.2-10.77-2.18s-9.61-6.09-9.61-6.09Z"/><path class="cls-18" d="M429.53,273c2.2.33,2.42-1.35,2.42-1.35l-12.77-3.75,4.19,4.84Z"/><path class="cls-19" d="M386.07,282.38c7.86-3.37,16.85-1.27,19.48-2,6.22-1.8,17-1.19,17-1.19s6.24-7.23.85-6.46a29.85,29.85,0,0,1-12.06-.65l-5.94-11.1s-10.46,2-15.6,5.07a90.74,90.74,0,0,0-9.64,6.69Z"/><path class="cls-18" d="M405.37,260.94c2.39-.74,12.46,2.22,14.73,2.79s15.44,3.61,15.44,3.61a3,3,0,0,1-1.73,3.33c-2.34,1.29-14-2.57-14-2.57Z"/><path class="cls-19" d="M401.26,266.87c1.38,1.22,6.25,1.64,14.8,1.5,3.18-.05,10.09,6.06,11.87.48,0,0-13.08-8.5-22.56-7.91Z"/><path class="cls-19" d="M409.26,276.59c.85-1.92,5.21-7,9.25-7.59s-12.61-4.06-12.61-4.06Z"/><path class="cls-20" d="M386.07,282.38c1-4.7,2.22-13.33,2.22-13.33-.39-2.7-53.77-19.32-53.77-19.32s-3.19-45.49-9.31-53c0,0-12.6-16-24.18-3.71s-4.19,27.42-4.19,27.42S305.57,272,310.55,276C316.39,280.81,384.52,286.47,386.07,282.38Z"/><path class="cls-21" d="M328.77,222.61,306,264.44c1.63,6,3.24,10.5,4.57,11.6.87.7,3.08,1.4,6.2,2.07C323.37,254.15,328.77,222.61,328.77,222.61Z"/><path class="cls-22" d="M515.35,284.44H410.42a1.38,1.38,0,0,1-.61-2.62l4.51-2.21h101Z"/><polygon class="cls-23" points="505.1 284.44 476.28 284.44 486.12 279.61 505.1 279.61 505.1 284.44"/><path class="cls-24" d="M337.22,131l-1-1.4,1.82-9.9,1.41-1,13.58,2.5,1,1.41-4,9.59-1.4,1Zm.14-1.64.48.7,10.58,2,.7-.48,3.82-8.75-.48-.69-12.74-2.35-.69.48Z"/><polygon class="cls-25" points="334.69 117.22 341.64 137.39 341.22 139.2 326.05 142.68 334.69 117.22"/><path class="cls-25" d="M329.76,84.16c10,3.73,10.56,31,10.34,33.34s-5.35,6.45-5.37,8.14,3.37,6.19,2.66,9c-.32,1.29-10.47,30.94-10.47,30.94s-19-5-23.63-6.7-21.2-18.55-26.72-29.07-6.44-33.84,5.07-43.46S321.74,81.17,329.76,84.16Z"/><path class="cls-25" d="M315.41,140.2l-6.12-3.33-3.38,22.82c6,1.86,17.61,4.94,20.39,5.68C322.54,156.56,315.41,140.2,315.41,140.2Z"/><path class="cls-25" d="M315,142.07,301.34,186.8a18.86,18.86,0,1,1-36.08-11c6.79-22.37,6.79-22.37,13.6-44.74a18.86,18.86,0,0,1,15.41-13.19,18.65,18.65,0,0,1,8.12.64A18.86,18.86,0,0,1,315,142.07Z"/><path class="cls-20" d="M297.53,147.87l8.84-27.59a19,19,0,0,0-4-1.74,18.65,18.65,0,0,0-8.12-.64,18.86,18.86,0,0,0-15.41,13.19l-6.12,20.11,13.4,3.12A9.65,9.65,0,0,0,297.53,147.87Z"/><path class="cls-26" d="M334.73,125.64c0-1.69,5.16-5.84,5.37-8.14s-.38-29.61-10.34-33.34a34.29,34.29,0,0,0-4.53-1.23,26,26,0,0,1,2.58.78c10,3.72,10.56,31,10.35,33.33s-5.35,6.45-5.38,8.15,3.37,6.19,2.67,8.95C335.13,135.4,325.4,163.85,325,165l1.92.51s10.15-29.65,10.47-30.94C338.1,131.83,334.7,127.33,334.73,125.64Z"/><path class="cls-24" d="M336.62,118.4s3.41-2.42,4.44-3.19c0,0,.8,2.48-.79,3.17A6,6,0,0,1,336.62,118.4Z"/><path class="cls-24" d="M340.48,88.32c3.81-8.88-3-16.56-9-17.19-4.76-.51-3.44,4.84-5.46,4.79-3-.07-4.83-2.36-8.95-1.78-3.35.46-5.34-5.14-12.62-5.14-1.83,0-7.24,3.29-16.67,4.83s-19.15,11-15.31,23.78C277.46,114.05,333.38,104.91,340.48,88.32Z"/><path class="cls-24" d="M340,71.56a7,7,0,0,1,1.23.87,13.19,13.19,0,0,1,2.64,3,13,13,0,0,1,1.93,5.59,12.8,12.8,0,0,1-.16,3.48,13.25,13.25,0,0,1-1.15,3.4,16.43,16.43,0,0,1-4.26,5.26,19.33,19.33,0,0,1-2.45,1.73,19.09,19.09,0,0,1-2.35,1.23,18,18,0,0,1-2.07.8,11.72,11.72,0,0,1-1.64.48c-.92.23-1.46.31-1.46.31s.38-.41,1.07-1l1.23-1.12c.46-.44,1-.9,1.55-1.44s1.16-1.08,1.75-1.69,1.21-1.26,1.82-1.92c.28-.36.6-.68.88-1s.56-.72.82-1.09a16.58,16.58,0,0,0,1.38-2.31,12.83,12.83,0,0,0,.95-2.44,14.24,14.24,0,0,0,.42-2.49,16.47,16.47,0,0,0-.46-4.74,25.7,25.7,0,0,0-1.1-3.51C340.21,72.06,340,71.56,340,71.56Z"/><path class="cls-24" d="M326.93,127.53l-1.12-10.79c1.57-2.11,9-7,9.07-9.08s-2.76-10.55-2.65-12.3-59.08-13.25-61.67,0c-.1.51,1.1,46.95,1.82,49.72l12.3,3a9.66,9.66,0,0,0,11.11-5.48c4.75-10.78,11.91-27.5,18.31-26.93,8.26.73,7.95,11.28,7.95,11.28Z"/><path class="cls-26" d="M334.08,131.31c.31,1.53-.11,2.91-.93,3.07s-1.75-.94-2-2.47.11-2.9.93-3.07S333.78,129.78,334.08,131.31Z"/><path class="cls-26" d="M335.34,141a.54.54,0,0,1-.42-.39.53.53,0,0,1,.39-.63l5.48-1.25.32-1.36-4.69-15a.51.51,0,0,1,.34-.65.51.51,0,0,1,.65.34l4.73,15.09a.5.5,0,0,1,0,.27l-.42,1.81a.55.55,0,0,1-.39.39L335.55,141A.74.74,0,0,1,335.34,141Z"/><rect class="cls-24" x="332.01" y="101.42" width="1.04" height="41.57" transform="translate(152.03 427.05) rotate(-79.55)"/><path class="cls-25" d="M320.74,119.91c2,6.3,0,12.56-4.48,14s-9.71-2.55-11.7-8.85,0-12.56,4.48-14S318.75,113.6,320.74,119.91Z"/><path class="cls-26" d="M312,123.35c2.31-.73,5,.92,6.42,3.79a9,9,0,0,0-.24-4.73c-1.21-3.81-4.37-6.2-7.07-5.35s-3.91,4.63-2.7,8.44a9.33,9.33,0,0,0,.64,1.55A4.69,4.69,0,0,1,312,123.35Z"/><rect class="cls-27" x="198.27" y="296.18" width="150.74" height="6.63"/><path class="cls-28" d="M393.53,285.79h96.41v-7.22H400.68a7.15,7.15,0,0,0-7.15,7.15Z"/><path class="cls-29" d="M473.6,285.79h43.26a7.17,7.17,0,0,0-7.16-7.22H480.75a7.15,7.15,0,0,0-7.15,7.15Z"/><path class="cls-30" d="M378.56,296.18H308.73c-.4-3.33,1.1-6.9,4.78-10.39h88.07C394.33,289.43,386.42,293.09,378.56,296.18Z"/><path class="cls-31" d="M314.43,541.88a14,14,0,0,0,1.71-.11A12.7,12.7,0,0,0,327,527.5l-4.85-36.09A12.69,12.69,0,0,0,297,494.79l4.85,36.09A12.7,12.7,0,0,0,314.43,541.88Z"/><path class="cls-32" d="M262.19,347.64l32,175.42c1.75,9.61,35.76,4.26,35-4.71L313.68,340.72a26,26,0,0,0-51.81,4.52C261.94,346,262.05,346.87,262.19,347.64Z"/><path class="cls-32" d="M303.52,522.62c-.5-.09-4.19-.06-6.82,0-1.49,0-2.69.93-2.69,2V554h62l.77-5.8a5.2,5.2,0,0,0-2.88-5.06l-3.54-2.08a6.57,6.57,0,0,1-.92-.64c-2.8-2.3-18.61-15.33-18.79-15.44s-4.08,2.82-6.48,4.61a7.56,7.56,0,0,1-4.46,1.37"/><polygon class="cls-33" points="356.48 550.62 356.02 553.99 294.01 553.99 294.01 550.62 356.48 550.62"/><path class="cls-31" d="M442.55,541.82a10.89,10.89,0,0,0,10.84-10.11l1.91-27a10.88,10.88,0,1,0-21.7-1.54l-1.92,27a10.88,10.88,0,0,0,10.08,11.62Z"/><path class="cls-32" d="M497.61,550.62v-3.41a3.88,3.88,0,0,0-2.16-3.28L464.19,526a4.48,4.48,0,0,0-3.85-.19l-6.62,2.86a9.59,9.59,0,0,1-8.1-.32l-9.75-5.28a4.73,4.73,0,0,0-2.22-.54H430a4.21,4.21,0,0,0-3.23,1.35l-.7.85a2.35,2.35,0,0,0-.56,1.5v24.36Z"/><path class="cls-32" d="M453.72,528.7l6.61-2.86a4.62,4.62,0,0,1,1.91-.34c-1.76-2.56-5.22-7.46-6.1-7.38-1.13.09-3.84,6.91-4,11.08A9.2,9.2,0,0,0,453.72,528.7Z"/><rect class="cls-34" x="425.5" y="550.62" width="72.12" height="3.37"/><path class="cls-35" d="M314.13,171.22c-1.38-3.85-6.38-7.92-9.65-12s-32.73-10.46-36-5.88c-3.93,5.51-10.06,14.47-10.06,14.47S315.5,175.07,314.13,171.22Z"/><circle class="cls-36" cx="268.02" cy="337.51" r="44.85"/><path class="cls-32" d="M247.81,361.38c1.05-16,12.84-24.19,28.84-23.14l175.11,7.51,1.55.1h.14a22.88,22.88,0,0,1,21,24.59L463.34,513.66c-.81,10.16-39,8.83-38.77-1.89l2.35-119-150.24-.47c-.58,0-1.24,0-1.82-.06A29,29,0,0,1,247.81,361.38Z"/><path class="cls-37" d="M344.84,185.81c-8.64-15.29-43.61-19-62.52-20-29.63-1.54-39.66.91-45.65,7.77-5.59,6.4-12.31,123-10,185.15.84,22.56,109.5,5,104.08-21.25-4.69-22.72-9.27-41.58-9.27-41.58S350.55,195.92,344.84,185.81Z"/><path class="cls-35" d="M323.19,332.73c2.62-10.15-7.64-21.53-10.32-34.45s7.87-11.1,8.57-20.17-7.48-13.37-7.25-20.85c.28-9.09,5.89-9.06,6.34-13.79s-5.21-6.6-8.8-16,6.46-16.41,6.46-16.41,16.4.21,19,13.47c.32,1.65.68,4.39,1.06,7.94-7.09,30.13-16.78,63.47-16.78,63.47s4.58,18.86,9.27,41.58c4.28,20.73-62.77,36.07-91.42,30.42-4.72-3.76-7.68-8-8.08-12.09C229.66,339.53,316.46,358.91,323.19,332.73Z"/><path class="cls-25" d="M313.15,213.36l70,67.84a14.34,14.34,0,0,0,21.07-19.38L342.5,186.36a20,20,0,1,0-30.92,25.3A19.51,19.51,0,0,0,313.15,213.36Z"/><path class="cls-38" d="M173.87,554.6H308.59a20.8,20.8,0,0,0,19.92-26.81L292.32,407.66a4,4,0,0,0-3.81-2.83H231.59a4,4,0,1,0,0,8h54l35.33,117.3a12.83,12.83,0,0,1-12.29,16.54H173.87a4,4,0,1,0,0,8Z"/><path class="cls-20" d="M357.1,255.94l-15.44-15-1.8-2.19,35.73-11.71S375,248,357.1,255.94Z"/><path class="cls-37" d="M346.14,251.13l-33.59-36.49a24.8,24.8,0,0,1-1.83-2,21.31,21.31,0,1,1,33.13-26.8l31.09,37s2.84,5.66-6,15.77C357.88,251.3,346.14,251.13,346.14,251.13Z"/><path class="cls-39" d="M343.51,248.7c27.62-10.43,29.93-27.58,30-28.3a.68.68,0,0,0-.6-.75.67.67,0,0,0-.75.59c0,.17-2.37,17.07-29.12,27.17a.68.68,0,0,0,.45,1.29Z"/><path class="cls-40" d="M284.74,369.11s9.79,16.13,47.81,18.32c77.2,4.45,93.67-12.38,100.92-1.5,5,7.44-4.61,26.34-3.48,35.18s4.76,24.81,3.4,34.73-6.57,19-5.89,23.87,11,22.78,7.87,30.81c-1.32,3.4-2.53,6-4.27,7.75-3.93-1.48-6.59-3.66-6.53-6.5l2.35-119-150.24-.47c-.58,0-1.24,0-1.82-.06a29.58,29.58,0,0,1-6.84-1.31c0-.15,0-.29,0-.44A23.68,23.68,0,0,1,284.74,369.11Z"/><path class="cls-40" d="M387.87,400.63a4,4,0,0,0,3.95-3.5l9.61-77.51a20.81,20.81,0,0,0-20.65-23.37H293.62a4,4,0,1,0,0,8h87.16a12.84,12.84,0,0,1,12.74,14.42l-9.61,77.51a4,4,0,0,0,3.46,4.44A2.81,2.81,0,0,0,387.87,400.63Z"/><path class="cls-32" d="M293.62,306.21h87.16a6,6,0,0,0,0-11.95H293.62a6,6,0,1,0,0,11.95Z"/><path class="cls-41" d="M285.17,554.6H419.9a20.8,20.8,0,0,0,19.92-26.81L403.63,407.66a4,4,0,0,0-3.82-2.83H342.89a4,4,0,1,0,0,8h54l35.34,117.3a12.84,12.84,0,0,1-12.29,16.54H285.17a4,4,0,0,0,0,8Z"/><path class="cls-42" d="M208.1,392.69H382.33l4.15-33.45h12c0,.14,0,.27,0,.4l-4.1,33.05h16.16A5.51,5.51,0,0,1,416,398.2v.11a5.52,5.52,0,0,1-5.51,5.52H208.1a5.52,5.52,0,0,1-5.51-5.52v-.11A5.51,5.51,0,0,1,208.1,392.69Z"/><path class="cls-42" d="M179.63,302,163.4,201.62a11.29,11.29,0,0,1,11.15-13.09H275.39A11.29,11.29,0,0,1,286.54,198l16.82,104a31.21,31.21,0,0,1,.35,6.48l-4.81,95.38H187.05A11.3,11.3,0,0,1,175.77,392L180,308.45A30.54,30.54,0,0,0,179.63,302Z"/><path class="cls-43" d="M175.65,302,159.42,201.62a11.29,11.29,0,0,1,11.15-13.09H271.41A11.3,11.3,0,0,1,282.56,198l16.81,104a30.54,30.54,0,0,1,.36,6.48l-4.82,95.38H183.07A11.29,11.29,0,0,1,171.79,392L176,308.45A31.22,31.22,0,0,0,175.65,302Z"/><path class="cls-42" d="M299.31,316.71l-.1,2H175.49l.1-2ZM296,383.3l.1-2H172.33l-.1,2ZM160.62,209.06l.32,2H284.67l-.33-2Zm12.79,150.71-.1,2H297l.1-2Zm1.09-21.53-.1,2H298.12l.11-2ZM164.1,230.59l.32,2H288.15l-.32-2Zm3.49,21.53.32,2H291.63l-.32-2Zm7,43.06.32,2H298.6l-.32-2Zm-3.48-21.53.32,2H295.11l-.32-2Z"/><path class="cls-39" d="M377.19,297.38h2.27a.68.68,0,0,0,0-1.36h-2.27a.68.68,0,0,0,0,1.36Z"/><path class="cls-39" d="M361,297.38h11.93a.68.68,0,1,0,0-1.36H361a.68.68,0,0,0,0,1.36Z"/><path class="cls-39" d="M268,191.77h2.73a.68.68,0,0,0,0-1.36H268a.68.68,0,0,0,0,1.36Z"/><path class="cls-39" d="M250.81,191.77h14.05a.68.68,0,0,0,0-1.36H250.81a.68.68,0,0,0,0,1.36Z"/><path class="cls-44" d="M493.14,282l-.17-.09a3.87,3.87,0,0,0-.46-.24c-.31-.14-.91-.43-1.63-.71a37.21,37.21,0,0,0-5.41-1.73,23.28,23.28,0,0,0-2.86-.5,12.42,12.42,0,0,0-2.3-.07,5,5,0,0,0-.79.09,2.65,2.65,0,0,0-.53.12l-.4.13-.19.06a3.78,3.78,0,1,1-2.25-7.21,4.5,4.5,0,0,1,.69-.15l1.11-.12a7.75,7.75,0,0,1,1.21,0,9.48,9.48,0,0,1,1.47.1,19.41,19.41,0,0,1,3.32.68,30.12,30.12,0,0,1,3.41,1.22,44,44,0,0,1,5.8,3c.76.47,1.35.88,1.87,1.25a4.86,4.86,0,0,1,.49.37l.15.12a2.26,2.26,0,0,1-2.51,3.73Z"/><path class="cls-20" d="M478.45,272.19c-7.66.57-7.61,6.38-17.63,2.46,1.92.92,6,4.15,8.45,5,2.81.92,10.9-.91,10.9-.91Z"/><path class="cls-45" d="M477.18,285.87a1.8,1.8,0,0,1-1.69-1.19c-2.76-7.65,8.15-18,23.11-18,10.45,0,21.4,7.54,26,16.58a1.79,1.79,0,0,1-1.6,2.59Z"/><path class="cls-25" d="M511.72,272l-.35-.07c-.25-.05-.49-.07-1-.19s-1.12-.26-1.75-.46-1.35-.44-2.1-.75a42.09,42.09,0,0,1-4.73-2.45l-1.18-.64a4.53,4.53,0,0,0-.86-.37h0l.19.06h0l-.18,0s.15.06.1.06l-.51,0-1.29.16c-1.81.25-3.69.64-5.44,1l-4.79,1.15-3.37.93-1.26.39a4.55,4.55,0,1,1-2.67-8.69,4.47,4.47,0,0,1,1.25-.2h.05l4.95-.07,5.05-.12c1.86,0,3.83-.08,5.9-.07.51,0,1.05,0,1.61.05l.93.09a7.69,7.69,0,0,1,.81.14l.17.06.25.07.07,0,.14.07a9.88,9.88,0,0,1,1.63,1l1.15.85a22.37,22.37,0,0,0,3.91,2.42,11.46,11.46,0,0,0,1.6.65c.51.15.91.24,1.22.3a7.49,7.49,0,0,0,.9.13l.35,0a2.25,2.25,0,1,1-.49,4.47Z"/><path class="cls-25" d="M470,267.91a2.25,2.25,0,0,1-.48-4.45c6-1.3,23.55-6,23.72-6a2.31,2.31,0,0,1,1.25,0c2.48.77,17.63,1.4,19.52,1a2.21,2.21,0,0,1,2.82,1.39,2.29,2.29,0,0,1-1.43,2.88c-2.34.83-17.25.07-21.54-.79-3.08.82-17.78,4.72-23.38,5.93A2,2,0,0,1,470,267.91Z"/><path class="cls-25" d="M502.54,280.31l-.37,0-.63-.11a8.21,8.21,0,0,1-1-.31,10.27,10.27,0,0,1-1.73-.83A17.62,17.62,0,0,1,496,277a28.11,28.11,0,0,1-2.32-2.31c-.37-.4-.72-.81-1.06-1.23s-.67-.81-1-1.31h0l.94.84-10.69-5.25h0l2.08.27-9.21,2.87a3.76,3.76,0,0,1-2.24-7.18c.18-.05.39-.1.57-.13l9.54-1.41.47-.06a2.35,2.35,0,0,1,1.61.34h0L495,268.31l.23.13a2.1,2.1,0,0,1,.71.71h0c.2.33.49.74.76,1.11s.55.74.84,1.1a25.6,25.6,0,0,0,1.8,2.05,13.57,13.57,0,0,0,1.93,1.64,5.76,5.76,0,0,0,.94.54c.14.07.3.12.4.16l.11,0,.37.06a2.25,2.25,0,0,1-.55,4.46Z"/><path class="cls-25" d="M494.22,285l-.68-.38a7.86,7.86,0,0,1-.78-.49,17.73,17.73,0,0,1-1.5-1.11,26.08,26.08,0,0,1-2.47-2.46,33.32,33.32,0,0,1-2.07-2.7c-.32-.47-.62-.94-.92-1.42l-.43-.74-.44-.8h0l.95,1.09-10.37-6.25a3,3,0,0,1,3.1-5.14l.16.1,10,6.88.15.1a2.25,2.25,0,0,1,.8,1h0l.28.58.32.63c.22.42.45.83.7,1.24a27.36,27.36,0,0,0,1.58,2.34,19,19,0,0,0,1.82,2.05c.32.29.67.61.95.82a3.8,3.8,0,0,0,.51.37l.66.42a2.25,2.25,0,0,1-2.28,3.88Z"/><path class="cls-25" d="M460.82,274.65c13.39,5.73,14.42-1.27,22.44-.27l-7-11.3a27.39,27.39,0,0,1-12.31,0c-5.81-1.33-3.74,11.34-3.74,11.34a2.9,2.9,0,0,1,.67.24Z"/><polygon class="cls-25" points="396.57 257.36 463.92 263.08 469.27 279.62 393.53 285.72 396.57 257.36"/><g id="Cup"><path class="cls-46" d="M576.52,280.05a2.28,2.28,0,0,0,2.1-1.38,2.31,2.31,0,0,0-1.19-3.05c-12-5.23-15.49-12.44-13.68-17.26,1-2.68,3.42-4,5.84-3.23a2.31,2.31,0,1,0,1.4-4.4c-4.74-1.51-9.71,1.07-11.56,6-2.4,6.36.4,16.23,16.15,23.13A2.43,2.43,0,0,0,576.52,280.05Z"/><g class="cls-47"><path class="cls-48" d="M580.39,243.41c-5.45-11.76,18.25-24.27,17-33.75-1.93-14.5-25.24-28.12-33.82-41-6.64-9.94-5.07-56.72,39.19-53.16,34.13,2.74,38.86,33.47,40,40.32,2.73,16.32,32.14,14.86,37,30.08,9.64,29.91-22.47,35.51-46.2,40.31-29.46,6-25.1,14-25.09,17.08C602.09,244.16,580.39,243.41,580.39,243.41Z"/></g><path class="cls-49" d="M657.66,159.62a9.5,9.5,0,1,1-9.56-9.45A9.5,9.5,0,0,1,657.66,159.62Z"/><path class="cls-46" d="M601.92,286.45c11-12.53,10.88-42.82,10.88-42.82l-42.81.25s-.55,30.29,10.2,42.7Z"/></g><path class="cls-50" d="M574.23,95c-3-3.39-8.27-4.88-16.61-.07s-24.92,21.72-25,22.09.61,7.19,6.65,12.84,12.23,6.95,12.78,6.86,18.63-18.37,22.65-26.25S577.49,98.63,574.23,95Z"/><path class="cls-51" d="M575.49,103.58s0,3.81-6.13,11.32c-5.25,6.47-17.57,19.89-17.57,19.89s-2.78-.41-6.39-3.79c7.7-7.43,28.76-28,29.45-28.62S575.66,102.8,575.49,103.58Z"/><path class="cls-52" d="M569.66,94a91.8,91.8,0,0,0-13.33,8.19c-6.56,4.91-18.39,16.54-18.46,17.1s3.06,5.35,2.75,5.84a21.71,21.71,0,0,1-2,2,22.74,22.74,0,0,1-4.54-10c7-7.32,18.42-18.83,24.7-21.83S568.75,92.32,569.66,94Z"/><path class="cls-53" d="M570.68,97.07S542,123.83,541.83,123.76s-1.25-1.11-1.17-1.35,28.55-25.53,29.22-25.93S570.68,97.07,570.68,97.07Z"/><path class="cls-52" d="M570.33,92.69s-1.7-.09-.75,2.47c1.09,2.94,4.31,4.12,6.53,4.19C575.35,97.05,570.33,92.69,570.33,92.69Z"/><path class="cls-54" d="M577.71,88.83a4.82,4.82,0,0,0,3.08,4.28C580.94,92.32,578.67,89.16,577.71,88.83Z"/><path class="cls-55" d="M578.14,89.8a4.31,4.31,0,0,0,2,2.54c1.38-1.13,2.58-2.83,4.64-2.83,18.06,0,45.16,14.63,45.16,20.92V277a3.82,3.82,0,0,0,3.22,0V110.56c0-16.47-45.72-26.67-51.08-23.33C580.5,88.19,579.36,88.9,578.14,89.8Z"/><path class="cls-56" d="M570.33,92.69a5.77,5.77,0,0,0,1.61,4.07,9,9,0,0,0,4.17,2.59s4.49-5.41,4.68-6.24a5.1,5.1,0,0,1-.79-.46,4.63,4.63,0,0,1-2.1-2.75,4,4,0,0,1-.19-1.07C577.13,88.62,570.33,92.69,570.33,92.69Z"/><path class="cls-57" d="M657.32,284.44s-7.8-8.06-9.13-8.47-33.1-.42-34.32,0-8.16,7.64-8,8.47S648,285.41,657.32,284.44Z"/><path class="cls-58" d="M614.15,277c-.3.25-6.09,6.43-5.92,6.55s11.33.7,11.42.58.47-7.13.47-7.13S614.32,276.81,614.15,277Z"/><polygon class="cls-59" points="628.06 276.88 627.66 283.78 630.37 283.78 630.14 276.88 628.06 276.88"/><path class="cls-60" d="M647.59,276.88c.28.2,7.83,6.57,7.43,6.79s-14.17.33-14.4.11-1.27-7.15-.69-7.31S646.94,276.45,647.59,276.88Z"/><g class="cls-61"><path class="cls-56" d="M632.21,271.27a.47.47,0,0,0,.46-.46V113.32a.47.47,0,0,0-.46-.46.46.46,0,0,0-.46.46V270.81A.46.46,0,0,0,632.21,271.27Z"/></g><path class="cls-62" d="M578.14,92s-4.1,4.75-4.07,4.83a4,4,0,0,0,2,1.42c.09,0,3.59-4.91,3.53-5S578.14,92,578.14,92Z"/><polygon class="cls-54" points="577.39 89.55 577.38 90.04 570.99 93.73 570.75 92.69 577.39 89.55"/></g></g></svg>