<svg xmlns="http://www.w3.org/2000/svg" xmlns:xlink="http://www.w3.org/1999/xlink" viewBox="0 0 841.89 595.28"><defs><style>.cls-1{isolation:isolate;}.cls-2{fill:#081f36;}.cls-3{fill:#e4e4e4;}.cls-4{fill:#11213b;}.cls-5{fill:#eee;}.cls-6{fill:#c7c7c7;}.cls-7{fill:#051726;}.cls-8{fill:#c2fbff;}.cls-9{fill:#111214;}.cls-10{fill:#334d5c;}.cls-11{fill:#a6a6a6;}.cls-12{fill:#fff;}.cls-13{fill:#fb392e;}.cls-14{fill:#fecb15;}.cls-15{fill:#26a659;}.cls-16{fill:#e0e0e0;}.cls-17{fill:#e29616;}.cls-18{fill:#f19b0f;}.cls-19{fill:#17bb99;}.cls-20{fill:#fbdd82;}.cls-21{fill:#89c0c8;}.cls-22{fill:#38424d;}.cls-23{fill:#474e5e;}.cls-24{fill:#25b2c9;}.cls-25{fill:#0298ae;}.cls-26{fill:#dfb815;}.cls-27{fill:#f9392a;}.cls-28{fill:#f83a2a;}.cls-29{opacity:0.25;mix-blend-mode:screen;fill:url(#_ÂÁ_Ï_ÌÌ_È_ËÂÌÚ_8);}</style><linearGradient id="_ÂÁ_Ï_ÌÌ_È_ËÂÌÚ_8" x1="-1024.12" y1="138.97" x2="-1403.67" y2="467.48" gradientTransform="translate(1641.6)" gradientUnits="userSpaceOnUse"><stop offset="0" stop-color="#fff"/><stop offset="0.01" stop-color="#f8f8f8"/><stop offset="0.13" stop-color="#bfbfbf"/><stop offset="0.25" stop-color="#8c8c8c"/><stop offset="0.37" stop-color="#616161"/><stop offset="0.49" stop-color="#3e3e3e"/><stop offset="0.62" stop-color="#232323"/><stop offset="0.74" stop-color="#0f0f0f"/><stop offset="0.87" stop-color="#040404"/><stop offset="1"/></linearGradient></defs><title>1</title><g class="cls-1"><g id="Layer_1" data-name="Layer 1"><rect class="cls-2" x="489.15" y="505.86" width="35.23" height="2.37" transform="translate(1013.52 1014.08) rotate(180)"/><rect class="cls-2" x="85.1" y="505.86" width="35.23" height="2.37" transform="translate(205.43 1014.08) rotate(180)"/><rect class="cls-2" x="674.49" y="505.86" width="35.23" height="2.37" transform="translate(1384.22 1014.08) rotate(180)"/><path class="cls-3" d="M310.34,484.92H720.18a13.07,13.07,0,0,0,12.6-11.21l35.8-286.56a9.69,9.69,0,0,0-9.81-11.21H348.94a13.08,13.08,0,0,0-12.61,11.21L300.54,473.71A9.68,9.68,0,0,0,310.34,484.92Z"/><path class="cls-4" d="M305.27,484.92H715.11a13.07,13.07,0,0,0,12.6-11.21l35.8-286.56a9.69,9.69,0,0,0-9.81-11.21H343.86a13.07,13.07,0,0,0-12.6,11.21L295.47,473.71A9.68,9.68,0,0,0,305.27,484.92Z"/><polygon class="cls-2" points="295.46 473.71 727.71 473.71 729.06 462.95 296.81 462.95 295.46 473.71"/><polygon class="cls-2" points="329.91 197.91 762.16 197.91 763.5 187.15 331.26 187.15 329.91 197.91"/><path class="cls-2" d="M545.46,181.36a2.28,2.28,0,0,0,2.31,2.64,3.07,3.07,0,0,0,3-2.64,2.27,2.27,0,0,0-2.31-2.63A3.09,3.09,0,0,0,545.46,181.36Z"/><path class="cls-5" d="M70.21,489.71v2.39c0,7.6,3.59,13.76,8,13.76H713.51c4.42,0,8-6.16,8-13.76v-2.39Z"/><path class="cls-6" d="M492.21,489.71v2.39c0,7.6,3.27,13.76,7.3,13.76h214c4.42,0,8-6.16,8-13.76v-2.39Z"/><rect class="cls-7" x="521.53" y="493.78" width="15.91" height="8.01" transform="translate(1058.97 995.57) rotate(180)"/><rect class="cls-7" x="542.38" y="493.78" width="15.91" height="8.01" transform="translate(1100.68 995.57) rotate(180)"/><path class="cls-7" d="M671.05,498a4.24,4.24,0,1,0,4.24-4.24A4.24,4.24,0,0,0,671.05,498Z"/><rect class="cls-8" x="211.33" y="489.72" width="101.95" height="5.47" transform="translate(524.61 984.91) rotate(-180)"/><polygon class="cls-9" points="346.38 200.28 746.91 200.28 713.26 460.58 312.73 460.58 346.38 200.28"/><polygon class="cls-10" points="611.39 419.84 329.84 419.84 351.96 234.23 633.51 234.23 611.39 419.84"/><polygon class="cls-11" points="630.77 257.19 349.22 257.19 351.96 234.23 633.51 234.23 630.77 257.19"/><polygon class="cls-12" points="368.4 252.92 355.02 252.92 356.67 239.13 370.04 239.13 368.4 252.92"/><polygon class="cls-12" points="565.82 252.92 394.77 252.92 396.41 239.13 567.46 239.13 565.82 252.92"/><polygon points="363.71 249.57 359.81 245.97 364.57 242.35 363.71 249.57"/><polygon class="cls-12" points="374.16 252.92 387.55 252.92 389.2 239.13 375.8 239.13 374.16 252.92"/><polygon points="379.66 249.57 384.42 245.97 380.52 242.35 379.66 249.57"/><path class="cls-13" d="M588.94,245.85a6.76,6.76,0,0,1-6.47,5.93,5.08,5.08,0,0,1-5.06-5.93,6.78,6.78,0,0,1,6.48-5.94A5.09,5.09,0,0,1,588.94,245.85Z"/><path class="cls-14" d="M606.9,245.85a6.77,6.77,0,0,1-6.47,5.93,5.08,5.08,0,0,1-5-5.93,6.77,6.77,0,0,1,6.47-5.94A5.09,5.09,0,0,1,606.9,245.85Z"/><path class="cls-15" d="M624.85,245.85a6.75,6.75,0,0,1-6.45,5.93,5.09,5.09,0,0,1-5.07-5.93,6.77,6.77,0,0,1,6.48-5.94A5.08,5.08,0,0,1,624.85,245.85Z"/><polygon class="cls-16" points="364.26 408.78 361.09 408.78 377.87 267.98 381.04 267.98 364.26 408.78"/><polygon class="cls-16" points="369.22 277.77 363.94 277.77 364.59 272.34 369.87 272.34 369.22 277.77"/><polygon class="cls-16" points="367.8 289.7 362.52 289.7 363.17 284.26 368.45 284.26 367.8 289.7"/><polygon class="cls-16" points="366.38 301.62 361.1 301.62 361.75 296.17 367.03 296.17 366.38 301.62"/><polygon class="cls-16" points="364.96 313.55 359.68 313.55 360.33 308.09 365.61 308.09 364.96 313.55"/><polygon class="cls-16" points="363.54 325.45 358.26 325.45 358.91 320.02 364.19 320.02 363.54 325.45"/><polygon class="cls-16" points="362.12 337.38 356.84 337.38 357.49 331.94 362.77 331.94 362.12 337.38"/><polygon class="cls-16" points="360.7 349.3 355.42 349.3 356.07 343.86 361.35 343.86 360.7 349.3"/><polygon class="cls-16" points="359.28 361.22 354 361.22 354.65 355.78 359.93 355.78 359.28 361.22"/><polygon class="cls-16" points="357.86 373.15 352.58 373.15 353.23 367.7 358.51 367.7 357.86 373.15"/><polygon class="cls-16" points="356.44 385.07 351.16 385.07 351.81 379.62 357.09 379.62 356.44 385.07"/><polygon class="cls-16" points="355.02 396.98 349.74 396.98 350.39 391.55 355.67 391.55 355.02 396.98"/><path class="cls-12" d="M393.54,270.86l-4.33,4.22a.82.82,0,0,0-.13,1.06l3.24,3.94a.73.73,0,0,0,1,0,.92.92,0,0,0,.3-.56.69.69,0,0,0-.15-.52l-2.81-3.43,3.8-3.68a.94.94,0,0,0,.27-.52.78.78,0,0,0-.18-.57A.74.74,0,0,0,393.54,270.86Z"/><path class="cls-12" d="M411.68,270.82a.93.93,0,0,0-.31.57.76.76,0,0,0,.13.52l2.92,3.68L410.8,279a.84.84,0,0,0-.26.52.75.75,0,0,0,.15.56.74.74,0,0,0,1.05,0l4.17-3.94a.81.81,0,0,0,.13-1.06l-3.32-4.22A.72.72,0,0,0,411.68,270.82Z"/><path class="cls-12" d="M405.66,271.25l-8,7.49a.77.77,0,0,0-.12,1.08.71.71,0,0,0,1,0l8-7.48a.78.78,0,0,0,.12-1.07A.71.71,0,0,0,405.66,271.25Z"/><path class="cls-12" d="M378.17,399.86l-4.33,4.22a.81.81,0,0,0-.13,1.05l3.24,3.95a.72.72,0,0,0,1,0,.85.85,0,0,0,.29-.55.67.67,0,0,0-.14-.53s-2.16-2.64-2.81-3.42l3.8-3.69a1,1,0,0,0,.27-.52.75.75,0,0,0-.18-.56A.73.73,0,0,0,378.17,399.86Z"/><path class="cls-12" d="M396.31,399.83a.84.84,0,0,0-.31.56.74.74,0,0,0,.13.52l2.92,3.69L395.43,408a.89.89,0,0,0-.26.53.72.72,0,0,0,.15.55.73.73,0,0,0,1.05,0l4.17-3.95a.81.81,0,0,0,.13-1.05l-3.33-4.22A.71.71,0,0,0,396.31,399.83Z"/><path class="cls-12" d="M390.28,400.26l-8,7.49a.76.76,0,0,0-.12,1.07.7.7,0,0,0,1,0l8-7.48a.79.79,0,0,0,.12-1.08A.72.72,0,0,0,390.28,400.26Z"/><polygon class="cls-17" points="406.02 288.26 381.97 288.26 382.55 283.36 406.6 283.36 406.02 288.26"/><polygon class="cls-18" points="401.24 353.4 374.21 353.4 374.79 348.5 401.82 348.5 401.24 353.4"/><polygon class="cls-18" points="387.42 396.95 369.02 396.95 369.6 392.04 388.01 392.04 387.42 396.95"/><polygon class="cls-19" points="425.04 299.14 386.62 299.14 387.2 294.24 425.63 294.24 425.04 299.14"/><polygon class="cls-20" points="414.01 364.46 378.83 364.46 379.42 359.56 414.59 359.56 414.01 364.46"/><polygon class="cls-21" points="412.09 374.94 377.58 374.94 378.17 370.04 412.67 370.04 412.09 374.94"/><polygon class="cls-19" points="394.77 385.83 376.29 385.83 376.87 380.93 395.36 380.93 394.77 385.83"/><polygon class="cls-20" points="477.89 385.83 399.18 385.83 399.77 380.93 478.47 380.93 477.89 385.83"/><polygon class="cls-20" points="473.38 374.94 416.14 374.94 416.72 370.04 473.96 370.04 473.38 374.94"/><polygon class="cls-17" points="496.26 374.94 477.77 374.94 478.36 370.04 496.85 370.04 496.26 374.94"/><polygon class="cls-21" points="542.54 364.46 505.79 364.46 506.37 359.56 543.12 359.56 542.54 364.46"/><polygon class="cls-19" points="501.17 364.46 417.74 364.46 418.33 359.56 501.75 359.56 501.17 364.46"/><polygon class="cls-20" points="451.06 299.14 429.01 299.14 429.6 294.24 451.64 294.24 451.06 299.14"/><polygon class="cls-20" points="409.39 321.19 383.99 321.19 384.57 316.29 409.98 316.29 409.39 321.19"/><polygon class="cls-19" points="454.79 321.16 413.53 321.2 414.11 316.3 455.36 316.26 454.79 321.16"/><polygon class="cls-21" points="494.51 299.14 455.03 299.14 455.61 294.24 495.1 294.24 494.51 299.14"/><polygon class="cls-21" points="429.07 310.3 385.29 310.3 385.87 305.4 429.66 305.4 429.07 310.3"/><polygon class="cls-17" points="476.42 310.3 433.59 310.3 434.18 305.4 477 305.4 476.42 310.3"/><polygon class="cls-19" points="510.61 310.3 480.67 310.3 481.25 305.4 511.19 305.4 510.61 310.3"/><polygon class="cls-21" points="434.59 332.07 382.69 332.07 383.28 327.18 435.17 327.18 434.59 332.07"/><polygon class="cls-20" points="466.25 332.07 438.56 332.07 439.15 327.18 466.84 327.18 466.25 332.07"/><polygon class="cls-19" points="433.35 342.42 381.46 342.42 382.04 337.52 433.94 337.52 433.35 342.42"/><polygon class="cls-21" points="485.45 342.42 437.33 342.42 437.92 337.52 486.04 337.52 485.45 342.42"/><polygon class="cls-19" points="524.57 332.07 470.86 332.07 471.44 327.18 525.15 327.18 524.57 332.07"/><polygon class="cls-19" points="423.04 288.26 410.63 288.26 411.21 283.36 423.62 283.36 423.04 288.26"/><polygon class="cls-22" points="714.67 430.04 521.19 430.04 536.39 302.5 729.87 302.5 714.67 430.04"/><polygon class="cls-23" points="727.99 318.27 534.51 318.27 536.39 302.5 729.87 302.5 727.99 318.27"/><path class="cls-13" d="M550.27,310.48a4.66,4.66,0,0,1-4.44,4.08,3.51,3.51,0,0,1-3.48-4.08,4.67,4.67,0,0,1,4.45-4.09A3.5,3.5,0,0,1,550.27,310.48Z"/><path class="cls-14" d="M562.62,310.48a4.66,4.66,0,0,1-4.45,4.08,3.49,3.49,0,0,1-3.47-4.08,4.65,4.65,0,0,1,4.45-4.09A3.5,3.5,0,0,1,562.62,310.48Z"/><path class="cls-24" d="M575,310.48a4.65,4.65,0,0,1-4.44,4.08,3.49,3.49,0,0,1-3.47-4.08,4.65,4.65,0,0,1,4.44-4.09A3.5,3.5,0,0,1,575,310.48Z"/><polygon class="cls-17" points="560.99 339.62 544.48 339.62 544.88 336.26 561.39 336.26 560.99 339.62"/><polygon class="cls-18" points="557.72 384.38 539.14 384.38 539.54 381.01 558.12 381.01 557.72 384.38"/><polygon class="cls-18" points="549.25 405.76 536.6 405.76 537 402.39 549.65 402.39 549.25 405.76"/><polygon class="cls-25" points="574.08 347.1 547.67 347.1 548.07 343.73 574.48 343.73 574.08 347.1"/><polygon class="cls-26" points="566.49 391.98 542.32 391.98 542.72 388.62 566.89 388.62 566.49 391.98"/><polygon class="cls-12" points="565.18 399.19 541.46 399.19 541.86 395.82 565.58 395.82 565.18 399.19"/><polygon class="cls-26" points="607.28 399.19 567.96 399.19 568.36 395.82 607.68 395.82 607.28 399.19"/><polygon class="cls-27" points="623.01 399.19 610.3 399.19 610.71 395.82 623.42 395.82 623.01 399.19"/><polygon class="cls-12" points="654.83 391.98 629.55 391.98 629.95 388.62 655.23 388.62 654.83 391.98"/><polygon class="cls-25" points="626.38 391.98 569.07 391.98 569.47 388.62 626.78 388.62 626.38 391.98"/><polygon class="cls-26" points="591.96 347.1 576.8 347.1 577.2 343.73 592.36 343.73 591.96 347.1"/><polygon class="cls-26" points="563.32 362.25 545.86 362.25 546.26 358.89 563.72 358.89 563.32 362.25"/><polygon class="cls-25" points="594.51 362.24 566.16 362.26 566.56 358.89 594.91 358.87 594.51 362.24"/><polygon class="cls-12" points="621.8 347.1 594.68 347.1 595.08 343.73 622.21 343.73 621.8 347.1"/><polygon class="cls-28" points="576.84 354.76 546.75 354.76 547.15 351.4 577.24 351.4 576.84 354.76"/><polygon class="cls-17" points="609.38 354.76 579.95 354.76 580.35 351.4 609.78 351.4 609.38 354.76"/><polygon class="cls-25" points="632.88 354.76 612.3 354.76 612.71 351.4 633.28 351.4 632.88 354.76"/><polygon class="cls-28" points="580.63 369.73 544.97 369.73 545.37 366.36 581.04 366.36 580.63 369.73"/><polygon class="cls-26" points="602.39 369.73 583.37 369.73 583.77 366.36 602.79 366.36 602.39 369.73"/><polygon class="cls-25" points="579.79 376.83 544.12 376.83 544.52 373.48 580.19 373.48 579.79 376.83"/><polygon class="cls-12" points="615.58 376.83 582.52 376.83 582.92 373.48 615.98 373.48 615.58 376.83"/><polygon class="cls-25" points="642.47 369.73 605.55 369.73 605.96 366.36 642.87 366.36 642.47 369.73"/><polygon class="cls-26" points="572.71 339.62 564.17 339.62 564.57 336.26 573.11 336.26 572.71 339.62"/><polygon class="cls-29" points="746.91 200.28 312.06 460.58 346.38 200.28 746.91 200.28"/></g></g></svg>