<?xml version="1.0" encoding="UTF-8" standalone="no"?>
<!-- Created with Inkscape (http://www.inkscape.org/) -->

<svg
   xmlns:dc="http://purl.org/dc/elements/1.1/"
   xmlns:cc="http://creativecommons.org/ns#"
   xmlns:rdf="http://www.w3.org/1999/02/22-rdf-syntax-ns#"
   xmlns:svg="http://www.w3.org/2000/svg"
   xmlns="http://www.w3.org/2000/svg"
   xmlns:sodipodi="http://sodipodi.sourceforge.net/DTD/sodipodi-0.dtd"
   xmlns:inkscape="http://www.inkscape.org/namespaces/inkscape"
   id="svg8"
   version="1.1"
   viewBox="0 0 210 297"
   height="297mm"
   width="210mm"
   inkscape:version="0.92.3 (2405546, 2018-03-11)"
   sodipodi:docname="math.svg">
  <sodipodi:namedview
     inkscape:measure-end="0,0"
     inkscape:measure-start="0,0"
     inkscape:window-maximized="1"
     inkscape:window-y="55"
     inkscape:window-x="0"
     inkscape:window-height="1903"
     inkscape:window-width="3840"
     showgrid="false"
     inkscape:current-layer="layer1"
     inkscape:document-units="mm"
     inkscape:cy="579.99211"
     inkscape:cx="307.64392"
     inkscape:zoom="1.4"
     inkscape:pageshadow="2"
     inkscape:pageopacity="0.0"
     borderopacity="1.0"
     bordercolor="#666666"
     pagecolor="#ffffff"
     id="base" />
  <defs
     id="defs2" />
  <metadata
     id="metadata5">
    <rdf:RDF>
      <cc:Work
         rdf:about="">
        <dc:format>image/svg+xml</dc:format>
        <dc:type
           rdf:resource="http://purl.org/dc/dcmitype/StillImage" />
        <dc:title></dc:title>
      </cc:Work>
    </rdf:RDF>
  </metadata>
  <g
     id="layer1"
     inkscape:groupmode="layer"
     inkscape:label="Layer 1">
    <path
       id="path3732"
       style="fill:none;fill-opacity:1;stroke:#000000;stroke-width:0.26458332;stroke-linecap:butt;stroke-linejoin:miter;stroke-opacity:1"
       d="m 111.41768,281.67768 3.5052,-5.60949 3.5052,-5.60948 v -6.61459 l 1.82322,-6.35834 3.5052,-5.60949 m -5.32842,18.58242 4.91559,-4.42602 3.50519,-5.60949 1.82323,-6.35834 m -10.24401,16.39385 3.50519,-5.60949 3.5052,-5.60948 v -6.61459 l 1.82322,-6.35834 3.5052,-5.60949 m -5.32842,18.58242 4.91559,-4.42602 3.50519,-5.60949 1.82323,-6.35834 m -10.24401,16.39385 v -6.61459 -6.61458 l -3.5052,-5.60948 -1.82323,-6.35835 v -6.61458 m 5.32843,18.58241 1.82322,-6.35835 v -6.61458 l -1.82322,-6.35834 m 0,19.33127 1.82322,-6.35835 1.82323,-6.35834 -1.82323,-6.35835 v -6.61458 l 1.82323,-6.35835 m 0,19.33128 3.50519,-5.60949 1.82323,-6.35834 v -6.61458 m -5.32842,18.58241 3.50519,-5.60949 3.5052,-5.60948 v -6.61458 l 1.82322,-6.35835 3.5052,-5.60948 m -5.32842,18.58241 4.91559,-4.42602 3.5052,-5.60949 1.82322,-6.35834 m -20.90085,53.55868 4.91559,-4.42602 4.91559,-4.42602 1.82323,-6.35835 3.50519,-5.60948 4.9156,-4.42602 m -10.24402,16.39385 5.94515,-2.89965 4.91559,-4.42602 3.5052,-5.60948 m -14.36594,12.93515 3.5052,-5.60949 3.50519,-5.60948 v -6.61459 l 1.82323,-6.35834 3.50519,-5.60949 m -5.32842,18.58242 4.9156,-4.42602 3.50519,-5.60949 1.82323,-6.35834 m -10.24402,16.39385 1.82323,-6.35835 1.82323,-6.35834 -1.82323,-6.35835 v -6.61458 l 1.82323,-6.35835 m 0,19.33128 3.50519,-5.60949 1.82323,-6.35834 v -6.61459 m -25.81645,51.37012 3.50519,-5.60949 3.5052,-5.60948 v -6.61459 l 1.82322,-6.35834 3.5052,-5.60949 m -5.32842,18.58242 4.91559,-4.42602 3.50519,-5.60949 1.82323,-6.35834 m -10.24401,16.39385 3.50519,-5.60949 3.5052,-5.60948 v -6.61459 l 1.82322,-6.35834 3.5052,-5.60949 m -5.32842,18.58242 4.91559,-4.42602 3.50519,-5.60949 1.82323,-6.35834 m -10.24401,16.39385 v -6.61459 -6.61458 l -3.5052,-5.60948 -1.82323,-6.35835 v -6.61458 m 5.32843,18.58241 1.82322,-6.35834 v -6.61459 l -1.82322,-6.35834 m 0,19.33127 1.82322,-6.35834 1.82323,-6.35835 -1.82323,-6.35835 v -6.61458 l 1.82323,-6.35834 m 0,19.33127 3.50519,-5.60948 1.82323,-6.35835 v -6.61458 m -5.32842,18.58241 3.50519,-5.60948 3.5052,-5.60949 v -6.61458 l 1.82323,-6.35835 3.50519,-5.60948 m -5.32842,18.58241 4.9156,-4.42602 3.50519,-5.60948 1.82323,-6.35835 m -20.90086,53.55868 4.91559,-4.42602 4.9156,-4.42602 1.82322,-6.35835 3.5052,-5.60948 4.91559,-4.42602 m -10.24401,16.39385 5.94514,-2.89964 4.9156,-4.42602 3.50519,-5.60949 m -14.36593,12.93515 3.50519,-5.60949 3.5052,-5.60948 v -6.61459 l 1.82322,-6.35834 3.5052,-5.60949 m -5.32842,18.58242 4.91559,-4.42602 3.5052,-5.60949 1.82322,-6.35834 m -10.24401,16.39385 1.82322,-6.35835 1.82323,-6.35834 -1.82323,-6.35835 v -6.61458 l 1.82323,-6.35835 m 0,19.33128 3.50519,-5.60949 1.82323,-6.35834 v -6.61459 m -25.81645,51.37012 v -6.61459 -6.61458 l -3.5052,-5.60948 -1.82323,-6.35835 v -6.61458 m 5.32843,18.58241 1.82322,-6.35834 v -6.61459 l -1.82322,-6.35834 m 0,19.33127 v -6.61458 -6.61459 l -3.5052,-5.60948 -1.82323,-6.35835 v -6.61458 m 5.32843,18.58241 1.82322,-6.35834 v -6.61458 l -1.82322,-6.35835 m 0,19.33127 -3.5052,-5.60948 -3.50519,-5.60948 -5.94515,-2.89965 -4.9156,-4.42602 -3.50519,-5.60948 m 14.36594,12.93515 -1.82323,-6.35835 -3.5052,-5.60949 -4.91559,-4.42602 m 10.24402,16.39386 -1.82323,-6.35835 -1.82323,-6.35835 -4.91559,-4.42602 -3.5052,-5.60948 -1.82322,-6.35835 m 10.24401,16.39385 v -6.61458 l -1.82322,-6.35835 -3.5052,-5.60948 m 5.32842,18.58241 v -6.61458 -6.61458 l -3.50519,-5.60949 -1.82323,-6.35834 v -6.61459 m 5.32842,18.58242 1.82323,-6.35835 v -6.61458 l -1.82323,-6.35835 m 10.65685,56.4961 1.82322,-6.35834 1.82323,-6.35835 -1.82323,-6.35834 v -6.61459 l 1.82323,-6.35834 m 0,19.33127 3.50519,-5.60948 1.82323,-6.35835 v -6.61458 m -5.32842,18.58241 v -6.61458 -6.61458 l -3.5052,-5.60949 -1.82322,-6.35834 v -6.61459 m 5.32842,18.58242 1.82322,-6.35835 v -6.61458 l -1.82322,-6.35835 m 0,19.33128 -1.82323,-6.35835 -1.82322,-6.35834 -4.9156,-4.42602 -3.50519,-5.60949 -1.82323,-6.35834 m 10.24402,16.39385 v -6.61459 l -1.82323,-6.35834 -3.5052,-5.60949 m 5.32843,57.24496 1.82322,-6.35834 1.82323,-6.35835 -1.82323,-6.35834 v -6.61459 l 1.82323,-6.35834 m 0,19.33127 3.50519,-5.60948 1.82323,-6.35835 v -6.61458 m -5.32842,18.58241 1.82322,-6.35834 1.82323,-6.35835 -1.82323,-6.35834 v -6.61459 l 1.82323,-6.35834 m 0,19.33127 3.5052,-5.60948 1.82323,-6.35835 v -6.61458 m -5.32843,18.58241 -1.82323,-6.35834 -1.82322,-6.35835 -4.91559,-4.42602 -3.5052,-5.60948 -1.82323,-6.35835 m 10.24402,16.39385 v -6.61458 l -1.82323,-6.35835 -3.50519,-5.60948 m 5.32842,18.58241 v -6.61458 -6.61459 l -3.5052,-5.60948 -1.82322,-6.35835 v -6.61458 m 5.32842,18.58241 1.82322,-6.35834 v -6.61458 l -1.82322,-6.35835 m 0,19.33127 1.82322,-6.35834 1.82323,-6.35835 -1.82323,-6.35834 v -6.61459 l 1.82323,-6.35834 m 0,19.33127 3.5052,-5.60948 1.82323,-6.35835 v -6.61458 m -5.32843,57.24496 3.5052,-5.60948 3.50519,-5.60949 v -6.61458 l 1.82323,-6.35835 3.5052,-5.60948 m -5.32843,18.58241 4.9156,-4.42602 3.50519,-5.60948 1.82323,-6.35835 m -10.24402,16.39385 1.82323,-6.35834 1.82323,-6.35835 -1.82323,-6.35834 v -6.61459 l 1.82323,-6.35834 m 0,19.33127 3.50519,-5.60948 1.82323,-6.35835 v -6.61458 m -5.32842,18.58241 v -6.61458 -6.61459 l -3.5052,-5.60948 -1.82322,-6.35835 v -6.61458 m 5.32842,18.58241 1.82322,-6.35834 v -6.61458 l -1.82322,-6.35835 m -10.65685,56.4961 3.5052,-5.60948 3.50519,-5.60949 v -6.61458 l 1.82323,-6.35835 3.5052,-5.60948 m -5.32843,18.58241 4.9156,-4.42602 3.50519,-5.60948 1.82323,-6.35835 m -10.24402,16.39385 3.5052,-5.60948 3.5052,-5.60949 v -6.61458 l 1.82322,-6.35835 3.5052,-5.60948 m -5.32842,18.58241 4.91559,-4.42602 3.50519,-5.60948 1.82323,-6.35835 m -10.24401,16.39385 v -6.61458 -6.61458 l -3.5052,-5.60949 -1.82323,-6.35834 v -6.61459 m 5.32843,18.58242 1.82322,-6.35835 v -6.61458 l -1.82322,-6.35835 m 0,19.33128 1.82322,-6.35835 1.82323,-6.35834 -1.82323,-6.35835 v -6.61458 l 1.82323,-6.35835 m 0,19.33128 3.50519,-5.60949 1.82323,-6.35835 v -6.61458 m -5.32842,18.58242 3.50519,-5.60949 3.5052,-5.60948 v -6.61459 l 1.82322,-6.35834 3.5052,-5.60949 m -5.32842,18.58242 4.91559,-4.42602 3.5052,-5.60949 1.82322,-6.35835 m -20.90085,53.55868 4.91559,-4.42602 4.91559,-4.42602 1.82323,-6.35834 3.50519,-5.60949 4.9156,-4.42602 m -10.24402,16.39385 5.94515,-2.89964 4.91559,-4.42602 3.5052,-5.60948 m -14.36594,12.93514 3.5052,-5.60948 3.50519,-5.60949 v -6.61458 l 1.82323,-6.35835 3.50519,-5.60948 m -5.32842,18.58241 4.9156,-4.42602 3.50519,-5.60948 1.82323,-6.35835 m -10.24402,16.39385 1.82323,-6.35834 1.82322,-6.35835 -1.82322,-6.35834 v -6.61459 l 1.82322,-6.35834 m 0,19.33127 3.5052,-5.60948 1.82323,-6.35835 v -6.61458 m -47.13014,125.69977 4.91559,-4.42602 4.9156,-4.42602 1.82322,-6.35835 3.5052,-5.60948 4.91559,-4.42602 m -10.24401,16.39385 5.94514,-2.89964 4.9156,-4.42602 3.50519,-5.60949 m -14.36593,12.93515 4.91559,-4.42602 4.91559,-4.42602 1.82323,-6.35835 3.50519,-5.60948 4.9156,-4.42602 m -10.24402,16.39385 5.94515,-2.89965 4.91559,-4.42602 3.5052,-5.60948 m -14.36594,12.93515 1.82323,-6.35835 1.82323,-6.35834 -1.82323,-6.35835 v -6.61458 l 1.82323,-6.35835 m 0,19.33128 3.50519,-5.60949 1.82323,-6.35834 v -6.61459 m -5.32842,18.58242 3.50519,-5.60949 3.5052,-5.60948 v -6.61459 l 1.82322,-6.35834 3.5052,-5.60949 m -5.32842,18.58242 4.91559,-4.42602 3.50519,-5.60949 1.82323,-6.35834 m -10.24401,16.39385 4.91559,-4.42602 4.91559,-4.42602 1.82323,-6.35835 3.50519,-5.60948 4.9156,-4.42602 m -10.24402,16.39385 5.94515,-2.89965 4.91559,-4.42602 3.5052,-5.60948 m -34.85397,45.72285 5.94515,-2.89965 5.94515,-2.89964 3.50519,-5.60948 4.9156,-4.42602 5.94515,-2.89964 m -14.36594,12.93514 6.51409,-1.14861 5.94515,-2.89964 4.91559,-4.42602 m -17.37483,8.47427 4.91559,-4.42602 4.9156,-4.42602 1.82322,-6.35834 3.5052,-5.60949 4.91559,-4.42602 m -10.24401,16.39385 5.94514,-2.89964 4.9156,-4.42602 3.50519,-5.60949 m -14.36593,12.93515 3.50519,-5.60948 3.5052,-5.60949 v -6.61458 l 1.82322,-6.35835 3.5052,-5.60948 m -5.32842,18.58241 4.91559,-4.42602 3.50519,-5.60948 1.82323,-6.35835 m -38.97589,42.26415 3.5052,-5.60949 3.50519,-5.60948 v -6.61459 l 1.82323,-6.35834 3.50519,-5.60949 m -5.32842,18.58242 4.9156,-4.42602 3.50519,-5.60949 1.82323,-6.35834 m -10.24402,16.39385 3.5052,-5.60949 3.50519,-5.60948 v -6.61459 l 1.82323,-6.35834 3.50519,-5.60949 m -5.32842,18.58242 4.9156,-4.42602 3.50519,-5.60949 1.82323,-6.35834 m -10.24402,16.39385 v -6.61459 -6.61458 l -3.50519,-5.60948 -1.82323,-6.35835 v -6.61458 m 5.32842,18.58241 1.82323,-6.35834 v -6.61459 l -1.82323,-6.35834 m 0,19.33127 1.82323,-6.35834 1.82323,-6.35835 -1.82323,-6.35835 v -6.61458 l 1.82323,-6.35834 m 0,19.33127 3.50519,-5.60948 1.82323,-6.35835 v -6.61458 m -5.32842,18.58241 3.50519,-5.60948 3.5052,-5.60949 v -6.61458 l 1.82322,-6.35835 3.5052,-5.60948 m -5.32842,18.58241 4.91559,-4.42602 3.50519,-5.60948 1.82323,-6.35835 m -20.90086,53.55868 4.9156,-4.42602 4.91559,-4.42602 1.82323,-6.35835 3.50519,-5.60948 4.9156,-4.42602 m -10.24402,16.39385 5.94515,-2.89964 4.91559,-4.42602 3.5052,-5.60949 m -14.36594,12.93515 3.5052,-5.60949 3.50519,-5.60948 v -6.61459 l 1.82323,-6.35834 3.50519,-5.60949 m -5.32842,18.58242 4.91559,-4.42602 3.5052,-5.60949 1.82323,-6.35834 m -10.24402,16.39385 1.82323,-6.35835 1.82322,-6.35834 -1.82322,-6.35835 v -6.61458 l 1.82322,-6.35835 m 0,19.33128 3.5052,-5.60949 1.82322,-6.35834 v -6.61459 m -25.81645,51.37012 1.82323,-6.35835 1.82323,-6.35834 -1.82323,-6.35835 v -6.61458 l 1.82323,-6.35835 m 0,19.33128 3.50519,-5.60949 1.82323,-6.35834 v -6.61459 m -5.32842,18.58242 1.82322,-6.35835 1.82323,-6.35834 -1.82323,-6.35835 v -6.61458 l 1.82323,-6.35835 m 0,19.33128 3.50519,-5.60949 1.82323,-6.35834 v -6.61459 m -5.32842,18.58242 -1.82323,-6.35835 -1.82322,-6.35835 -4.9156,-4.42602 -3.50519,-5.60948 -1.82323,-6.35835 m 10.24402,16.39385 v -6.61458 l -1.82323,-6.35834 -3.5052,-5.60949 m 5.32843,18.58241 v -6.61458 -6.61458 l -3.5052,-5.60949 -1.82323,-6.35834 v -6.61459 m 5.32843,18.58242 1.82322,-6.35835 v -6.61458 l -1.82322,-6.35835 m 0,19.33128 1.82322,-6.35835 1.82323,-6.35834 -1.82323,-6.35835 v -6.61458 l 1.82323,-6.35835 m 0,19.33128 3.50519,-5.60949 1.82323,-6.35834 v -6.61459 m -5.32842,57.24497 3.50519,-5.60949 3.5052,-5.60948 v -6.61459 l 1.82323,-6.35834 3.50519,-5.60949 m -5.32842,18.58242 4.91559,-4.42602 3.5052,-5.60949 1.82322,-6.35834 m -10.24401,16.39385 1.82323,-6.35835 1.82322,-6.35834 -1.82322,-6.35835 v -6.61458 l 1.82322,-6.35835 m 0,19.33128 3.5052,-5.60949 1.82322,-6.35835 v -6.61458 m -5.32842,18.58242 v -6.61459 -6.61458 l -3.50519,-5.60949 -1.82323,-6.35834 v -6.61459 m 5.32842,18.58242 1.82323,-6.35835 v -6.61458 l -1.82323,-6.35835"
       inkscape:connector-curvature="0" />
    <rect
       style="opacity:0;fill:#000000;fill-opacity:1;stroke-width:0.26458332"
       id="rect5152"
       width="34.773811"
       height="36.85268"
       x="272.52084"
       y="39.976181" />
    <rect
       style="opacity:0;fill:#000000;fill-opacity:1;stroke-width:0.26458332"
       id="rect5154"
       width="27.403269"
       height="16.252979"
       x="307.29465"
       y="76.82885" />
    <rect
       style="opacity:0;fill:#000000;fill-opacity:1;stroke-width:0.26458332"
       id="rect5156"
       width="123.59823"
       height="49.136909"
       x="195.79166"
       y="34.306541" />
    <rect
       style="opacity:0;fill:#916f6f;fill-opacity:1;stroke-width:0.26458332"
       id="rect5158"
       width="31.938988"
       height="39.309525"
       x="202.02826"
       y="87.412193" />
    <rect
       style="opacity:0;fill:#cccccc;fill-opacity:1;stroke-width:0.1;stroke-miterlimit:4;stroke-dasharray:none"
       id="rect5160"
       width="48.569939"
       height="18.331844"
       x="237.74701"
       y="104.7991" />
    <rect
       style="opacity:0;fill:#cccccc;fill-opacity:1;stroke-width:0.1;stroke-miterlimit:4;stroke-dasharray:none;stroke:#005500;stroke-opacity:1"
       id="rect5162"
       width="43.278275"
       height="33.261906"
       x="246.62947"
       y="39.976181" />
    <path
       id="path5372"
       title="1+0.2*sin(3*x)*sin(100.0/7.0*x)"
       d="m 145.33182,82.152189 c -0.34216,-0.577015 -0.75133,-1.132749 -0.96605,-1.684557 -0.21472,-0.551808 -0.221,-1.103227 0.0675,-1.699852 0.28855,-0.596624 0.87243,-1.243093 1.56801,-1.949166 0.69559,-0.706072 1.48887,-1.472487 2.04821,-2.232953 0.55934,-0.760465 0.86613,-1.509882 0.69215,-2.141067 -0.17399,-0.631186 -0.83828,-1.136662 -1.92566,-1.462526 -1.08737,-0.325864 -2.59101,-0.468705 -4.16411,-0.50294 -1.5731,-0.03423 -3.19705,0.03545 -4.46582,0.02646 -1.26877,-0.009 -2.165,-0.107115 -2.49424,-0.465396 -0.32925,-0.35828 -0.0874,-0.985418 0.57847,-1.903439 0.66586,-0.91802 1.74422,-2.126699 2.84675,-3.454015 1.10253,-1.327315 2.21068,-2.763252 2.95044,-4.03842 0.73976,-1.275167 1.0985,-2.376483 0.94689,-3.117105 -0.1516,-0.740623 -0.8124,-1.113984 -1.81518,-1.149156 -1.00278,-0.03517 -2.33498,0.262804 -3.67876,0.665901 -1.34378,0.403096 -2.68528,0.898282 -3.78025,1.220022 -1.09496,0.32174 -1.93814,0.458913 -2.49947,0.297095 -0.56133,-0.161817 -0.84667,-0.623165 -1.01181,-1.274197 -0.16513,-0.651032 -0.22114,-1.48114 -0.35746,-2.255996 -0.13633,-0.774857 -0.36021,-1.481004 -0.74766,-1.956241 -0.38744,-0.475237 -0.93684,-0.714193 -1.57675,-0.76523 -0.63991,-0.05104 -1.36231,0.07816 -2.03603,0.162886 -0.67373,0.08472 -1.29157,0.109537 -1.78571,-0.138513 -0.49414,-0.24805 -0.864,-0.780169 -1.15961,-1.599323 -0.29561,-0.819154 -0.52292,-1.922719 -0.79828,-3.057013 -0.27536,-1.134295 -0.60578,-2.28332 -1.06946,-3.094687 -0.46367,-0.811368 -1.06273,-1.266509 -1.7723,-1.172979 -0.70957,0.09353 -1.52545,0.743334 -2.34703,1.812408 -0.82158,1.069073 -1.64236,2.547825 -2.37661,4.024889 -0.73424,1.477064 -1.379,2.931662 -1.93572,3.933701 -0.55671,1.00204 -1.02852,1.533773 -1.49556,1.43012 -0.46704,-0.103654 -0.93565,-0.845137 -1.48519,-2.011449 -0.54954,-1.166312 -1.18384,-2.743091 -1.90322,-4.277791 -0.71939,-1.534699 -1.52163,-3.006418 -2.32192,-4.016863 -0.80028,-1.010445 -1.5921,-1.546658 -2.27867,-1.509665 -0.68658,0.03699 -1.2628,0.643956 -1.70859,1.588642 -0.44579,0.944687 -0.76209,2.211288 -1.02955,3.426329 -0.267469,1.215041 -0.492559,2.362472 -0.790299,3.192041 -0.29775,0.829568 -0.67458,1.336622 -1.17762,1.542193 -0.50303,0.205572 -1.1327,0.118876 -1.8208,-0.0305 -0.6881,-0.149377 -1.42799,-0.346358 -2.09247,-0.361055 -0.66449,-0.0147 -1.24509,0.161881 -1.67531,0.573887 -0.43023,0.412007 -0.70739,1.055651 -0.90637,1.765421 -0.19898,0.709769 -0.32643,1.472477 -0.55979,2.059957 -0.23336,0.58748 -0.58445,0.987647 -1.18926,1.105326 -0.60481,0.117679 -1.47107,-0.04874 -2.55268,-0.371879 -1.08162,-0.323139 -2.37493,-0.792943 -3.63691,-1.144231 -1.26198,-0.351288 -2.47848,-0.569934 -3.35552,-0.445226 -0.87704,0.124707 -1.39937,0.600608 -1.43755,1.430342 -0.0382,0.829734 0.41284,2.00956 1.19193,3.331635 0.7791,1.322075 1.87637,2.774483 2.91134,4.083964 1.03498,1.309482 1.98883,2.464988 2.49818,3.309179 0.50935,0.844191 0.55939,1.374518 0.0472,1.63703 -0.51221,0.262512 -1.5869,0.263909 -2.99004,0.195185 -1.40313,-0.06872 -3.12005,-0.197628 -4.73045,-0.197397 -1.6104,2.3e-4 -3.09509,0.135202 -4.12351,0.4723 -1.02842,0.337098 -1.5904,0.874333 -1.65272,1.543723 -0.0623,0.66939 0.36935,1.464341 1.03612,2.265066 0.66676,0.800726 1.55206,1.602107 2.31213,2.332014 0.76007,0.729907 1.38033,1.388574 1.68379,1.987145 0.30346,0.598571 0.28858,1.141363 0.0548,1.679871 -0.23379,0.538507 -0.67407,1.076376 -1.05331,1.638158 -0.37923,0.561783 -0.68091,1.14679 -0.70521,1.729366 -0.0243,0.582576 0.23627,1.158508 0.73693,1.692383 0.50067,0.533875 1.23368,1.02246 1.93187,1.479472 0.69818,0.457013 1.34399,0.884156 1.65558,1.355069 0.31159,0.470913 0.27477,0.99169 -0.17148,1.635261 -0.44625,0.643572 -1.30174,1.415322 -2.32624,2.302552 -1.0245,0.88723 -2.20287,1.889123 -3.13738,2.879074 -0.9345,0.98995 -1.60548,1.96007 -1.72778,2.741115 -0.12231,0.781045 0.31448,1.363297 1.27989,1.665031 0.9654,0.301734 2.45348,0.319102 4.1286,0.146285 1.67513,-0.172817 3.51958,-0.529817 5.10944,-0.836126 1.58987,-0.306309 2.90823,-0.549536 3.71297,-0.504135 0.80473,0.0454 1.0911,0.389358 0.93614,1.086196 -0.15497,0.696839 -0.74164,1.746355 -1.44388,2.981195 -0.70225,1.23483 -1.50406,2.64431 -2.07677,3.94714 -0.57271,1.30283 -0.90556,2.48558 -0.86364,3.34665 0.0419,0.86108 0.45744,1.39436 1.13888,1.61508 0.68145,0.22072 1.61828,0.13476 2.58154,-0.05 0.96326,-0.18477 1.94211,-0.45508 2.76859,-0.57943 0.82648,-0.12434 1.49758,-0.0926 2.01061,0.16618 0.51304,0.25882 0.87402,0.74322 1.20786,1.31016 0.33385,0.56693 0.64974,1.20381 1.07112,1.67712 0.42138,0.4733 0.95292,0.76894 1.60985,0.77073 0.65694,0.002 1.43616,-0.29438 2.24256,-0.76121 0.8064,-0.46684 1.63242,-1.09405 2.364449,-1.57714 0.73204,-0.48309 1.36477,-0.80401 1.86605,-0.70444 0.50128,0.0996 0.87232,0.63222 1.18556,1.59191 0.31323,0.95969 0.57491,2.34346 0.89422,3.83893 0.31931,1.49547 0.70187,3.08505 1.19857,4.33256 0.4967,1.24752 1.10768,2.13242 1.78663,2.38448 0.67895,0.25206 1.42062,-0.13799 2.13005,-1.08085 0.70943,-0.94286 1.38079,-2.42999 1.96066,-4.05666 0.57987,-1.62667 1.06714,-3.37252 1.5004,-4.7742 0.43326,-1.40168 0.81723,-2.44119 1.24792,-2.88992 0.43069,-0.44874 0.91456,-0.30323 1.51548,0.30128 0.60092,0.60451 1.32132,1.65544 2.12851,2.77065 0.80718,1.11522 1.69713,2.27593 2.56115,3.12332 0.86401,0.84738 1.69491,1.37004 2.39946,1.46017 0.70455,0.0901 1.27871,-0.24888 1.72828,-0.84283 0.44958,-0.59396 0.77757,-1.42859 1.08746,-2.21746 0.30988,-0.78886 0.60956,-1.51846 1.00776,-2.01968 0.3982,-0.50122 0.90086,-0.77168 1.51435,-0.87451 0.61349,-0.10283 1.33587,-0.0481 2.04622,-0.0542 0.71035,-0.006 1.3992,-0.0873 1.91143,-0.42075 0.51223,-0.3334 0.83794,-0.92622 0.93356,-1.75726 0.0956,-0.83104 -0.0406,-1.89505 -0.26369,-2.97728 -0.22311,-1.08223 -0.52363,-2.16908 -0.64035,-3.01194 -0.11673,-0.84286 -0.0347,-1.43013 0.43605,-1.66883 0.47077,-0.23871 1.3397,-0.12778 2.55712,0.19501 1.21741,0.32279 2.77915,0.84756 4.38339,1.29907 1.60425,0.45151 3.23479,0.8165 4.51268,0.87088 1.27788,0.0544 2.18549,-0.209 2.51939,-0.81867 0.33391,-0.60968 0.0875,-1.5623 -0.61509,-2.68991 -0.70261,-1.127608 -1.85197,-2.419938 -3.06179,-3.643322 -1.20982,-1.223383 -2.46098,-2.36878 -3.35152,-3.294256 -0.89053,-0.925476 -1.40508,-1.629445 -1.38499,-2.132786 0.0201,-0.503341 0.57569,-0.811793 1.49205,-1.057073 0.91637,-0.245281 2.17975,-0.434861 3.42176,-0.69454 1.24201,-0.259679 2.44479,-0.592637 3.31091,-1.034657 0.86613,-0.44202 1.38687,-0.990374 1.53137,-1.595859 0.14449,-0.605485 -0.0808,-1.263003 -0.45241,-1.908904 -0.37165,-0.645901 -0.87357,-1.277799 -1.22976,-1.879843 -0.3562,-0.602044 -0.55382,-1.17654 -0.49486,-1.754142 0.059,-0.577602 0.37372,-1.162558 0.78418,-1.777574 0.41045,-0.615016 0.90236,-1.261527 1.1897,-1.908847 0.28734,-0.647319 0.3531,-1.291899 0.0275,-1.866645 -0.32564,-0.574747 -1.04935,-1.073884 -2.06179,-1.465329 -1.01244,-0.391445 -2.30432,-0.672752 -3.53497,-0.90628 -1.23066,-0.233528 -2.38107,-0.42358 -3.11112,-0.707781 -0.73005,-0.284202 -1.02458,-0.671347 -0.79291,-1.273698 0.23168,-0.602351 0.9899,-1.426419 2.03323,-2.450443 1.04334,-1.024023 2.35698,-2.246218 3.51493,-3.489073 1.15795,-1.242855 2.14065,-2.496281 2.61304,-3.528331 0.47239,-1.03205 0.42358,-1.83108 -0.17949,-2.273203 -0.60306,-0.442124 -1.75585,-0.522879 -3.18523,-0.329741 -1.42938,0.193137 -3.11969,0.65354 -4.68684,1.125134 -1.56715,0.471593 -2.99604,0.941055 -4.04082,1.152782 -1.04478,0.211728 -1.70114,0.155476 -1.99249,-0.247895 -0.29134,-0.40337 -0.22574,-1.153229 -0.0331,-2.101205 0.19262,-0.947976 0.49914,-2.082934 0.67262,-3.144698 0.17348,-1.061763 0.20583,-2.037257 8.1e-4,-2.751656 -0.20503,-0.714398 -0.64534,-1.163004 -1.23539,-1.383843 -0.59004,-0.220839 -1.32065,-0.221557 -2.03098,-0.209972 -0.71033,0.01158 -1.39225,0.0213 -1.95295,-0.165612 -0.5607,-0.186917 -0.99942,-0.579722 -1.35613,-1.181102 -0.3567,-0.601379 -0.63782,-1.407438 -0.96224,-2.201063 -0.32442,-0.793626 -0.69981,-1.559508 -1.2101,-2.018799 -0.51029,-0.45929 -1.15797,-0.596241 -1.91869,-0.301782 -0.76072,0.29446 -1.63019,1.024266 -2.50093,2.003033 -0.87073,0.978768 -1.73579,2.194479 -2.49922,3.255598 -0.76343,1.06112 -1.42177,1.947274 -1.96946,2.319631 -0.5477,0.372358 -0.98755,0.216423 -1.40069,-0.507526 -0.41314,-0.723949 -0.80591,-2.013933 -1.26714,-3.556801 -0.46123,-1.542869 -0.99503,-3.32106 -1.61596,-4.85607 -0.62094,-1.53501 -1.32718,-2.805624 -2.0468,-3.472985 -0.71963,-0.667362 -1.44646,-0.721039 -2.08994,-0.174681 -0.64348,0.546356 -1.19855,1.685778 -1.64293,3.076408 -0.44438,1.390629 -0.77875,3.013853 -1.07636,4.437926 -0.2976,1.424073 -0.56451,2.632365 -0.90983,3.383651 -0.34533,0.751286 -0.77532,1.042348 -1.33846,0.950945 -0.56314,-0.0914 -1.26019,-0.553963 -2.031399,-1.091197 -0.77122,-0.537235 -1.61079,-1.132768 -2.39884,-1.510315 -0.78804,-0.377547 -1.51699,-0.52817 -2.11433,-0.390268 -0.59734,0.137903 -1.06059,0.559696 -1.43813,1.099811 -0.37753,0.540114 -0.67498,1.184824 -1.02911,1.704416 -0.35414,0.519592 -0.77474,0.902447 -1.36384,1.055793 -0.58909,0.153347 -1.35239,0.07681 -2.24227,-0.104636 -0.88988,-0.181441 -1.90198,-0.456711 -2.83814,-0.581101 -0.93615,-0.12439 -1.78364,-0.08393 -2.32882,0.290051 -0.54517,0.37398 -0.77591,1.087809 -0.64316,2.094142 0.13274,1.006332 0.63069,2.299339 1.29546,3.638106 0.66477,1.338766 1.48482,2.70994 2.11175,3.844826 0.62693,1.134885 1.04301,2.022531 0.97781,2.550154 -0.0652,0.527622 -0.62313,0.694271 -1.66459,0.611304 -1.04145,-0.08297 -2.56289,-0.406655 -4.25242,-0.724802 -1.68953,-0.318146 -3.5303,-0.619217 -5.09455,-0.694085 -1.56425,-0.07487 -2.83321,0.08229 -3.5384,0.51659 -0.70519,0.434297 -0.83895,1.142622 -0.46445,2.007125 0.3745,0.864503 1.24868,1.876861 2.28045,2.86634 1.03177,0.98948 2.20292,1.949575 3.13219,2.780197 0.92926,0.830622 1.60226,1.531621 1.85268,2.119198 0.25042,0.587578 0.078,1.066758 -0.38089,1.519806 -0.45893,0.453048 -1.19093,0.884967 -1.89197,1.357534 -0.70103,0.472568 -1.35468,0.986394 -1.737,1.538678 -0.38231,0.552285 -0.48673,1.139404 -0.33937,1.722194 0.14736,0.58279 0.53809,1.157581 0.93192,1.709758 0.39384,0.552177 0.77394,1.082135 0.89627,1.625948 0.12234,0.543813 -0.0252,1.105988 -0.4716,1.734123 -0.44644,0.628136 -1.18926,1.326558 -1.98951,2.08636 -0.80024,0.759801 -1.64181,1.58028 -2.17837,2.370561 -0.53655,0.790281 -0.74989,1.54387 -0.44554,2.144675 0.30436,0.600805 1.13343,1.041198 2.3654,1.283971 1.23198,0.242772 2.85741,0.285813 4.4955,0.234635 1.6381,-0.05118 3.26948,-0.19014 4.49869,-0.213114 1.22922,-0.02297 2.0405,0.08128 2.28384,0.477249 0.24333,0.395971 -0.0827,1.09145 -0.78875,2.078286 -0.70604,0.986836 -1.77886,2.262881 -2.82298,3.626096 -1.04411,1.36321 -2.04154,2.8022 -2.65138,4.04271 -0.60984,1.24052 -0.8218,2.26983 -0.5541,2.92688 0.26769,0.65705 1.01156,0.9372 2.03871,0.9061 1.02715,-0.0311 2.32445,-0.36641 3.58918,-0.76101 1.26472,-0.39459 2.48456,-0.83499 3.45924,-1.07521 0.97468,-0.24022 1.70134,-0.27075 2.18999,-0.0213 0.48865,0.24947 0.74658,0.77691 0.93754,1.43691 0.19096,0.65999 0.3255,1.44036 0.5659,2.10924 0.24041,0.66888 0.59201,1.21352 1.09129,1.51443 0.49927,0.3009 1.14286,0.35527 1.83704,0.26575 0.69418,-0.0895 1.43068,-0.31267 2.08699,-0.4182 0.65631,-0.10553 1.22651,-0.0774 1.67121,0.27567 0.44469,0.35304 0.76499,1.04036 1.03397,2.00929 0.26898,0.96893 0.49328,2.21391 0.788909,3.43136 0.29562,1.21745 0.66875,2.38949 1.17674,3.15523 0.50798,0.76574 1.15136,1.1072 1.88381,0.86992 0.73245,-0.23729 1.54879,-1.05831 2.34566,-2.27086 0.79687,-1.21255 1.56819,-2.8044 2.24666,-4.33338 0.67848,-1.52899 1.26258,-2.97367 1.77745,-3.92009 0.51487,-0.94642 0.96484,-1.37865 1.43855,-1.18122 0.47372,0.19744 0.97749,1.02407 1.57668,2.22291 0.5992,1.19883 1.29641,2.75374 2.06751,4.20856 0.7711,1.45482 1.61246,2.78938 2.42544,3.64602 0.81298,0.85665 1.59073,1.22514 2.24524,1.06121 0.65451,-0.16394 1.18171,-0.85439 1.58511,-1.81176 0.40339,-0.95738 0.68548,-2.16525 0.94391,-3.2716 0.25843,-1.10636 0.50037,-2.09702 0.83448,-2.77734 0.3341,-0.68031 0.76594,-1.04858 1.31586,-1.17575 0.54992,-0.12716 1.21651,-0.0243 1.90622,0.0701 0.68971,0.0944 1.39454,0.16582 1.98667,0.0215 0.59212,-0.1443 1.06342,-0.51084 1.37641,-1.08858 0.313,-0.57774 0.46691,-1.36039 0.57584,-2.14862 0.10893,-0.78823 0.18157,-1.56814 0.41457,-2.12078 0.233,-0.55265 0.63875,-0.86741 1.33528,-0.89056 0.69653,-0.0232 1.69011,0.2445 2.89017,0.63516 1.20006,0.39065 2.60047,0.89277 3.91915,1.23125 1.31868,0.33848 2.53989,0.49972 3.36544,0.29765 0.82555,-0.20206 1.24072,-0.77329 1.15054,-1.67959 -0.0902,-0.9063 -0.68845,-2.14213 -1.5863,-3.48085 -0.89786,-1.33873 -2.08308,-2.76819 -3.15122,-4.028175 -1.06813,-1.259985 -1.99985,-2.34086 -2.45005,-3.118143 -0.45019,-0.777283 -0.40584,-1.25031 0.1893,-1.490826 0.59514,-0.240515 1.73856,-0.256078 3.15785,-0.236273 1.41928,0.0198 3.0982,0.06582 4.61798,-0.02511 1.51978,-0.09092 2.86211,-0.322686 3.73928,-0.733212 0.87717,-0.410526 1.28178,-0.996603 1.23365,-1.680063 -0.0481,-0.683461 -0.54073,-1.457898 -1.19652,-2.21833 -0.6558,-0.760431 -1.45778,-1.503076 -2.08995,-2.181059 -0.63217,-0.677982 -1.08205,-1.292835 -1.23292,-1.869781 -0.15088,-0.576946 -0.004,-1.120458 0.28998,-1.674516 0.29436,-0.554058 0.72223,-1.121222 1.01254,-1.705892 0.29032,-0.58467 0.42731,-1.184801 0.25728,-1.76181 -0.17003,-0.577009 -0.65174,-1.126264 -1.33732,-1.61978 -0.68557,-0.493516 -1.56443,-0.928989 -2.33387,-1.342526 -0.76944,-0.413538 -1.41117,-0.808372 -1.65894,-1.275767 -0.24778,-0.467395 -0.0892,-1.01427 0.48396,-1.709197 0.57317,-0.694927 1.55781,-1.542644 2.66391,-2.504799 1.1061,-0.962154 2.3167,-2.036261 3.22314,-3.06808 0.90645,-1.031819 1.48968,-2.012109 1.49784,-2.76473 0.008,-0.752621 -0.5667,-1.267967 -1.64462,-1.485253 -1.07791,-0.217285 -2.65053,-0.134225 -4.35548,0.121742 -1.70495,0.255967 -3.52397,0.677052 -5.04921,1.009402 -1.52524,0.33235 -2.7415,0.563041 -3.45205,0.478045 -0.71055,-0.085 -0.91325,-0.494353 -0.72435,-1.248643 0.18891,-0.75429 0.75831,-1.851197 1.3892,-3.09476 0.63089,-1.243563 1.30795,-2.621835 1.73791,-3.855205 0.42996,-1.23337 0.60435,-2.309071 0.43522,-3.059323 -0.16913,-0.750253 -0.6785,-1.171169 -1.3963,-1.319164 -0.7178,-0.147996 -1.63311,-0.03107 -2.53171,0.127611 -0.89861,0.158684 -1.77117,0.345538 -2.49014,0.355279 -0.71898,0.0097 -1.28349,-0.16583 -1.72609,-0.545923 -0.4426,-0.380094 -0.77042,-0.960396 -1.11411,-1.557535 -0.34369,-0.597138 -0.71178,-1.196913 -1.2038,-1.567992 -0.49203,-0.371079 -1.11089,-0.50021 -1.84028,-0.316701 -0.72939,0.183509 -1.56481,0.681038 -2.39718,1.307817 -0.83238,0.626779 -1.65422,1.369918 -2.36413,1.896404 -0.70991,0.526486 -1.30392,0.817726 -1.77476,0.636093 -0.47085,-0.181633 -0.82118,-0.846807 -1.13814,-1.935441 -0.31696,-1.088634 -0.60713,-2.594849 -0.97157,-4.159113 -0.36444,-1.564265 -0.80772,-3.16725 -1.35734,-4.367098 -0.54963,-1.199847 -1.20424,-1.976764 -1.89951,-2.099131 -0.69527,-0.122368 -1.42528,0.416408 -2.09824,1.474821 -0.67296,1.058412 -1.28376,2.62538 -1.80083,4.271206 -0.51707,1.645826 -0.94077,3.349695 -1.33168,4.670212 -0.39091,1.320518 -0.75471,2.241693 -1.19081,2.587345 -0.4361,0.345652 -0.95057,0.11527 -1.58948,-0.513186 -0.63892,-0.628456 -1.40326,-1.640733 -2.23727,-2.655117 -0.83402,-1.014385 -1.73244,-2.012953 -2.579359,-2.68167 -0.84692,-0.668716 -1.63523,-0.998953 -2.28825,-0.940061 -0.65301,0.05889 -1.16812,0.500921 -1.5783,1.123733 -0.41018,0.622812 -0.72009,1.411582 -1.04683,2.100753 -0.32674,0.689171 -0.67867,1.267086 -1.14961,1.618873 -0.47093,0.351787 -1.06555,0.477862 -1.75491,0.489885 -0.68935,0.01202 -1.46939,-0.07827 -2.19009,-0.04289 -0.72071,0.03538 -1.37129,0.210059 -1.7985,0.668133 -0.42722,0.458075 -0.62175,1.20447 -0.57518,2.169536 0.0466,0.965067 0.33383,2.141354 0.67233,3.286199 0.3385,1.144845 0.71663,2.244202 0.85232,3.059952 0.13569,0.815751 0.0136,1.337796 -0.53696,1.509906 -0.55053,0.17211 -1.53719,-0.0046 -2.86408,-0.360317 -1.32689,-0.355692 -2.98729,-0.879339 -4.6409,-1.292952 -1.65362,-0.413612 -3.28274,-0.704654 -4.50707,-0.675704 -1.22433,0.02895 -2.02702,0.38311 -2.24163,1.057984 -0.21461,0.674874 0.16295,1.665562 0.962,2.791396 0.79905,1.125834 2.00783,2.376553 3.22095,3.53543 1.21312,1.158877 2.41119,2.218338 3.21728,3.068617 0.80608,0.85028 1.20689,1.491472 1.09522,1.966362 -0.11167,0.474891 -0.73379,0.789779 -1.65326,1.07217 -0.91946,0.282391 -2.121,0.538833 -3.24245,0.870459 -1.12145,0.331626 -2.146,0.740064 -2.82567,1.23723 -0.67967,0.497165 -1.00868,1.079461 -1.01434,1.693284 -0.006,0.613823 0.30285,1.254575 0.67784,1.874668 0.37499,0.620093 0.79991,1.218516 1.02728,1.799501 0.22736,0.580985 0.24648,1.147858 0.0214,1.73635 -0.22509,0.588491 -0.69043,1.202599 -1.18399,1.850155 -0.49356,0.647555 -0.99926,1.328654 -1.22542,1.991304 -0.22616,0.66265 -0.15655,1.30201 0.33574,1.84357 0.4923,0.541561 1.4112,0.979445 2.58849,1.297284 1.1773,0.31784 2.60108,0.514448 3.89856,0.680276 1.29748,0.165828 2.44909,0.306811 3.13047,0.578291 0.68137,0.271481 0.87922,0.682899 0.55144,1.337898 -0.32778,0.654998 -1.17876,1.559144 -2.26877,2.660646 -1.09002,1.101502 -2.40271,2.396737 -3.50755,3.679847 -1.10484,1.283109 -1.98308,2.542749 -2.33525,3.543419 -0.35218,1.00066 -0.16988,1.73111 0.5331,2.09256 0.70298,0.36144 1.91987,0.35125 3.35616,0.091 1.43629,-0.26031 3.07601,-0.76229 4.55556,-1.23526 1.47955,-0.47297 2.78563,-0.90332 3.71899,-1.05431 0.93336,-0.15099 1.49217,-0.014 1.73754,0.45079 0.24537,0.46477 0.18667,1.25434 0.0553,2.19174 -0.13142,0.93739 -0.3232,2.01024 -0.36278,2.96596 -0.0396,0.95572 0.079,1.7822 0.40831,2.34684 0.32933,0.56464 0.86551,0.8653 1.50158,0.98746 0.63606,0.12216 1.36268,0.0757 2.0325,0.0851 0.66983,0.009 1.2762,0.0889 1.76068,0.40382 0.48448,0.31494 0.84814,0.87249 1.15819,1.61852 0.31005,0.74603 0.57364,1.67374 0.91046,2.52196 0.33681,0.84822 0.75365,1.60005 1.31213,1.97726 0.55848,0.37722 1.25946,0.36499 2.054649,-0.10075 0.7952,-0.46573 1.67928,-1.38616 2.53988,-2.51831 0.8606,-1.13216 1.6912,-2.46151 2.41309,-3.5695 0.72189,-1.108 1.33304,-1.97387 1.85119,-2.28008 0.51815,-0.30621 0.94732,-0.0403 1.37712,0.78551 0.42981,0.82579 0.86654,2.20659 1.38504,3.78699 0.51849,1.5804 1.1216,3.34131 1.79914,4.80421 0.67755,1.4629 1.42632,2.60758 2.15993,3.13726 0.73362,0.52967 1.44556,0.4367 2.05326,-0.21378 0.60769,-0.65049 1.1071,-1.84905 1.49916,-3.23319 0.39206,-1.38415 0.67897,-2.93499 0.95185,-4.24814 0.27289,-1.31314 0.5385,-2.37411 0.90224,-2.99783 0.36374,-0.62371 0.83105,-0.80992 1.42758,-0.68015 0.59653,0.12977 1.32137,0.56263 2.09286,1.00314 0.77148,0.44051 1.58266,0.87322 2.31379,1.06724 0.73113,0.19401 1.37507,0.14311 1.88511,-0.15719 0.51005,-0.30029 0.88553,-0.84287 1.20764,-1.43354 0.3221,-0.59067 0.59825,-1.21525 0.97779,-1.66227 0.37954,-0.44701 0.87257,-0.70664 1.55981,-0.73525 0.68724,-0.0286 1.57284,0.17159 2.56658,0.43247 0.99374,0.26088 2.08893,0.56996 3.0544,0.67516 0.96547,0.1052 1.78718,-0.007 2.254,-0.47469 0.46681,-0.46798 0.56737,-1.29619 0.29071,-2.39654 -0.27665,-1.10035 -0.9299,-2.46517 -1.71495,-3.83373 -0.78505,-1.36856 -1.68822,-2.72736 -2.34104,-3.82212 -0.65281,-1.09476 -1.03729,-1.916088 -0.90461,-2.385602 0.13268,-0.469513 0.7921,-0.588223 1.92226,-0.493041 1.13015,0.09518 2.72488,0.394557 4.43683,0.655278 1.71194,0.260722 3.52295,0.472173 5.00957,0.453817 1.48663,-0.01836 2.6312,-0.270516 3.20728,-0.771209 0.57608,-0.500694 0.57873,-1.245549 0.11878,-2.108072 -0.45996,-0.862523 -1.37165,-1.834641 -2.37791,-2.76388 -1.00625,-0.929238 -2.08878,-1.810549 -2.89831,-2.57289 -0.80954,-0.762341 -1.33402,-1.406971 -1.46482,-1.966685 -0.13081,-0.559714 0.12924,-1.039753 0.60284,-1.515216 0.4736,-0.475462 1.14576,-0.950274 1.71982,-1.464273 0.57406,-0.513998 1.03477,-1.066404 1.21091,-1.638241 0.17613,-0.571838 0.0642,-1.159003 -0.24829,-1.726037 -0.31245,-0.567034 -0.8143,-1.111113 -1.2384,-1.636924 -0.42411,-0.525812 -0.75327,-1.03519 -0.76967,-1.580423 -0.0164,-0.545233 0.28984,-1.131595 0.8884,-1.803222 0.59856,-0.671628 1.4838,-1.432216 2.36719,-2.25018 0.88338,-0.817965 1.74716,-1.691029 2.23962,-2.504499 0.49247,-0.81347 0.59632,-1.559621 0.15678,-2.118342 -0.43955,-0.558722 -1.42684,-0.922566 -2.78748,-1.075889 -1.36064,-0.153324 -3.08278,-0.09554 -4.76011,0.03612 -1.67733,0.131663 -3.29014,0.329105 -4.46215,0.371787 -1.17201,0.04268 -1.88939,-0.08106 -2.04895,-0.523228 -0.15956,-0.442167 0.23748,-1.209302 0.96468,-2.260552 0.72721,-1.051249 1.77008,-2.38249 2.73468,-3.765069 0.96461,-1.382579 1.83395,-2.803996 2.30586,-3.992216 0.47191,-1.18822 0.53856,-2.131262 0.16427,-2.699175 -0.3743,-0.567912 -1.184,-0.758165 -2.21745,-0.672189 -1.03345,0.08598 -2.27738,0.439271 -3.45099,0.804751 -1.1736,0.36548 -2.26636,0.72961 -3.12339,0.87356 -0.85702,0.143949 -1.47774,0.06016 -1.90745,-0.27481 -0.42972,-0.334973 -0.67679,-0.916542 -0.90601,-1.568067 -0.22921,-0.651525 -0.45027,-1.359609 -0.79484,-1.903029 -0.34458,-0.543419 -0.81602,-0.910576 -1.41394,-1.030393 -0.59791,-0.119816 -1.31745,0.0077 -2.04914,0.227007 -0.73168,0.219269 -1.46733,0.517635 -2.09827,0.624682 -0.63094,0.107048 -1.15272,0.0065 -1.55419,-0.463206 -0.40148,-0.469733 -0.6853,-1.315896 -0.94246,-2.428186 -0.25715,-1.11229 -0.49463,-2.482212 -0.82217,-3.761877 -0.32753,-1.279665 -0.75025,-2.449694 -1.30256,-3.149793 -0.55232,-0.700098 -1.23326,-0.913333 -1.97818,-0.528935 -0.74491,0.384398 -1.54794,1.368645 -2.30844,2.707555 -0.7605,1.338909 -1.47311,3.017862 -2.09213,4.572598 -0.61903,1.554736 -1.14442,2.963645 -1.62331,3.837729 -0.47889,0.874083 -0.91659,1.199597 -1.40534,0.913042 -0.48876,-0.286556 -1.0345,-1.181835 -1.68484,-2.390669 -0.65033,-1.208833 -1.40643,-2.71371 -2.22048,-4.064523 -0.81405,-1.350813 -1.68118,-2.528586 -2.49377,-3.222629 -0.81259,-0.694044 -1.56382,-0.896995 -2.17943,-0.617768 -0.615619,0.279226 -1.092869,1.032306 -1.459669,1.980283 -0.3668,0.947976 -0.62717,2.074248 -0.8914,3.056492 -0.26424,0.982244 -0.5399,1.808468 -0.92297,2.341844 -0.38308,0.533376 -0.87794,0.775111 -1.47496,0.84082 -0.59703,0.06571 -1.29289,-0.03204 -1.97122,-0.05431 -0.67834,-0.02227 -1.33008,0.04453 -1.83324,0.350914 -0.50315,0.306385 -0.85033,0.856322 -1.03839,1.585734 -0.18805,0.729412 -0.21831,1.629799 -0.24384,2.475614 -0.0255,0.845815 -0.0569,1.622897 -0.30439,2.128653 -0.24744,0.505756 -0.7235,0.731313 -1.52153,0.665629 -0.79803,-0.06568 -1.92254,-0.419518 -3.23628,-0.85869 -1.31373,-0.439172 -2.80813,-0.951089 -4.16643,-1.258574 -1.3583,-0.307486 -2.56353,-0.397825 -3.32106,-0.113971 -0.75753,0.283854 -1.05364,0.945723 -0.83285,1.916997 0.22079,0.971275 0.95869,2.244858 1.95979,3.582039 1.00109,1.337181 2.25106,2.72592 3.32934,3.924871 1.07828,1.198951 1.96553,2.200092 2.34297,2.912409 0.37744,0.712316 0.23419,1.136903 -0.43722,1.366587 -0.67142,0.229684 -1.8658,0.272547 -3.27808,0.311007 -1.41228,0.03846 -3.02506,0.08064 -4.43056,0.261332 -1.4055,0.180692 -2.58675,0.502121 -3.30502,0.975771 -0.71827,0.473649 -0.96911,1.095361 -0.82363,1.782263 0.14548,0.686902 0.67666,1.433084 1.29819,2.151627 0.62153,0.718542 1.31642,1.407089 1.80498,2.0423 0.48856,0.635211 0.76078,1.219713 0.76248,1.787507 0.002,0.567793 -0.26235,1.123181 -0.59815,1.698107 -0.3358,0.574927 -0.72753,1.170689 -0.9097,1.771515 -0.18218,0.600826 -0.14025,1.20343 0.22778,1.760813 0.36803,0.557384 1.06384,1.064808 1.91889,1.507056 0.85505,0.442249 1.85621,0.818204 2.67379,1.188159 0.81757,0.369956 1.433,0.738659 1.60385,1.211808 0.17085,0.47315 -0.11312,1.058215 -0.80577,1.813936 -0.69265,0.755721 -1.78801,1.685883 -2.9525,2.723376 -1.16449,1.037493 -2.37975,2.17808 -3.23569,3.241903 -0.85595,1.063822 -1.33458,2.040507 -1.22294,2.752632 0.11164,0.71213 0.81884,1.15057 1.99444,1.28001 1.17559,0.12945 2.80905,-0.0506 4.51951,-0.38005 1.71047,-0.32944 3.47963,-0.7988 4.92362,-1.140911 1.44399,-0.342113 2.54965,-0.543898 3.16753,-0.409362 0.61788,0.134537 0.74839,0.612494 0.54173,1.418573 -0.20667,0.80608 -0.73827,1.93583 -1.28087,3.16905 -0.5426,1.23323 -1.08197,2.55701 -1.36474,3.7012 -0.28277,1.1442 -0.30285,2.09713 -0.017,2.73018 0.2858,0.63305 0.87234,0.94476 1.61044,1.0314 0.73811,0.0866 1.61687,-0.0418 2.4426,-0.15415 0.82573,-0.11231 1.59083,-0.19497 2.20842,-0.0765 0.61759,0.11847 1.08881,0.44404 1.47615,0.94192 0.38733,0.49789 0.69867,1.16102 1.06388,1.7707 0.36521,0.60969 0.79185,1.15052 1.35298,1.40171 0.56113,0.25118 1.25788,0.20074 2.04563,-0.17134 0.78776,-0.37208 1.66092,-1.06432 2.502839,-1.83669 0.84192,-0.77236 1.64553,-1.60961 2.32603,-2.15834 0.6805,-0.54873 1.23541,-0.79029 1.68149,-0.51556 0.44608,0.27472 0.78726,1.07414 1.12028,2.28271 0.33302,1.20856 0.66444,2.81754 1.08219,4.42662 0.41775,1.60909 0.92515,3.19765 1.52541,4.32767 0.60026,1.13003 1.29063,1.78299 1.9925,1.77149 0.70187,-0.0115 1.40896,-0.69122 2.03763,-1.848 0.62868,-1.15678 1.1748,-2.77729 1.63049,-4.41575 0.45568,-1.63847 0.82278,-3.27413 1.18084,-4.49623 0.35806,-1.22209 0.71347,-2.01698 1.16368,-2.26301 0.45022,-0.24603 1.0006,0.0544 1.67627,0.68657 0.67567,0.63213 1.47606,1.58043 2.32433,2.47278 0.84827,0.89236 1.73811,1.71218 2.5522,2.19578 0.81409,0.4836 1.54574,0.62526 2.1399,0.4294 0.59416,-0.19586 1.04986,-0.72091 1.42738,-1.35251 0.37752,-0.6316 0.6831,-1.35484 1.04231,-1.93246 0.3592,-0.57762 0.78053,-1.00012 1.3364,-1.2081 0.55587,-0.20798 1.2494,-0.20459 2.01366,-0.14424 0.76426,0.0603 1.59305,0.16464 2.3107,0.0835 0.71764,-0.0811 1.31228,-0.36024 1.63944,-0.94418 0.32716,-0.58395 0.37847,-1.47525 0.18544,-2.55859 -0.19303,-1.08335 -0.62763,-2.3494 -1.07121,-3.53525 -0.44358,-1.18585 -0.88256,-2.27744 -1.02067,-3.05381 -0.13811,-0.77636 0.0401,-1.22915 0.67879,-1.3396 0.63874,-0.11045 1.74382,0.11831 3.17168,0.48973 1.42786,0.37142 3.1693,0.87375 4.85105,1.23346 1.68176,0.35971 3.28505,0.56534 4.43676,0.44958 1.15172,-0.11576 1.83625,-0.55616 1.92921,-1.28624 0.093,-0.73007 -0.40708,-1.743644 -1.28538,-2.853463 -0.8783,-1.109818 -2.12108,-2.305979 -3.31239,-3.393287 -1.19131,-1.087308 -2.312,-2.05979 -3.01846,-2.839355 -0.70646,-0.779564 -0.98783,-1.367811 -0.79019,-1.824577 0.19764,-0.456766 0.86941,-0.788579 1.76993,-1.113766 0.90051,-0.325186 2.01339,-0.649156 2.99209,-1.047502 0.9787,-0.398347 1.80795,-0.871218 2.29489,-1.410595 0.48694,-0.539377 0.62888,-1.141095 0.50904,-1.752605 -0.11984,-0.611509 -0.48989,-1.228992 -0.84656,-1.82336 -0.35667,-0.594368 -0.68347,-1.166016 -0.76944,-1.736638 -0.086,-0.570622 0.0771,-1.144318 0.46161,-1.756334 0.38454,-0.612015 0.98356,-1.26578 1.53936,-1.950286 0.55581,-0.684507 1.05094,-1.39838 1.19724,-2.069173 0.1463,-0.670793 -0.0712,-1.292538 -0.73153,-1.788222 -0.66033,-0.495684 -1.76451,-0.859653 -3.08854,-1.096102 -1.32403,-0.23645 -2.85367,-0.345667 -4.1929,-0.446872 -1.33923,-0.101205 -2.46842,-0.201887 -3.08708,-0.470964 -0.61866,-0.269077 -0.71564,-0.716319 -0.29871,-1.431211 0.41693,-0.714892 1.34268,-1.701759 2.45674,-2.876617 1.11407,-1.174857 2.39896,-2.532214 3.42881,-3.841224 1.02984,-1.30901 1.78711,-2.557361 2.0131,-3.512468 0.22599,-0.955107 -0.0851,-1.606522 -0.87515,-1.884999 -0.79002,-0.278477 -2.0502,-0.183378 -3.47245,0.131193 -1.42225,0.314572 -2.99074,0.838557 -4.36935,1.293331 -1.37862,0.454774 -2.55612,0.826871 -3.38091,0.905357 -0.82479,0.07849 -1.29741,-0.143339 -1.51132,-0.664062 -0.21392,-0.520723 -0.17942,-1.335065 -0.12214,-2.24242 0.0573,-0.907355 0.12613,-1.894496 0.0316,-2.724568 -0.0945,-0.830072 -0.35606,-1.492335 -0.79675,-1.901546 -0.44069,-0.409211 -1.05502,-0.565937 -1.72135,-0.601186 -0.66633,-0.03525 -1.37552,0.03901 -1.99873,-0.01053 -0.62321,-0.04955 -1.1554,-0.237097 -1.57187,-0.691036 -0.41646,-0.45394 -0.71994,-1.179058 -0.99926,-2.06309 -0.27932,-0.884031 -0.54203,-1.917337 -0.90249,-2.800573 -0.36046,-0.883236 -0.82436,-1.598321 -1.42921,-1.876312 -0.60486,-0.277992 -1.34993,-0.10543 -2.16661,0.532046 -0.81668,0.637476 -1.69893,1.738161 -2.53541,3.00565 -0.83648,1.26749 -1.62139,2.685015 -2.29666,3.815862 -0.67526,1.130847 -1.24037,1.954362 -1.73467,2.182281 -0.4943,0.227919 -0.92283,-0.149875 -1.37863,-1.068072 -0.45581,-0.918197 -0.94485,-2.36914 -1.52395,-3.962006 -0.5791,-1.592867 -1.24974,-3.307471 -1.97748,-4.675028 -0.72774,-1.367557 -1.50814,-2.369312 -2.24491,-2.756029 -0.73677,-0.386718 -1.42336,-0.153673 -1.98987,0.585255 -0.56652,0.738929 -1.01013,1.972142 -1.35569,3.325261 -0.34556,1.353118 -0.59668,2.807493 -0.85818,3.994204 -0.26149,1.186711 -0.54048,2.093744 -0.9328,2.593689 -0.39232,0.499945 -0.902319,0.595423 -1.530109,0.445731 -0.62779,-0.149691 -1.37075,-0.530495 -2.12819,-0.856646 -0.75745,-0.326152 -1.52155,-0.583572 -2.17911,-0.591357 -0.65755,-0.0078 -1.20221,0.237466 -1.618,0.685942 -0.41579,0.448477 -0.70402,1.090902 -0.97809,1.712369 -0.27407,0.621467 -0.54305,1.207817 -0.96309,1.572587 -0.42005,0.36477 -1.0012,0.500182 -1.7965,0.4122 -0.7953,-0.08798 -1.80704,-0.394714 -2.90059,-0.715093 -1.09355,-0.320379 -2.25993,-0.64092 -3.23939,-0.710184 -0.97946,-0.06926 -1.75697,0.124909 -2.13121,0.687979 -0.37424,0.563069 -0.33501,1.496999 0.0863,2.676114 0.42129,1.179115 1.22152,2.59417 2.11198,3.972067 0.89046,1.377898 1.85556,2.705383 2.51444,3.74852 0.65888,1.043136 0.99374,1.794294 0.78451,2.209659 -0.20923,0.415365 -0.96995,0.497761 -2.17846,0.404372 -1.20852,-0.09339 -2.85615,-0.352411 -4.56646,-0.543899 -1.7103,-0.191487 -3.46425,-0.306012 -4.8519,-0.193932 -1.38766,0.112081 -2.39287,0.452955 -2.83635,1.010125 -0.44348,0.55717 -0.32315,1.325287 0.20546,2.174877 0.52862,0.849589 1.45261,1.773138 2.40857,2.639782 0.95596,0.866644 1.92602,1.67287 2.60108,2.374983 0.67506,0.702112 1.0457,1.302564 1.06241,1.845499 0.0167,0.542934 -0.31476,1.033483 -0.78238,1.535222 -0.46762,0.501738 -1.05533,1.017344 -1.48305,1.564908 -0.42772,0.547563 -0.68182,1.125043 -0.64874,1.701928 0.0331,0.576885 0.3537,1.148905 0.81581,1.68962 0.4621,0.540715 1.05223,1.048395 1.48508,1.54868 0.43285,0.500286 0.69134,0.996428 0.5915,1.553599 -0.0998,0.557171 -0.56543,1.181138 -1.30633,1.907043 -0.7409,0.725905 -1.74859,1.556513 -2.69184,2.434431 -0.94325,0.877918 -1.80313,1.799219 -2.23188,2.627281 -0.42875,0.828063 -0.4104,1.554149 0.16547,2.059467 0.57588,0.505318 1.71086,0.782938 3.18143,0.84304 1.47057,0.0601 3.26281,-0.0962 4.95382,-0.300568 1.69102,-0.204373 3.26128,-0.447185 4.3614,-0.496413 1.10012,-0.04923 1.7185,0.106861 1.79974,0.601984 0.0812,0.495122 -0.37095,1.334291 -1.09933,2.442534 -0.72839,1.108248 -1.71757,2.479488 -2.58371,3.863018 -0.86613,1.38353 -1.59359,2.76607 -1.92321,3.88514 -0.32962,1.11906 -0.25613,1.96381 0.21289,2.43982 0.46902,0.47602 1.32625,0.58305 2.34858,0.45618 1.02234,-0.12687 2.19678,-0.4771 3.27033,-0.79269 1.07356,-0.31559 2.03771,-0.5834 2.78293,-0.61885 0.74522,-0.0355 1.27308,0.16673 1.65853,0.58177 0.38546,0.41504 0.63755,1.03584 0.91556,1.66005 0.27801,0.62421 0.59048,1.23761 1.03621,1.63785 0.44574,0.40024 1.02614,0.57731 1.70767,0.51309 0.68153,-0.0642 1.45817,-0.36687 2.2113,-0.70203 0.75313,-0.33516 1.47503,-0.68815 2.07512,-0.77744 0.60009,-0.0893 1.075509,0.10108 1.442059,0.69607 0.36654,0.595 0.62821,1.59937 0.88825,2.84468 0.26005,1.2453 0.52547,2.72023 0.8944,4.03936 0.36893,1.31914 0.84522,2.46205 1.43946,3.07813 0.59425,0.61607 1.30405,0.68987 2.05038,0.15876 0.74633,-0.53111 1.52295,-1.66646 2.23717,-3.11162 0.71423,-1.44515 1.36167,-3.18343 1.92036,-4.7378 0.55868,-1.55437 1.03004,-2.90356 1.48046,-3.69159 0.45042,-0.78802 0.88594,-1.00363 1.39728,-0.63615 0.51134,0.36748 1.10378,1.31195 1.80414,2.507 0.70036,1.19504 1.50832,2.62225 2.35426,3.84703 0.84593,1.22479 1.72395,2.22981 2.52289,2.75635 0.79893,0.52654 1.51233,0.57022 2.08423,0.1901 0.5719,-0.38012 1.00105,-1.1736 1.33952,-2.09059 0.33847,-0.91699 0.59167,-1.94121 0.87736,-2.78733 0.2857,-0.84612 0.61149,-1.50462 1.05457,-1.89717 0.44308,-0.39254 1.00634,-0.52309 1.64798,-0.54566 0.64164,-0.0226 1.35644,0.0492 2.00889,-0.0158 0.65245,-0.0651 1.23271,-0.27919 1.63138,-0.74701 0.39866,-0.46782 0.60942,-1.19066 0.66788,-2.055 0.0585,-0.86434 -0.0318,-1.85977 -0.0803,-2.74257 -0.0485,-0.88279 -0.0429,-1.63896 0.23405,-2.08856 0.27691,-0.4496 0.83746,-0.58572 1.74416,-0.43984 0.90669,0.14588 2.16195,0.56852 3.58104,1.03643 1.41909,0.46792 2.99107,0.96784 4.3701,1.22806 1.37902,0.26023 2.54728,0.26926 3.22162,-0.0978 0.67433,-0.36708 0.8424,-1.11204 0.49225,-2.13507 -0.35015,-1.02303 -1.21615,-2.31579 -2.30202,-3.63429 -1.08586,-1.31851 -2.37548,-2.651211 -3.44075,-3.780504 -1.06527,-1.129294 -1.88732,-2.048905 -2.18115,-2.700661 -0.29383,-0.651756 -0.051,-1.038323 0.68661,-1.268435 0.73761,-0.230113 1.96219,-0.312034 3.34298,-0.415796 1.38079,-0.103761 2.89964,-0.236223 4.16912,-0.502867 1.26949,-0.266644 2.27443,-0.668091 2.82997,-1.193292 0.55553,-0.525202 0.66026,-1.169362 0.4333,-1.850285 -0.22696,-0.680922 -0.77293,-1.39347 -1.33738,-2.071078 -0.56444,-0.677608 -1.13089,-1.319364 -1.46365,-1.92271 -0.33275,-0.603347 -0.42456,-1.171752 -0.28448,-1.742435 0.14007,-0.570683 0.50429,-1.147461 0.86095,-1.746436 0.35667,-0.598974 0.68892,-1.220055 0.74588,-1.828368 0.057,-0.608312 -0.17426,-1.199499 -0.73978,-1.723202 -0.56552,-0.523704 -1.46394,-0.975401 -2.4699,-1.357534 -1.00596,-0.382133 -2.10412,-0.694974 -2.94684,-1.023703 -0.84272,-0.328729 -1.41168,-0.679527 -1.49565,-1.168492 -0.084,-0.488964 0.3249,-1.123806 1.12597,-1.948081 0.80107,-0.824274 1.98568,-1.84053 3.18404,-2.950822 1.19836,-1.110292 2.39115,-2.308616 3.1761,-3.392636 0.78495,-1.08402 1.14552,-2.042506 0.91201,-2.702705 -0.2335,-0.660199 -1.06369,-1.013784 -2.31976,-1.054754 -1.25607,-0.04097 -2.92567,0.229307 -4.61806,0.619783 -1.69239,0.390476 -3.38965,0.890254 -4.73899,1.225264 -1.34934,0.33501 -2.33985,0.492409 -2.8698,0.300397 -0.52996,-0.192012 -0.60215,-0.738676 -0.39464,-1.587918 0.20751,-0.849242 0.68178,-1.994556 1.12152,-3.196907 0.43973,-1.202352 0.83212,-2.448244 0.96689,-3.484889 0.13477,-1.036645 0.008,-1.853858 -0.38151,-2.366495 -0.38972,-0.512637 -1.03592,-0.721794 -1.77902,-0.760946 -0.74311,-0.03915 -1.57262,0.08008 -2.32023,0.12602 -0.74761,0.04594 -1.40759,0.0057 -1.93274,-0.251561 -0.52514,-0.257233 -0.91837,-0.734898 -1.26617,-1.3435 -0.3478,-0.608603 -0.65841,-1.338433 -1.05489,-1.941656 -0.39647,-0.603223 -0.88513,-1.063617 -1.51114,-1.179248 -0.62601,-0.115631 -1.38879,0.123801 -2.21964,0.683739 -0.83084,0.559938 -1.72335,1.435953 -2.55962,2.336468 -0.83627,0.900515 -1.60994,1.808282 -2.25628,2.358216 -0.64634,0.549934 -1.16441,0.723792 -1.59308,0.348086 -0.42867,-0.375706 -0.7729,-1.306869 -1.13365,-2.622615 -0.36075,-1.315747 -0.74424,-3.004631 -1.22096,-4.633082 -0.47671,-1.628451 -1.04857,-3.175013 -1.69478,-4.214956 -0.64622,-1.039943 -1.36277,-1.556406 -2.06119,-1.410579 -0.69841,0.145828 -1.37235,0.95479 -1.95092,2.190126 -0.57857,1.235335 -1.05883,2.881795 -1.45733,4.48692 -0.3985,1.605125 -0.71848,3.148722 -1.05456,4.258452 -0.33608,1.109729 -0.69503,1.77459 -1.16699,1.927967 -0.47197,0.153378 -1.06129,-0.199615 -1.76993,-0.81418 -0.70863,-0.614566 -1.53443,-1.474407 -2.382509,-2.225954 -0.84808,-0.751547 -1.71134,-1.37993 -2.47725,-1.676024 -0.76591,-0.296094 -1.42853,-0.257134 -1.95885,0.06092 -0.53032,0.318058 -0.92916,0.904879 -1.28308,1.5258 -0.35392,0.620921 -0.67056,1.261407 -1.0781,1.718996 -0.40754,0.457589 -0.91425,0.725147 -1.56505,0.798525 -0.6508,0.07338 -1.44698,-0.04175 -2.28215,-0.154883 -0.83518,-0.113137 -1.70106,-0.210425 -2.40081,-0.06907 -0.69974,0.141349 -1.22079,0.532605 -1.43434,1.240225 -0.21356,0.70762 -0.11259,1.731746 0.22771,2.915484 0.3403,1.183738 0.91472,2.51617 1.45019,3.722081 0.53548,1.205912 1.01674,2.271627 1.14065,2.999116 0.1239,0.727488 -0.12456,1.11031 -0.85719,1.166581 -0.73262,0.05627 -1.95293,-0.209008 -3.46973,-0.578751 -1.51681,-0.369743 -3.31853,-0.83184 -5.00562,-1.12394 -1.6871,-0.292099 -3.24016,-0.404068 -4.30181,-0.201004 -1.06164,0.203065 -1.61793,0.722528 -1.5904,1.496481 0.0275,0.773953 0.63757,1.795269 1.57529,2.876203 0.93773,1.080933 2.18766,2.212258 3.33242,3.223902 1.14475,1.011644 2.16589,1.899308 2.76069,2.614904 0.5948,0.715595 0.75508,1.262006 0.48056,1.710852 -0.27453,0.448846 -0.97631,0.806553 -1.83479,1.177947 -0.85849,0.371394 -1.85666,0.760582 -2.67282,1.217896 -0.81616,0.457314 -1.437,0.981555 -1.72906,1.54943 -0.29207,0.567876 -0.25585,1.174972 -0.0267,1.774977 0.2292,0.600004 0.63775,1.190121 0.95506,1.761183 0.3173,0.571062 0.52746,1.124834 0.46312,1.696938 -0.0643,0.572104 -0.4086,1.167135 -0.94196,1.814244 -0.53337,0.647109 -1.24592,1.348861 -1.84175,2.072308 -0.59582,0.723447 -1.05653,1.465678 -1.10644,2.135711 -0.0499,0.670032 0.32429,1.26099 1.15007,1.698654 0.82578,0.437663 2.10125,0.716928 3.55113,0.866752 1.44988,0.149824 3.05797,0.172131 4.41432,0.214407 1.35635,0.04228 2.44178,0.113422 2.98681,0.391011 0.54502,0.277589 0.54092,0.771381 0.0451,1.551445 -0.49587,0.780064 -1.47591,1.849223 -2.59061,3.090263 -1.1147,1.241039 -2.34591,2.64664 -3.28118,3.96544 -0.93526,1.31879 -1.55869,2.53782 -1.65611,3.43411 -0.0974,0.89629 0.33438,1.46054 1.19648,1.6566 0.8621,0.19606 2.14416,0.0254 3.53249,-0.32806 1.38832,-0.35346 2.86764,-0.87826 4.13536,-1.29518 1.26773,-0.41692 2.31487,-0.71305 3.03707,-0.70969 0.72221,0.003 1.12221,0.31068 1.31975,0.8789 0.19754,0.56822 0.20344,1.38983 0.23087,2.24663 0.0274,0.85679 0.0862,1.73508 0.31155,2.42181 0.22535,0.68673 0.61887,1.17293 1.1561,1.42464 0.53723,0.25171 1.21149,0.27228 1.89322,0.23494 0.68173,-0.0374 1.36236,-0.11891 1.93555,-0.0104 0.57319,0.10846 1.03565,0.42046 1.39455,1.02098 0.3589,0.60052 0.61842,1.4917 0.88293,2.50332 0.26452,1.01162 0.54159,2.13137 0.93481,3.0287 0.39323,0.89733 0.90698,1.55344 1.554019,1.71716 0.64703,0.16373 1.42512,-0.17663 2.24973,-0.98234 0.82462,-0.80571 1.68931,-2.07214 2.48943,-3.45404 0.80012,-1.3819 1.53084,-2.86063 2.1571,-3.99065 0.62625,-1.13002 1.14901,-1.89129 1.62658,-2.03195 0.47758,-0.14067 0.91574,0.34678 1.40585,1.34446 0.49011,0.99769 1.03749,2.49534 1.67783,4.07459 0.64034,1.57925 1.37366,3.21929 2.14291,4.47053 0.76925,1.25124 1.56896,2.0968 2.29799,2.33909 0.72902,0.24229 1.38111,-0.12045 1.90317,-0.92977 0.52206,-0.80931 0.91267,-2.05179 1.22008,-3.35028 0.30742,-1.2985 0.53655,-2.63507 0.80087,-3.68345 0.26433,-1.04837 0.57098,-1.79923 1.00058,-2.18277 0.42959,-0.38354 0.9851,-0.40508 1.63946,-0.25477 0.65437,0.15031 1.40328,0.45771 2.13097,0.65439 0.72769,0.19668 1.42575,0.27029 1.99412,0.0931 0.56837,-0.17714 1.00186,-0.60562 1.31924,-1.18553 0.31738,-0.57991 0.52206,-1.30015 0.75782,-1.93333 0.23576,-0.63318 0.5131,-1.16559 0.9886,-1.4416 0.47551,-0.27602 1.15878,-0.29011 2.06933,-0.0968 0.91055,0.1933 2.04857,0.5871 3.23457,0.94631 1.18599,0.35921 2.40876,0.66977 3.38549,0.68842 0.97674,0.0186 1.69184,-0.26536 1.96101,-0.92154 0.26918,-0.65617 0.0838,-1.68429 -0.47924,-2.92534 -0.56303,-1.24104 -1.49806,-2.68454 -2.47627,-4.05248 -0.97821,-1.36795 -1.98243,-2.647697 -2.62768,-3.630623 -0.64524,-0.982927 -0.91436,-1.663279 -0.62242,-2.030746 0.29195,-0.367468 1.14991,-0.426476 2.42308,-0.348709 1.27318,0.07777 2.95051,0.282071 4.63397,0.395051 1.68347,0.112979 3.3536,0.126614 4.62296,-0.07677 1.26936,-0.203381 2.12375,-0.624253 2.43478,-1.226896 0.31104,-0.602644 0.0796,-1.381052 -0.4985,-2.208255 -0.57807,-0.827203 -1.48818,-1.696526 -2.36991,-2.501026 -0.88173,-0.804501 -1.71813,-1.542213 -2.24753,-2.194026 -0.5294,-0.651812 -0.74527,-1.221117 -0.65701,-1.75792 0.0883,-0.536802 0.47211,-1.045814 0.91223,-1.57547 0.44011,-0.529657 0.91983,-1.081278 1.18448,-1.652498 0.26465,-0.57122 0.30265,-1.158914 0.0616,-1.726212 -0.24103,-0.567299 -0.7583,-1.11009 -1.35181,-1.615805 -0.5935,-0.505714 -1.24783,-0.973913 -1.66857,-1.45177 -0.42074,-0.477858 -0.59144,-0.969953 -0.36862,-1.55022 0.22282,-0.580266 0.84389,-1.254658 1.71366,-2.043952 0.86978,-0.789293 1.97701,-1.695055 2.95576,-2.631962 0.97875,-0.936908 1.80936,-1.899378 2.15699,-2.731808 0.34764,-0.832431 0.19805,-1.52534 -0.51159,-1.966834 -0.70964,-0.441495 -1.97812,-0.62549 -3.53763,-0.591441 -1.5595,0.03405 -3.39442,0.283207 -5.07446,0.549877 -1.68005,0.266671 -3.18635,0.539895 -4.20318,0.582126 -1.01683,0.04223 -1.53501,-0.157962 -1.54639,-0.710646 -0.0114,-0.552683 0.47801,-1.461095 1.18721,-2.615948 0.70921,-1.154854 1.62237,-2.548208 2.37371,-3.912891 0.75134,-1.364682 1.32691,-2.687017 1.51352,-3.721402 0.18662,-1.034385 -0.0185,-1.771492 -0.56846,-2.155874 -0.54996,-0.384382 -1.43603,-0.418119 -2.43104,-0.266557 -0.99502,0.151562 -2.08663,0.476547 -3.05454,0.721946 -0.96791,0.245398 -1.8057,0.398885 -2.44786,0.316574 -0.64216,-0.08231 -1.09216,-0.403211 -1.44838,-0.88969 -0.35622,-0.486479 -0.62799,-1.129084 -0.96308,-1.706283 -0.33509,-0.577199 -0.74063,-1.074366 -1.28158,-1.316063 -0.54095,-0.241697 -1.21683,-0.219847 -1.96564,0.02741 -0.74881,0.247261 -1.56369,0.714163 -2.32343,1.148719 -0.75973,0.434557 -1.45737,0.820348 -2.0237,0.87325 -0.56633,0.0529 -1.00011,-0.242274 -1.34169,-0.967619 -0.34158,-0.725346 -0.59606,-1.882913 -0.87306,-3.247169 -0.27701,-1.364257 -0.58322,-2.921299 -1.00058,-4.255983 -0.41736,-1.334684 -0.9483,-2.426038 -1.57986,-2.941906 -0.63155,-0.515868 -1.36003,-0.442718 -2.09659,0.230875 -0.73656,0.673593 -1.47487,1.944064 -2.13505,3.472867 -0.66018,1.528803 -1.23903,3.297587 -1.73924,4.826222 -0.50021,1.528635 -0.92464,2.796697 -1.35531,3.488297 -0.43067,0.691599 -0.87405,0.79822 -1.41427,0.361303 -0.54021,-0.436917 -1.1816,-1.408723 -1.92817,-2.565621 -0.74657,-1.156898 -1.59652,-2.480039 -2.46134,-3.559435 -0.86483,-1.079397 -1.73789,-1.899748 -2.510259,-2.257851 -0.77236,-0.358102 -1.43827,-0.252557 -1.96391,0.211784 -0.52564,0.46434 -0.91139,1.275323 -1.23204,2.140895 -0.32065,0.865572 -0.58283,1.770233 -0.9059,2.471931 -0.32308,0.701699 -0.71434,1.193571 -1.22644,1.45489 -0.51209,0.261319 -1.14615,0.2986 -1.82723,0.297105 -0.68108,-0.0015 -1.40207,-0.02756 -2.01306,0.137545 -0.61098,0.165107 -1.10166,0.531938 -1.38194,1.156841 -0.28028,0.624904 -0.34531,1.506627 -0.27282,2.486993 0.0725,0.980366 0.2766,2.047439 0.38725,2.947475 0.11064,0.900036 0.11409,1.619634 -0.20693,2.006785 -0.32102,0.387151 -0.97824,0.437062 -1.99774,0.222248 -1.0195,-0.214814 -2.40141,-0.687192 -3.91409,-1.163899 -1.51267,-0.476707 -3.14294,-0.944204 -4.52253,-1.143244 -1.3796,-0.19904 -2.49029,-0.119619 -3.06814,0.329206 -0.57785,0.448824 -0.61229,1.266823 -0.1376,2.327276 0.47469,1.060453 1.45351,2.3541 2.60316,3.638385 1.14966,1.284285 2.4526,2.54847 3.48224,3.602515 1.02964,1.054044 1.76801,1.893485 1.9705,2.491198 0.20249,0.597712 -0.13668,0.957696 -0.92717,1.199074 -0.79048,0.241377 -2.02209,0.372254 -3.34619,0.545779 -1.3241,0.173525 -2.7223,0.395139 -3.83658,0.741233 -1.11427,0.346095 -1.93163,0.815832 -2.32451,1.380254 -0.39289,0.564422 -0.36297,1.218421 -0.0727,1.88554 0.29026,0.66712 0.82652,1.343233 1.31222,1.983362 0.4857,0.640129 0.90539,1.244763 1.074,1.82845 0.16862,0.583686 0.0819,1.150451 -0.18886,1.735136 -0.27073,0.584684 -0.71495,1.190325 -1.07106,1.814239 -0.35611,0.623914 -0.6067,1.264563 -0.52407,1.870075 0.0826,0.605511 0.50936,1.170679 1.26768,1.647188 0.75831,0.47651 1.84376,0.860375 2.97946,1.175925 1.13569,0.31555 2.30449,0.564602 3.15017,0.856783 0.84568,0.292182 1.35065,0.63496 1.34119,1.150104 -0.009,0.515143 -0.53855,1.210276 -1.43367,2.108752 -0.89513,0.898476 -2.14516,2.00137 -3.35223,3.178949 -1.20707,1.17758 -2.35143,2.422128 -3.04734,3.513012 -0.69591,1.09088 -0.92868,2.01633 -0.57479,2.6143 0.35389,0.59797 1.29439,0.86128 2.61191,0.81607 1.31753,-0.0452 2.99829,-0.39557 4.65036,-0.83222 1.65207,-0.43665 3.25835,-0.94748 4.5031,-1.25851 1.24475,-0.31103 2.11948,-0.41005 2.56916,-0.15504 0.44969,0.25502 0.47926,0.86723 0.28792,1.74817 -0.19134,0.88093 -0.59036,2.02216 -0.91541,3.17221 -0.32505,1.15004 -0.56502,2.29524 -0.5545,3.20787 0.0105,0.91263 0.27288,1.58436 0.75206,1.9767 0.47918,0.39234 1.16731,0.50897 1.90138,0.51659 0.73407,0.008 1.50431,-0.0808 2.17163,-0.0413 0.66731,0.0395 1.22791,0.21883 1.67195,0.62196 0.44405,0.40314 0.77603,1.03082 1.09998,1.73966 0.32396,0.70884 0.64815,1.48666 1.08339,2.06362 0.43523,0.57696 0.98642,0.93648 1.67063,0.90344 0.6842,-0.033 1.49925,-0.46688 2.35726,-1.20988 0.858009,-0.74301 1.752149,-1.78782 2.569249,-2.79646 0.8171,-1.00864 1.55178,-1.96223 2.16176,-2.49308 0.60999,-0.53085 1.09587,-0.62161 1.51573,-0.14049 0.41986,0.48112 0.77943,1.53729 1.17842,2.944 0.39899,1.40671 0.84298,3.15005 1.38159,4.77161 0.53861,1.62156 1.1723,3.09958 1.85766,4.0316 0.68536,0.93202 1.41732,1.30327 2.10238,1.0264 0.68506,-0.27687 1.31714,-1.19981 1.84211,-2.49179 0.52497,-1.29199 0.94125,-2.93626 1.28937,-4.48329 0.34813,-1.54703 0.63263,-2.97767 0.95846,-3.96472 0.32584,-0.98704 0.69984,-1.52234 1.19968,-1.59329 0.49983,-0.0709 1.12859,0.31482 1.86383,0.89026 0.73524,0.57544 1.57328,1.32392 2.40528,1.9188 0.832,0.59489 1.65038,1.02338 2.35369,1.13361 0.70332,0.11023 1.28674,-0.0976 1.7508,-0.52094 0.46406,-0.4233 0.8115,-1.05008 1.15292,-1.64205 0.34142,-0.59198 0.68563,-1.13542 1.15707,-1.46807 0.47144,-0.33265 1.07777,-0.4499 1.83087,-0.40109 0.7531,0.0488 1.6522,0.25567 2.55133,0.40149 0.89913,0.14582 1.78802,0.21632 2.45412,0.003 0.66609,-0.21371 1.09651,-0.72125 1.18494,-1.54707 0.0884,-0.82581 -0.17047,-1.96772 -0.65526,-3.23236 -0.48479,-1.26464 -1.18779,-2.63991 -1.79949,-3.84617 -0.61171,-1.20627 -1.1155,-2.23064 -1.20907,-2.902689 -0.0936,-0.672052 0.23721,-0.987367 1.06626,-0.999129 0.82906,-0.01176 2.15745,0.273408 3.74783,0.624432 1.59037,0.351023 3.42898,0.75581 5.09766,0.969216 1.66869,0.2134 3.14787,0.22685 4.10415,-0.0612 0.95628,-0.288045 1.37776,-0.877145 1.23448,-1.682845 -0.14329,-0.8057 -0.84732,-1.820242 -1.82249,-2.861233 -0.97518,-1.040991 -2.20471,-2.10016 -3.2792,-3.035037 -1.07449,-0.934877 -1.97669,-1.742843 -2.45127,-2.403077 -0.47458,-0.660235 -0.51628,-1.176638 -0.17717,-1.627151 0.3391,-0.450512 1.04899,-0.841145 1.842,-1.259705 0.79301,-0.41856 1.65198,-0.867749 2.28875,-1.374041 0.63677,-0.506292 1.04039,-1.067332 1.13961,-1.649745 0.0992,-0.582412 -0.10232,-1.181862 -0.42241,-1.762979 -0.3201,-0.581117 -0.74348,-1.142323 -1.00167,-1.694718 -0.2582,-0.552395 -0.33634,-1.09902 -0.1167,-1.685116 0.21965,-0.586096 0.73956,-1.216447 1.40747,-1.908679 0.6679,-0.692231 1.47124,-1.447778 2.08414,-2.209648 0.61289,-0.76187 1.01654,-1.525612 0.95617,-2.184628 -0.0604,-0.659016 -0.59602,-1.205785 -1.58077,-1.574348 -0.98475,-0.368564 -2.41382,-0.55468 -3.96648,-0.615443 -1.55266,-0.06076 -3.21116,1.68e-4 -4.5611,0.0087 -1.34995,0.0086 -2.37305,-0.04535 -2.83691,-0.34245 -0.46387,-0.297104 -0.36236,-0.846797 0.19931,-1.694966 0.56168,-0.848169 1.57368,-1.995921 2.66548,-3.292994 1.09181,-1.297073 2.24506,-2.734439 3.06896,-4.045627 0.82391,-1.311188 1.30449,-2.482962 1.27448,-3.308599 -0.03,-0.825637 -0.57123,-1.297319 -1.48894,-1.414489 -0.91771,-0.11717 -2.20029,0.116568 -3.53643,0.491411 -1.33615,0.374843 -2.71153,0.878285 -3.86197,1.238221 -1.15044,0.359935 -2.06927,0.564422 -2.69765,0.472698 -0.62839,-0.09172 -0.97098,-0.481757 -1.1672,-1.086174 -0.19622,-0.604417 -0.25699,-1.413695 -0.37704,-2.198921 -0.12005,-0.785225 -0.30752,-1.532666 -0.65732,-2.060829 -0.34979,-0.528164 -0.86145,-0.830203 -1.47909,-0.926036 -0.61764,-0.09583 -1.33371,0.0084 -2.01736,0.101904 -0.68366,0.0935 -1.32719,0.161193 -1.84972,-0.02373 -0.52253,-0.184921 -0.92253,-0.63486 -1.23611,-1.385842 -0.31357,-0.750983 -0.5461,-1.802336 -0.81115,-2.927621 -0.26505,-1.125285 -0.56987,-2.309748 -1.0026,-3.199532 -0.43273,-0.889785 -0.9963,-1.465857 -1.67919,-1.502873 -0.6829,-0.03701 -1.48157,0.474571 -2.30052,1.441046 -0.81895,0.966475 -1.65164,2.38032 -2.40531,3.853375 -0.75367,1.473055 -1.42468,2.985246 -2.00214,4.091767 -0.57746,1.106521 -1.0638,1.788425 -1.53275,1.836337 -0.46895,0.04791 -0.92673,-0.542878 -1.45797,-1.603983 -0.53124,-1.061105 -1.14034,-2.579901 -1.83975,-4.119116 -0.69941,-1.539216 -1.48765,-3.077957 -2.28782,-4.194704 -0.80017,-1.116746 -1.60599,-1.79688 -2.31681,-1.897055 -0.71083,-0.100174 -1.32103,0.378449 -1.79774,1.238262 -0.47671,0.859813 -0.82001,2.086007 -1.09994,3.307867 -0.279939,1.221861 -0.502539,2.422617 -0.784239,3.324601 -0.2817,0.901985 -0.62934,1.498748 -1.10301,1.776504 -0.47367,0.277757 -1.07475,0.244248 -1.7485,0.11282 -0.67376,-0.131429 -1.41424,-0.345769 -2.09553,-0.400811 -0.68129,-0.05504 -1.2947,0.05951 -1.75989,0.416402 -0.46518,0.356887 -0.77841,0.953936 -0.99622,1.646538 -0.21781,0.692602 -0.34576,1.468249 -0.55495,2.09529 -0.20919,0.627041 -0.51125,1.09263 -1.05645,1.276702 -0.5452,0.184071 -1.34229,0.08343 -2.3722,-0.201182 -1.02991,-0.284616 -2.29054,-0.744339 -3.55841,-1.121616 -1.26787,-0.377278 -2.52975,-0.657902 -3.48623,-0.613715 -0.95647,0.04419 -1.59175,0.422265 -1.74561,1.16663 -0.15386,0.744364 0.18046,1.85271 0.87869,3.137839 0.69823,1.28513 1.7522,2.735708 2.79817,4.076085 1.04596,1.340378 2.06557,2.558882 2.67824,3.476013 0.61268,0.91713 0.80238,1.529069 0.42477,1.856791 -0.37761,0.327721 -1.32486,0.376994 -2.64588,0.327952 -1.32103,-0.04904 -3.00265,-0.186421 -4.63357,-0.21441 -1.63092,-0.02799 -3.19175,0.05987 -4.32607,0.349427 -1.13432,0.289559 -1.83025,0.779733 -2.01268,1.416275 -0.18244,0.636541 0.1449,1.41311 0.75136,2.210349 0.60646,0.79724 1.47623,1.609543 2.26131,2.355088 0.78508,0.745544 1.4699,1.423857 1.84633,2.036719 0.37643,0.612861 0.44099,1.164306 0.26023,1.704709 -0.18077,0.540402 -0.59582,1.073761 -0.98668,1.630648 -0.39086,0.556887 -0.74078,1.137215 -0.82878,1.720488 -0.088,0.583273 0.0951,1.165515 0.53859,1.709005 0.44349,0.543489 1.14145,1.044594 1.84585,1.508808 0.70441,0.464213 1.3983,0.892536 1.78739,1.353152 0.3891,0.460616 0.45804,0.959283 0.10928,1.573939 -0.34876,0.614656 -1.11711,1.351122 -2.09893,2.210815 -0.98183,0.859693 -2.16345,1.842751 -3.15292,2.834923 -0.98947,0.992171 -1.76691,1.986274 -2.01872,2.811635 -0.25181,0.825362 0.0342,1.472063 0.87141,1.840707 0.83724,0.368643 2.22181,0.454298 3.84758,0.328178 1.62577,-0.12612 3.47587,-0.459213 5.12183,-0.775448 1.64595,-0.316235 3.07,-0.603594 3.9956,-0.625447 0.9256,-0.02185 1.34616,0.232546 1.2988,0.8449 -0.0474,0.612355 -0.55454,1.583933 -1.22449,2.772203 -0.66994,1.18826 -1.48678,2.58358 -2.11003,3.90878 -0.62324,1.3252 -1.04094,2.56662 -1.08733,3.50268 -0.0464,0.93605 0.27888,1.55926 0.89465,1.85536 0.61577,0.2961 1.51225,0.26953 2.46546,0.11127 0.95322,-0.15827 1.95184,-0.43534 2.81189,-0.59134 0.86006,-0.156 1.57732,-0.17985 2.12764,0.0262 0.55032,0.20606 0.93879,0.64213 1.28059,1.18845 0.34179,0.54632 0.64614,1.19129 1.04407,1.70153 0.39793,0.51024 0.89498,0.87117 1.5225,0.9418 0.62753,0.0706 1.38332,-0.1548 2.18234,-0.58015 0.79901,-0.42534 1.63389,-1.04194 2.38706,-1.55724 0.753169,-0.51529 1.418679,-0.91154 1.950869,-0.91071 0.53218,8.4e-4 0.93139,0.41274 1.2592,1.26978 0.3278,0.85705 0.59008,2.15844 0.89696,3.6242 0.30687,1.46576 0.66437,3.07965 1.13457,4.40545 0.47021,1.32581 1.05406,2.34252 1.71637,2.74469 0.66232,0.40218 1.39833,0.17854 2.1143,-0.62954 0.71597,-0.80807 1.40582,-2.19419 2.00664,-3.78214 0.60081,-1.58794 1.11073,-3.35811 1.55695,-4.83707 0.44621,-1.47895 0.83287,-2.64757 1.25324,-3.23599 0.42037,-0.58841 0.88103,-0.59099 1.45472,-0.0991 0.57369,0.49193 1.26358,1.46745 2.04987,2.56192 0.7863,1.09447 1.66573,2.28912 2.53495,3.20693 0.86921,0.91781 1.7211,1.54586 2.45485,1.73847 0.73375,0.19262 1.34462,-0.0487 1.82392,-0.57887 0.47929,-0.53019 0.82913,-1.3358 1.14442,-2.13127 0.3153,-0.79546 0.60364,-1.5665 0.97973,-2.11936 0.37608,-0.55286 0.84648,-0.88345 1.43417,-1.02628 0.58768,-0.14284 1.29184,-0.1067 2.00455,-0.10032 0.71272,0.006 1.42518,-0.0314 1.97855,-0.30642 0.55336,-0.27507 0.93727,-0.79606 1.08745,-1.57017 0.15017,-0.77411 0.0635,-1.79761 -0.13788,-2.87353 -0.20142,-1.07592 -0.50938,-2.1912 -0.66831,-3.09015 -0.15894,-0.89895 -0.15402,-1.56913 0.22483,-1.89063 0.37885,-0.32149 1.14231,-0.29169 2.27544,-0.0214 1.13312,0.2703 2.6336,0.77229 4.22487,1.23828 1.59127,0.466 3.25818,0.88259 4.61753,1.00918 1.35934,0.1266 2.39293,-0.0451 2.8634,-0.57149 0.47047,-0.52638 0.36934,-1.40536 -0.22147,-2.48833 -0.59081,-1.08298 -1.66373,-2.360121 -2.85422,-3.59667 -1.19049,-1.236548 -2.47996,-2.422863 -3.4525,-3.399113 -0.97255,-0.976249 -1.61161,-1.739776 -1.71844,-2.291656 -0.10683,-0.551879 0.32151,-0.897165 1.14865,-1.159722 0.82713,-0.262556 2.04072,-0.450015 3.28292,-0.695029 1.2422,-0.245014 2.49488,-0.551508 3.4378,-0.968169 0.94292,-0.416661 1.56564,-0.941391 1.79986,-1.532466 0.23421,-0.591074 0.0846,-1.243397 -0.24906,-1.890806 -0.33363,-0.647408 -0.83568,-1.286972 -1.22279,-1.895433 -0.3871,-0.60846 -0.64528,-1.187601 -0.64552,-1.764633"
       style="opacity:1;fill:#000000;fill-opacity:0;stroke:#000000;stroke-width:0.36252442;stroke-miterlimit:4;stroke-dasharray:none;stroke-opacity:1"
       inkscape:connector-curvature="0" />
    <path
       id="path3732-7"
       style="fill:none;fill-opacity:1;stroke:#000000;stroke-width:0.2813592;stroke-linecap:butt;stroke-linejoin:miter;stroke-opacity:1"
       d="m 111.1848,281.67188 -3.96405,-5.60912 -3.96405,-5.60911 v -6.61414 l -2.06189,-6.35792 -3.964048,-5.60913 m 6.025938,18.58119 -5.559066,-4.42572 -3.964038,-5.60912 -2.0619,-6.35792 m 11.585004,16.39276 -3.964038,-5.60911 -3.964048,-5.60911 v -6.61415 l -2.061889,-6.35792 -3.964049,-5.60912 m 6.025938,18.58119 -5.559066,-4.42574 -3.964038,-5.6091 -2.0619,-6.35792 m 11.585004,16.39276 v -6.61415 -6.61415 l 3.964048,-5.6091 2.061898,-6.35793 v -6.61415 m -6.025946,18.58118 -2.061889,-6.35793 v -6.61413 l 2.061889,-6.35792 m 0,19.32998 -2.061889,-6.35793 -2.0619,-6.35792 2.0619,-6.35792 v -6.61413 l -2.0619,-6.35793 m 0,19.32998 -3.964038,-5.6091 -2.0619,-6.35792 v -6.61415 m 6.025938,18.58117 -3.964038,-5.6091 -3.964048,-5.60911 v -6.61414 L 81.21485,209.101 77.250801,203.49188 m 6.025938,18.58119 -5.559066,-4.42574 -3.964049,-5.6091 -2.061889,-6.35793 m 23.636879,53.55513 -5.559066,-4.42574 -5.559066,-4.42571 -2.0619,-6.35793 -3.964038,-5.60912 -5.559077,-4.42571 m 11.585015,16.39276 -6.723401,-2.89946 -5.559066,-4.42572 -3.964049,-5.60911 m 16.246516,12.93429 -3.964049,-5.60912 -3.964037,-5.60911 v -6.61415 l -2.0619,-6.35792 -3.964038,-5.60912 m 6.025938,18.58119 -5.559078,-4.42572 -3.964037,-5.60913 -2.0619,-6.35792 m 11.585015,16.39277 -2.0619,-6.35793 -2.061901,-6.35791 2.061901,-6.35793 v -6.61415 l -2.061901,-6.35793 m 0,19.33001 -3.964037,-5.60912 -2.0619,-6.35792 v -6.61416 m 29.195956,51.36672 -3.964038,-5.60913 -3.964048,-5.60909 v -6.61416 l -2.061889,-6.35792 -3.964049,-5.60911 m 6.025938,18.58119 -5.559066,-4.42573 -3.964038,-5.60913 -2.0619,-6.35792 m 11.585004,16.39278 -3.964038,-5.60912 -3.964048,-5.60912 v -6.61414 l -2.061889,-6.35792 -3.964049,-5.60912 m 6.025938,18.58118 -5.559066,-4.42572 -3.964038,-5.60911 -2.0619,-6.35793 m 11.585004,16.39276 v -6.61414 -6.61414 l 3.964048,-5.60911 2.0619,-6.35793 v -6.61415 m -6.025948,18.58119 -2.061889,-6.35792 v -6.61416 l 2.061889,-6.35792 m 0,19.33 -2.061889,-6.35792 -2.0619,-6.35793 2.0619,-6.35793 v -6.61414 l -2.0619,-6.35792 m 0,19.32999 -3.964038,-5.60911 -2.0619,-6.35793 v -6.61414 m 6.025938,18.58118 -3.964038,-5.60911 -3.964049,-5.60912 v -6.61414 l -2.0619,-6.35793 -3.964037,-5.60911 m 6.025937,18.58118 -5.559077,-4.42573 -3.964037,-5.6091 -2.0619,-6.35793 m 23.63689,53.55512 -5.559066,-4.42572 -5.559078,-4.42573 -2.061889,-6.35793 -3.964048,-5.6091 -5.559066,-4.42572 m 11.585003,16.39275 -6.723389,-2.89945 -5.559077,-4.42571 -3.964038,-5.60912 m 16.246504,12.93428 -3.964037,-5.60912 -3.964049,-5.6091 v -6.61416 l -2.061889,-6.35791 -3.964048,-5.60912 m 6.025937,18.58119 -5.559066,-4.42573 -3.964048,-5.60912 -2.061889,-6.35792 m 11.585003,16.39277 -2.061889,-6.35792 -2.0619,-6.35793 2.0619,-6.35793 v -6.61414 l -2.0619,-6.35793 m 0,19.33 -3.964037,-5.60912 -2.0619,-6.35792 v -6.61415 m 29.195956,51.36671 v -6.61414 -6.61414 l 3.964048,-5.60911 2.0619,-6.35793 v -6.61415 m -6.025948,18.58119 -2.061889,-6.35792 v -6.61416 l 2.061889,-6.35792 m 0,19.33 v -6.61415 -6.61414 l 3.964048,-5.60912 2.0619,-6.35793 v -6.61414 m -6.025948,18.58119 -2.061889,-6.35793 v -6.61414 l 2.061889,-6.35793 m 0,19.33 3.964048,-5.60912 3.964038,-5.60911 6.7234,-2.89945 5.559078,-4.42573 3.964034,-5.60911 m -16.246512,12.93429 2.0619,-6.35792 3.964049,-5.60912 5.559066,-4.42573 m -11.585015,16.39277 2.0619,-6.35792 2.0619,-6.35793 5.559066,-4.42573 3.964046,-5.60911 2.06189,-6.35792 m -11.585002,16.39276 v -6.61414 l 2.061889,-6.35793 3.964049,-5.60911 m -6.025938,18.58118 v -6.61414 -6.61414 l 3.964037,-5.60912 2.061901,-6.35792 v -6.61415 m -6.025938,18.58119 -2.0619,-6.35793 v -6.61414 l 2.0619,-6.35793 m -12.051886,56.49236 -2.061889,-6.35793 -2.0619,-6.35793 2.0619,-6.35792 v -6.61415 l -2.0619,-6.35791 m 0,19.32998 -3.964038,-5.6091 -2.0619,-6.35793 v -6.61414 m 6.025938,18.58117 v -6.61414 -6.61414 l 3.964048,-5.60912 2.061889,-6.35791 v -6.61415 m -6.025937,18.58118 -2.061889,-6.35793 v -6.61414 l 2.061889,-6.35793 m 0,19.33 2.0619,-6.35793 2.061889,-6.35791 5.559077,-4.42573 3.964037,-5.60912 2.0619,-6.35792 m -11.585014,16.39277 v -6.61416 l 2.0619,-6.35791 3.964048,-5.60912 m -6.025948,57.24117 -2.061889,-6.35793 -2.0619,-6.35793 2.0619,-6.35792 v -6.61415 l -2.0619,-6.35791 m 0,19.32998 -3.964038,-5.6091 -2.0619,-6.35793 v -6.61414 m 6.025938,18.58117 -2.061889,-6.35792 -2.0619,-6.35792 2.0619,-6.35792 v -6.61415 l -2.0619,-6.35792 m 0,19.32999 -3.964049,-5.60911 -2.0619,-6.35793 v -6.61414 m 6.025949,18.58118 2.0619,-6.35792 2.061889,-6.35793 5.559066,-4.42572 3.964048,-5.60911 2.0619,-6.35793 m -11.585014,16.39276 v -6.61414 l 2.0619,-6.35793 3.964037,-5.6091 m -6.025937,18.58117 v -6.61414 -6.61415 l 3.964048,-5.60911 2.061889,-6.35793 v -6.61414 m -6.025937,18.58118 -2.061889,-6.35792 v -6.61414 l 2.061889,-6.35793 m 0,19.32999 -2.061889,-6.35792 -2.0619,-6.35793 2.0619,-6.35791 v -6.61415 l -2.0619,-6.35792 m 0,19.32998 -3.964049,-5.6091 -2.0619,-6.35793 v -6.61414 m 6.025949,57.24116 -3.964049,-5.60911 -3.964038,-5.60912 v -6.61414 l -2.0619,-6.35793 -3.964048,-5.6091 m 6.025948,18.58117 -5.559077,-4.42572 -3.964037,-5.60911 -2.0619,-6.35793 m 11.585014,16.39276 -2.0619,-6.35792 -2.0619,-6.35792 2.0619,-6.35792 v -6.61415 l -2.0619,-6.35792 m 0,19.32999 -3.964037,-5.60911 -2.0619,-6.35793 v -6.61414 m 6.025937,18.58118 v -6.61414 -6.61415 l 3.964049,-5.60911 2.061889,-6.35793 v -6.61414 m -6.025938,18.58118 -2.061889,-6.35792 v -6.61414 l 2.061889,-6.35793 m 12.051887,56.49235 -3.964049,-5.60911 -3.964038,-5.60912 v -6.61414 l -2.0619,-6.35793 -3.964048,-5.6091 m 6.025948,18.58117 -5.559077,-4.42572 -3.964037,-5.60911 -2.0619,-6.35793 m 11.585014,16.39276 -3.964048,-5.60911 -3.964049,-5.60911 v -6.61414 l -2.061889,-6.35793 -3.964049,-5.60911 m 6.025938,18.58118 -5.559066,-4.42573 -3.964037,-5.60911 -2.0619,-6.35792 m 11.585003,16.39276 v -6.61414 -6.61414 l 3.964049,-5.60912 2.0619,-6.35792 v -6.61415 m -6.025949,18.58119 -2.061889,-6.35793 v -6.61414 l 2.061889,-6.35793 m 0,19.33 -2.061889,-6.35793 -2.0619,-6.35792 2.0619,-6.35793 v -6.61414 l -2.0619,-6.35793 m 0,19.33 -3.964037,-5.60912 -2.061901,-6.35793 v -6.61414 m 6.025938,18.58119 -3.964037,-5.60912 -3.964049,-5.6091 v -6.61416 l -2.061889,-6.35791 -3.964049,-5.60912 m 6.025938,18.58119 -5.559066,-4.42573 -3.964049,-5.60912 -2.061889,-6.35793 m 23.636879,53.55513 -5.559066,-4.42573 -5.559066,-4.42573 -2.0619,-6.35791 -3.964037,-5.60912 -5.559078,-4.42573 m 11.585015,16.39276 -6.723401,-2.89944 -5.559066,-4.42573 -3.964048,-5.60911 m 16.246515,12.93428 -3.964049,-5.6091 -3.964037,-5.60912 v -6.61414 l -2.0619,-6.35793 -3.964038,-5.60911 m 6.025938,18.58118 -5.559077,-4.42573 -3.964038,-5.6091 -2.0619,-6.35793 m 11.585015,16.39276 -2.0619,-6.35792 -2.061889,-6.35793 2.061889,-6.35791 v -6.61415 l -2.061889,-6.35792 m 0,19.32998 -3.964049,-5.6091 -2.0619,-6.35793 v -6.61414 m 53.299718,125.69142 -5.559066,-4.42572 -5.559078,-4.42573 -2.061889,-6.35793 -3.964048,-5.6091 -5.559066,-4.42572 m 11.585003,16.39275 -6.723389,-2.89945 -5.559077,-4.42571 -3.964038,-5.60912 m 16.246504,12.93428 -5.559066,-4.42572 -5.559066,-4.42573 -2.0619,-6.35792 -3.964037,-5.60912 -5.559078,-4.42572 m 11.585015,16.39276 -6.7234,-2.89945 -5.559066,-4.42574 -3.964049,-5.6091 m 16.246515,12.93429 -2.0619,-6.35792 -2.0619,-6.35793 2.0619,-6.35793 v -6.61414 l -2.0619,-6.35793 m 0,19.33 -3.964037,-5.60912 -2.061901,-6.35791 v -6.61415 m 6.025938,18.58118 -3.964037,-5.60912 -3.964049,-5.6091 v -6.61415 l -2.061889,-6.35792 -3.964049,-5.60912 m 6.025938,18.58119 -5.559066,-4.42573 -3.964037,-5.60912 -2.061901,-6.35792 m 11.585004,16.39277 -5.559066,-4.42573 -5.559066,-4.42573 -2.0619,-6.35792 -3.964038,-5.60911 -5.559077,-4.42573 m 11.585015,16.39276 -6.723401,-2.89945 -5.559066,-4.42573 -3.964048,-5.60911 m 39.416533,45.71982 -6.7234,-2.89945 -6.723401,-2.89945 -3.964037,-5.60912 -5.559078,-4.42572 -6.7234,-2.89945 m 16.246515,12.93429 -7.366818,-1.14854 -6.723401,-2.89944 -5.559066,-4.42574 m 19.649285,8.47372 -5.559066,-4.42573 -5.559077,-4.42573 -2.061889,-6.35792 -3.964049,-5.60912 -5.559066,-4.42572 m 11.585004,16.39276 -6.72339,-2.89945 -5.559077,-4.42572 -3.964037,-5.60912 m 16.246504,12.93429 -3.964038,-5.60911 -3.964048,-5.60912 v -6.61414 l -2.061889,-6.35792 -3.964049,-5.60911 m 6.025938,18.58117 -5.559066,-4.42572 -3.964038,-5.60911 -2.0619,-6.35793 m 44.078034,42.26135 -3.964048,-5.60912 -3.964038,-5.6091 v -6.61416 l -2.0619,-6.35792 -3.964037,-5.60911 m 6.025937,18.58119 -5.559077,-4.42573 -3.964037,-5.60912 -2.061901,-6.35792 m 11.585015,16.39277 -3.964048,-5.60913 -3.964038,-5.6091 v -6.61415 l -2.0619,-6.35792 -3.964037,-5.60912 m 6.025937,18.58119 -5.559077,-4.42573 -3.964038,-5.60912 -2.0619,-6.35791 m 11.585015,16.39276 v -6.61415 -6.61414 l 3.964038,-5.60911 2.0619,-6.35793 v -6.61414 m -6.025938,18.58118 -2.0619,-6.35792 v -6.61415 l 2.0619,-6.35792 m 0,19.32999 -2.0619,-6.35792 -2.0619,-6.35793 2.0619,-6.35793 v -6.61414 l -2.0619,-6.35792 m 0,19.32999 -3.964038,-5.60911 -2.0619,-6.35793 v -6.61414 m 6.025938,18.58118 -3.964038,-5.60911 -3.964048,-5.60912 v -6.61414 l -2.061889,-6.35792 -3.964049,-5.60911 m 6.025938,18.58117 -5.559066,-4.42572 -3.964038,-5.60911 -2.0619,-6.35793 m 23.63689,53.55513 -5.559077,-4.42573 -5.559066,-4.42573 -2.0619,-6.35792 -3.964038,-5.60911 -5.559077,-4.42573 m 11.585015,16.39276 -6.723401,-2.89944 -5.559066,-4.42573 -3.964048,-5.60912 m 16.246515,12.93429 -3.964049,-5.60911 -3.964037,-5.60911 v -6.61415 l -2.0619,-6.35792 -3.964038,-5.60912 m 6.025938,18.58119 -5.559066,-4.42573 -3.964049,-5.60911 -2.0619,-6.35792 m 11.585015,16.39276 -2.0619,-6.35793 -2.061889,-6.35792 2.061889,-6.35792 v -6.61414 l -2.061889,-6.35793 m 0,19.32999 -3.964049,-5.60911 -2.061889,-6.35792 v -6.61415 m 29.195956,51.36671 -2.0619,-6.35793 -2.0619,-6.35792 2.0619,-6.35793 v -6.61414 l -2.0619,-6.35793 m 0,19.33 -3.964038,-5.60912 -2.0619,-6.35791 v -6.61415 m 6.025938,18.58118 -2.061889,-6.35793 -2.0619,-6.35791 2.0619,-6.35793 v -6.61414 l -2.0619,-6.35793 m 0,19.33 -3.964038,-5.60912 -2.0619,-6.35792 v -6.61415 m 6.025938,18.58119 2.0619,-6.35793 2.061889,-6.35793 5.559077,-4.42573 3.964038,-5.6091 2.0619,-6.35793 m -11.585015,16.39276 v -6.61414 l 2.0619,-6.35792 3.964049,-5.60912 m -6.025949,18.58118 v -6.61414 -6.61414 l 3.964049,-5.60912 2.0619,-6.35792 v -6.61415 m -6.025949,18.58119 -2.061889,-6.35793 v -6.61414 l 2.061889,-6.35793 m 0,19.33 -2.061889,-6.35793 -2.0619,-6.35792 2.0619,-6.35792 v -6.61415 l -2.0619,-6.35792 m 0,19.32999 -3.964038,-5.60911 -2.0619,-6.35792 v -6.61415 m 6.025938,57.24117 -3.964038,-5.60912 -3.964048,-5.60911 v -6.61415 l -2.0619,-6.35792 -3.964038,-5.60912 m 6.025938,18.58119 -5.559066,-4.42573 -3.964049,-5.60911 -2.061889,-6.35792 m 11.585004,16.39276 -2.0619,-6.35793 -2.061889,-6.35791 2.061889,-6.35793 v -6.61414 l -2.061889,-6.35793 m 0,19.33 -3.964049,-5.60912 -2.061889,-6.35793 v -6.61414 m 6.025938,18.58119 v -6.61416 -6.61414 l 3.964037,-5.60911 2.0619,-6.35792 v -6.61415 m -6.025937,18.58118 -2.061901,-6.35792 v -6.61414 l 2.061901,-6.35793"
       inkscape:connector-curvature="0" />
  </g>
</svg>
